<svg id="Layer_1" data-name="Layer 1" xmlns="http://www.w3.org/2000/svg" xmlns:xlink="http://www.w3.org/1999/xlink" viewBox="0 0 272.35 271.62"><defs><style>.cls-1{fill:#fff;}.cls-2{fill:url(#radial-gradient);}</style><radialGradient id="radial-gradient" cx="136.16" cy="138.19" r="135.99" gradientTransform="matrix(1, 0, 0, -1, 0, 274)" gradientUnits="userSpaceOnUse"><stop offset="0" stop-color="#231f20"/><stop offset="0.29" stop-color="#292728"/><stop offset="0.38" stop-color="#2b2a2b"/><stop offset="0.44" stop-color="#2f393b"/><stop offset="0.57" stop-color="#386064"/><stop offset="0.74" stop-color="#479ea6"/><stop offset="0.84" stop-color="#50c3cd"/><stop offset="1" stop-color="#50c3cd"/></radialGradient></defs><title>ash-color-white-text</title><path class="cls-1" d="M119.5,171.4H102.4v-1.6h4.3L103,153H91.1c-1.7,8.5-2.6,13.1-2.6,13.8,0,2.1,1.1,3.1,3.3,3.1h2.4v1.6H80.7v-1.6h1.4c2.5,0,4.2-1.8,4.9-5.3l12.1-60h2l14.3,65.3h4.1Zm-16.8-20-5.8-27.3-5.5,27.3Z" transform="translate(0.02 0)"/><path class="cls-1" d="M144.4,123.6q-1.2-8.55-4.2-12.9c-2-2.9-4.3-4.4-7-4.4a5.43,5.43,0,0,0-4.5,2.4,10.13,10.13,0,0,0-1.8,6.2,16.58,16.58,0,0,0,1.9,8c1.2,2.5,3.6,5.6,7.1,9.5,4.9,5.4,8.4,9.9,10.3,13.7a23.38,23.38,0,0,1,2.9,11.2,15,15,0,0,1-4,10.7c-2.7,2.8-6.3,4.2-11.1,4.2a11.66,11.66,0,0,1-7.6-3.1c-1-.8-1.7-1.3-2.1-1.3-1.8,0-2.7,1.2-2.9,3.6h-1.5V150.9h1.5c.7,6.3,2.3,11.2,4.8,14.6s5.1,5.1,8,5.1a6.64,6.64,0,0,0,5.5-2.4c1.3-1.6,1.9-3.8,1.9-6.8a19.28,19.28,0,0,0-2.6-9.6c-1.7-3.2-4.6-6.9-8.7-11.3a53.39,53.39,0,0,1-8.1-10.6,18.68,18.68,0,0,1-2.5-9.1c0-5.2,1.3-9.1,3.8-12a12.29,12.29,0,0,1,9.6-4.2,13.76,13.76,0,0,1,7,2.3,6.35,6.35,0,0,0,2.4,1.1c1.3,0,1.9-.8,1.9-2.3v-.4H146v18.1h-1.6Z" transform="translate(0.02 0)"/><path class="cls-1" d="M186,171.4H169.3v-1.6h3.6V135.5H161.2v34.3h3.6v1.6H148.1v-1.6h4.4V107h-4.4v-1.6h16.7V107h-3.6v27h11.7V107h-3.6v-1.6H186V107h-4.5v62.8H186Z" transform="translate(0.02 0)"/><path class="cls-2" d="M146.4,218.9h.4a3,3,0,0,1,3,2.6,3,3,0,0,1-2.6,3.4c-.1,0-.3.1-.4.1a3.07,3.07,0,0,1-.4-6.1Zm3.4-5.9a2.77,2.77,0,0,0,2.7,2.2,1.27,1.27,0,0,0,.6-.1,2.81,2.81,0,0,0,2.1-3.3,2.69,2.69,0,0,0-2.7-2.1,1.27,1.27,0,0,0-.6.1A2.64,2.64,0,0,0,149.8,213ZM163.3,65a2.79,2.79,0,0,0,1-5.4,3.55,3.55,0,0,0-1-.2,3,3,0,0,0-2.6,1.7,2.9,2.9,0,0,0,1.6,3.6A1.93,1.93,0,0,0,163.3,65Zm4,146.3a2.63,2.63,0,0,0,1.4-3.6,2.83,2.83,0,0,0-2.5-1.7,4.25,4.25,0,0,0-1.1.2,2.63,2.63,0,0,0-1.4,3.6,2.78,2.78,0,0,0,1.9,1.6A2.5,2.5,0,0,0,167.3,211.3ZM156.9,37.2a2.2,2.2,0,0,0,.8.1,3.42,3.42,0,0,0,3.4-2.8,3.54,3.54,0,0,0-2.7-4.2,2.2,2.2,0,0,0-.8-.1,3.52,3.52,0,0,0-3.4,2.7A3.67,3.67,0,0,0,156.9,37.2ZM158,20.6c.3,0,.5.1.8.1a3.94,3.94,0,0,0,.8-7.8,2.2,2.2,0,0,0-.8-.1,3.94,3.94,0,0,0-.8,7.8ZM147.1,44.5h.4a3.31,3.31,0,0,0,.4-6.6h-.4a3.31,3.31,0,0,0-.4,6.6ZM133,54.2h0a2.65,2.65,0,0,0-2.7,2.8,2.75,2.75,0,0,0,2.7,2.7h.1a2.78,2.78,0,0,0,2.7-2.8A2.84,2.84,0,0,0,133,54.2Zm4.2,162.9h0a2.65,2.65,0,0,0,2.7-2.8,2.69,2.69,0,0,0-2.7-2.7h-.1a2.75,2.75,0,0,0,.1,5.5Zm3.2-165.3a3,3,0,0,0,3-2.9,3,3,0,0,0-2.8-3.2h-.2a3,3,0,0,0-3,2.9,3,3,0,0,0,2.8,3.2Zm-3-23.9a3.5,3.5,0,0,0-.1,7h.1a3.5,3.5,0,1,0,0-7Zm7.4-19.1a4.38,4.38,0,0,0,4.6-4.2A4.28,4.28,0,0,0,145.7.1c-.2,0-.3-.1-.5-.1H145a4.4,4.4,0,0,0-4.4,4.2A4.44,4.44,0,0,0,144.8,8.8Zm2.5,11.9a3.69,3.69,0,0,0-3.7,3.3,3.65,3.65,0,0,0,3.3,4.1h.4a3.71,3.71,0,0,0,.4-7.4Zm1.6,34.7h-.5a2.69,2.69,0,0,0-2.7,2.3,2.73,2.73,0,0,0,2.2,3.2h.5a2.69,2.69,0,0,0,2.7-2.3A2.73,2.73,0,0,0,148.9,55.4Zm50.3-22.8a4,4,0,0,0,1.1,5.5,4.39,4.39,0,0,0,2.2.7,3.91,3.91,0,0,0,2.2-7.2,4.39,4.39,0,0,0-2.2-.7A4,4,0,0,0,199.2,32.6Zm-5.4-9.7a4.55,4.55,0,0,0,2,.5,4.44,4.44,0,0,0,3.9-2.4,4.33,4.33,0,0,0-1.9-5.9,4.55,4.55,0,0,0-2-.5,4.44,4.44,0,0,0-3.9,2.4A4.33,4.33,0,0,0,193.8,22.9Zm10.8,29.9a3.58,3.58,0,0,0,2.4.9,3.74,3.74,0,0,0,2.9-1.3,3.67,3.67,0,0,0-.5-5.2,3.78,3.78,0,0,0-2.4-.9,4.11,4.11,0,0,0-2.9,1.3A3.68,3.68,0,0,0,204.6,52.8Zm13.5-5.7a4,4,0,0,0,0,5.6,3.84,3.84,0,0,0,2.8,1.1,4.3,4.3,0,0,0,2.8-1.1,4,4,0,0,0,0-5.6,4,4,0,0,0-2.8-1.2A4,4,0,0,0,218.1,47.1Zm-3.5-10.5a4.12,4.12,0,0,0,2.7,1,4.36,4.36,0,0,0,2.7-7.8,4.19,4.19,0,0,0-2.8-1,4.32,4.32,0,0,0-2.6,7.8ZM163.3,222a2.94,2.94,0,0,0,1.9-3.8,3,3,0,0,0-2.9-2.1,4.4,4.4,0,0,0-1,.2,3,3,0,0,0,2,5.7ZM208,61a3.5,3.5,0,0,0-.1,5h0a3.58,3.58,0,0,0,2.5,1.1,3.1,3.1,0,0,0,2.4-1,3.55,3.55,0,0,0-2.4-6.1A3.41,3.41,0,0,0,208,61ZM157.9,232.1a3.79,3.79,0,0,0,1.5,0h0a3.27,3.27,0,0,0,2.4-4,3.3,3.3,0,0,0-3.2-2.5,2,2,0,0,0-.8.1h0a3.34,3.34,0,0,0-2.4,4.1A3.43,3.43,0,0,0,157.9,232.1Zm-.6-177.5a3.07,3.07,0,0,0,2.9-2.3,3,3,0,0,0-2.2-3.7,2.2,2.2,0,0,0-.8-.1,3,3,0,0,0-.7,6C156.7,54.5,157,54.6,157.3,54.6Zm7.4-6a3.59,3.59,0,0,0,1.1.2,3.48,3.48,0,0,0,3.2-2.2,3.32,3.32,0,0,0-2.1-4.2,4.25,4.25,0,0,0-1.1-.2,3.43,3.43,0,0,0-3.2,2.3A3.21,3.21,0,0,0,164.7,48.6ZM180,27.2a4,4,0,0,0,1.5.3,4.14,4.14,0,0,0,3.7-2.4,4,4,0,1,0-5.2,2.1Zm-6.1,11.6a3.44,3.44,0,0,0,1.8,4.6,3.53,3.53,0,0,0,1.4.3,3.49,3.49,0,0,0,3.2-2.1,3.41,3.41,0,0,0-1.8-4.6,3.53,3.53,0,0,0-1.4-.3A3.59,3.59,0,0,0,173.9,38.8Zm-6.3-6.3a5.16,5.16,0,0,0,1.1.2,3.74,3.74,0,0,0,1.2-7.3,5.16,5.16,0,0,0-1.1-.2,3.74,3.74,0,0,0-1.2,7.3Zm19.5,8.3a4.07,4.07,0,0,0,1.8.5,3.86,3.86,0,0,0,3.3-1.9,3.78,3.78,0,0,0-1.5-5.1,4.07,4.07,0,0,0-1.8-.5,3.72,3.72,0,0,0-1.8,7ZM50.2,116.5a2.2,2.2,0,0,0,.8.1,3,3,0,0,0,.7-5.9,2.2,2.2,0,0,0-.8-.1,3.18,3.18,0,0,0-3,2.3A3.15,3.15,0,0,0,50.2,116.5Zm-.6,64.7a2.82,2.82,0,0,0,1.5-.4,3.32,3.32,0,0,0,1.5-4.4h0a3.29,3.29,0,0,0-3-1.9,4,4,0,0,0-1.5.3,3.4,3.4,0,0,0,1.5,6.4Zm-2-102.5a3.61,3.61,0,0,0,2,.6,3.5,3.5,0,0,0,2-6.4,3.61,3.61,0,0,0-2-.6,3.51,3.51,0,0,0-2.9,1.5A3.62,3.62,0,0,0,47.6,78.7Zm1.3,71.7h.4a3,3,0,0,0,2.6-3.4h0a3,3,0,0,0-3-2.6h-.4a3,3,0,0,0-2.6,3.4A3,3,0,0,0,48.9,150.4Zm-3.7-20.2a3,3,0,0,0,2.9,3.2h.2a3,3,0,0,0,3-2.9,3,3,0,0,0-2.8-3.2h-.2A3.08,3.08,0,0,0,45.2,130.2Zm4.2-62.7a4.11,4.11,0,0,0,2.9-1.3,3.8,3.8,0,0,0-.5-5.3,3.58,3.58,0,0,0-2.4-.9,4.11,4.11,0,0,0-2.9,1.3,3.88,3.88,0,0,0,.4,5.3A4,4,0,0,0,49.4,67.5ZM59.5,197a3.06,3.06,0,0,0,2-.7,3.34,3.34,0,0,0,.6-4.7,3.47,3.47,0,0,0-2.6-1.3,3.06,3.06,0,0,0-2,.7,3.34,3.34,0,0,0-.6,4.7A3,3,0,0,0,59.5,197Zm-2-77.4a2.69,2.69,0,0,0-2.7,2.3,2.73,2.73,0,0,0,2.2,3.2h.5a2.69,2.69,0,0,0,2.7-2.3,2.8,2.8,0,0,0-2.3-3.2Zm1.6-13.1a2.9,2.9,0,0,0,1.6,3.6,3.55,3.55,0,0,0,1,.2,2.8,2.8,0,0,0,2.6-1.8,2.74,2.74,0,0,0-1.6-3.5,3.55,3.55,0,0,0-1-.2A2.5,2.5,0,0,0,59.1,106.5ZM62.5,178a3,3,0,0,0-2.6-1.5,2.82,2.82,0,0,0-1.5.4,3,3,0,0,0-1.1,4.1,3,3,0,0,0,2.6,1.5,2.82,2.82,0,0,0,1.5-.4A2.89,2.89,0,0,0,62.5,178Zm-4.2-22.2a1.27,1.27,0,0,0,.6-.1,2.79,2.79,0,0,0-.6-5.5,1.27,1.27,0,0,0-.6.1,2.81,2.81,0,0,0-2.1,3.3A2.86,2.86,0,0,0,58.3,155.8Zm-1.8-15.3a2.78,2.78,0,0,0,2.7-2.8h0a2.75,2.75,0,0,0-2.7-2.7h-.1a2.78,2.78,0,0,0-2.7,2.8,2.71,2.71,0,0,0,2.8,2.7Zm49.8-76.6a3,3,0,0,0-2-1.5h-.5a2.66,2.66,0,0,0-1.2.3,2.75,2.75,0,0,0,2.5,4.9A2.78,2.78,0,0,0,106.3,63.9Zm15,152h.5a2.78,2.78,0,0,0,.5-5.5h-.5a2.69,2.69,0,0,0-2.7,2.3A2.63,2.63,0,0,0,121.3,215.9ZM126.4,49a3,3,0,0,0-3-2.6H123a3,3,0,0,0,.4,6h.4A3,3,0,0,0,126.4,49ZM120.8,9.4h.5a4.36,4.36,0,0,0-.5-8.7h-.5a4.44,4.44,0,0,0-3.9,4.8A4.43,4.43,0,0,0,120.8,9.4ZM124.5,21h-.4a3.78,3.78,0,1,0,.9,7.5,3.73,3.73,0,0,0,3.2-4.2,3.61,3.61,0,0,0-3.1-3.2A1.27,1.27,0,0,0,124.5,21ZM113.1,34.5a3.53,3.53,0,1,0,4-4.2h-.5a2.2,2.2,0,0,0-.8.1A3.39,3.39,0,0,0,113.1,34.5Zm9.1,198.9h.4a3.31,3.31,0,0,0,.4-6.6h-.4a3.31,3.31,0,0,0-.4,6.6Zm-10-10.7a2.2,2.2,0,0,0,.8.1,3,3,0,0,0,.7-6,2.2,2.2,0,0,0-.8-.1,3,3,0,0,0-.7,6ZM103.8,31.9a3.08,3.08,0,0,0,1-.1,3.79,3.79,0,0,0,2.6-4.6,3.84,3.84,0,0,0-3.6-2.7,2.34,2.34,0,0,0-1.1.2,3.65,3.65,0,0,0-2.5,4.6A3.75,3.75,0,0,0,103.8,31.9Zm9.8,11.8a3.37,3.37,0,0,0-2.7-2.3h-.5a3.4,3.4,0,0,0-1,.1h0a3.41,3.41,0,0,0-2.2,4.2,3.46,3.46,0,0,0,4.2,2.2h0A3.33,3.33,0,0,0,113.6,43.7Zm-2.2-23.1a2.2,2.2,0,0,0,.8-.1,3.94,3.94,0,0,0-.8-7.8,2.2,2.2,0,0,0-.8.1,3.94,3.94,0,0,0,.8,7.8Zm-5.5,191.1a3.55,3.55,0,0,0,1,.2,2.8,2.8,0,0,0,2.6-1.8,2.74,2.74,0,0,0-1.6-3.5,3.55,3.55,0,0,0-1-.2,3,3,0,0,0-2.6,1.7A2.82,2.82,0,0,0,105.9,211.7ZM110,53.5a3.14,3.14,0,0,0-2.4-1.9h-.5a3,3,0,1,0,1.2,5.8A3,3,0,0,0,110,53.5Zm24.1-35a3.93,3.93,0,0,0,3.8-4.1,4.06,4.06,0,0,0-3.3-3.8c-.2,0-.4-.1-.7-.1h-.1a3.93,3.93,0,0,0-3.8,4.1A4,4,0,0,0,134.1,18.5ZM96,35.2a3.46,3.46,0,0,0,1.3,6.7,6.88,6.88,0,0,0,1.3-.2h0A3.46,3.46,0,0,0,97.3,35,2,2,0,0,0,96,35.2Zm164.5,65.3a5.85,5.85,0,0,0,1.3-.2,4.43,4.43,0,0,0,2.9-5.5,4.38,4.38,0,0,0-4.2-3.1,5.85,5.85,0,0,0-1.3.2,4.43,4.43,0,0,0-2.9,5.5A4.38,4.38,0,0,0,260.5,100.5ZM220,62.7a3.78,3.78,0,0,0-.6,5.2,3.7,3.7,0,0,0,2.9,1.4,3.78,3.78,0,0,0,2.3-.8,3.7,3.7,0,0,0-2.3-6.6A4,4,0,0,0,220,62.7Zm9,36.4a3.46,3.46,0,0,0,3.3,2.2,6.88,6.88,0,0,0,1.3-.2,3.47,3.47,0,0,0,2-4.5,3.55,3.55,0,0,0-3.3-2.3,6.88,6.88,0,0,0-1.3.2,3.71,3.71,0,0,0-2,4.6Zm18.2-5.9a4,4,0,0,0,1.5-.3,4,4,0,0,0-1.6-7.6,4,4,0,0,0-1.5.3,3.9,3.9,0,0,0-2.1,5.2A4,4,0,0,0,247.2,93.2ZM239,105.4a3.84,3.84,0,0,0,3.6,2.7,2.15,2.15,0,0,0,1.1-.2,3.65,3.65,0,0,0,2.5-4.6,3.84,3.84,0,0,0-3.6-2.7,1.8,1.8,0,0,0-1,.2A3.63,3.63,0,0,0,239,105.4Zm11.4-28.6a5.37,5.37,0,0,0,2.1-.5,4.53,4.53,0,0,0,1.8-6h0a4.3,4.3,0,0,0-3.8-2.3,5.37,5.37,0,0,0-2.1.5,4.41,4.41,0,0,0-1.7,6A3.85,3.85,0,0,0,250.4,76.8Zm-23.8,37.1h0a3.2,3.2,0,0,0,4,2.4,3.35,3.35,0,0,0,2.5-2.5,3.79,3.79,0,0,0,0-1.5h0a3.3,3.3,0,0,0-3.2-2.5,2.2,2.2,0,0,0-.8.1A3.19,3.19,0,0,0,226.6,113.9ZM232.4,54a4.25,4.25,0,0,0,3.4,1.6,4.19,4.19,0,0,0,2.8-1,4.43,4.43,0,0,0,.6-6.2,4.58,4.58,0,0,0-3.4-1.6,4.19,4.19,0,0,0-2.8,1,4.43,4.43,0,0,0-.6,6.2ZM174.8,67.6a2.68,2.68,0,0,0,2.3,4.2,2.56,2.56,0,0,0,2.3-1.3,2.76,2.76,0,0,0-.9-3.8,2.5,2.5,0,0,0-1.4-.4A3,3,0,0,0,174.8,67.6Zm-.2-12.9a3.08,3.08,0,0,0-1.3-.3,3,3,0,0,0-2.7,1.7,3,3,0,0,0,2.7,4.4,3,3,0,0,0,2.7-1.7A3.14,3.14,0,0,0,174.6,54.7Zm2.7,169.8a3.19,3.19,0,0,0,1.4-.3h0a3.26,3.26,0,0,0-1.5-6.2,4,4,0,0,0-1.5.3h0a3.32,3.32,0,0,0-1.5,4.5A3.66,3.66,0,0,0,177.3,224.5Zm43.5-20.6a3.74,3.74,0,0,0-2.9,1.3,3.8,3.8,0,0,0,.5,5.3,3.58,3.58,0,0,0,2.4.9,3.74,3.74,0,0,0,2.9-1.3,3.67,3.67,0,0,0-.5-5.2A3.25,3.25,0,0,0,220.8,203.9Zm-39.2,5.4a3,3,0,0,0-2.6-1.5,2.82,2.82,0,0,0-1.5.4,3,3,0,0,0-1.1,4.1,3,3,0,0,0,2.6,1.5,2.6,2.6,0,0,0,1.5-.4A3,3,0,0,0,181.6,209.3ZM223.1,76.1a3.58,3.58,0,0,0-3,5.4,3.42,3.42,0,0,0,3,1.6,4.49,4.49,0,0,0,1.9-.5,3.55,3.55,0,0,0,1.1-4.8A3.64,3.64,0,0,0,223.1,76.1Zm-.6,116.5a3.61,3.61,0,0,0-2-.6,3.5,3.5,0,0,0-2,6.4,3.61,3.61,0,0,0,2,.6,3.5,3.5,0,0,0,2-6.4Zm7.5-47.8h-.4a3.34,3.34,0,0,0-3.3,2.9,3.29,3.29,0,0,0,2.9,3.7h.4a3.34,3.34,0,0,0,3.3-2.9A3.42,3.42,0,0,0,230,144.8Zm6.2,16.9a2.2,2.2,0,0,0,.8.1,3.5,3.5,0,0,0,3.4-2.8,3.54,3.54,0,0,0-2.7-4.2,2.2,2.2,0,0,0-.8-.1,3.52,3.52,0,0,0-3.4,2.7A3.59,3.59,0,0,0,236.2,161.7Zm-6-35.6h-.3a3.34,3.34,0,0,0-3.1,3.5,3.29,3.29,0,0,0,3.3,3.1h.2a3.34,3.34,0,0,0,3.1-3.5A3.2,3.2,0,0,0,230.2,126.1Zm32.2,13.1c0-.3.1-.5.1-.8a3.93,3.93,0,0,0-3.9-4h-.1a4,4,0,0,0-4,3.9,4,4,0,0,0,7.9.9Zm-1-17.4a4.51,4.51,0,0,0,4.4,3.9h.5a4.44,4.44,0,0,0,3.9-4.8,4.35,4.35,0,0,0-4.4-3.9h-.5A4.38,4.38,0,0,0,261.4,121.8Zm-24.5-1.4a3.5,3.5,0,0,0,4,2.9,3.4,3.4,0,0,0,2.9-2.7,2.85,2.85,0,0,0,0-1.3,3.54,3.54,0,0,0-3.5-3h-.5A3.66,3.66,0,0,0,236.9,120.4Zm17.9,35.1a2.2,2.2,0,0,0-.8-.1,4,4,0,0,0-3.9,3.2,4,4,0,0,0,3.1,4.6c.3,0,.5.1.8.1a4,4,0,0,0,3.9-3.2h0A3.81,3.81,0,0,0,254.8,155.5Zm-8.4-3.9a3.71,3.71,0,0,0,.4-7.4h-.4a3.71,3.71,0,0,0-.4,7.4Zm6.2-22.4a3.4,3.4,0,0,0,.1-1,3.72,3.72,0,0,0-3.7-3.5h-.2a3.72,3.72,0,0,0-3.5,4,3.68,3.68,0,0,0,7.3.5Zm1.5-13.2a2.2,2.2,0,0,0,.8-.1,4,4,0,0,0-.7-7.9,2.2,2.2,0,0,0-.8.1,4,4,0,0,0,.7,7.9ZM239.2,66.1a4,4,0,0,0-3.3-1.7,3.6,3.6,0,0,0-2.2.7,4,4,0,0,0-1.1,5.5,4.13,4.13,0,0,0,3.3,1.8,3.6,3.6,0,0,0,2.2-.7A4,4,0,0,0,239.2,66.1Zm1.5,106.8a5.16,5.16,0,0,0,1.1.2,3.75,3.75,0,0,0,3.6-2.6,3.82,3.82,0,0,0-2.4-4.7,4.25,4.25,0,0,0-1.1-.2,3.84,3.84,0,0,0-3.6,2.6A3.7,3.7,0,0,0,240.7,172.9Zm-1.4-31.4h0a3.55,3.55,0,0,0,3.6-3.4,3.61,3.61,0,0,0-3.4-3.6h-.1a3.5,3.5,0,0,0-.1,7Zm-4.9-53.8a3.29,3.29,0,0,0,1.7-.4,3.76,3.76,0,0,0,1.6-5h0a3.75,3.75,0,0,0-3.3-2,3.29,3.29,0,0,0-1.7.4,3.59,3.59,0,0,0-1.6,5A3.54,3.54,0,0,0,234.4,87.7Zm-26.7,5.6h0a2.9,2.9,0,0,0,2.6,1.5,2.82,2.82,0,0,0,1.5-.4,3,3,0,0,0,1.1-4.1h0a3,3,0,0,0-2.6-1.5,2.82,2.82,0,0,0-1.5.4A2.89,2.89,0,0,0,207.7,93.3Zm-.4,13.1a2.73,2.73,0,0,0,5.2-.4,3.28,3.28,0,0,0-.1-1.7,2.68,2.68,0,0,0-2.5-1.7,4.25,4.25,0,0,0-1.1.2A2.68,2.68,0,0,0,207.3,106.4Zm5.4,45.4a2.77,2.77,0,0,0,.4-5.5h-.5a2.69,2.69,0,0,0-2.7,2.3,2.73,2.73,0,0,0,2.2,3.2C212.3,151.7,212.5,151.8,212.7,151.8Zm-2-77.5a3.06,3.06,0,0,0-2,.7,3.34,3.34,0,0,0-.6,4.7,3.17,3.17,0,0,0,2.6,1.3,3.06,3.06,0,0,0,2-.7,3.43,3.43,0,0,0,.6-4.7A3.32,3.32,0,0,0,210.7,74.3Zm.5,41.3a2.81,2.81,0,0,0-2.1,3.3,2.69,2.69,0,0,0,2.7,2.1,1.27,1.27,0,0,0,.6-.1,2.76,2.76,0,0,0,2.1-3.3,2.69,2.69,0,0,0-2.7-2.1C211.6,115.5,211.4,115.6,211.2,115.6Zm5.3,17.9a2.69,2.69,0,0,0-2.7-2.7h-.1a2.75,2.75,0,0,0,0,5.5h.1A2.6,2.6,0,0,0,216.5,133.5Zm4.8-6.5h.4a3,3,0,0,0-.4-6h-.4a3,3,0,0,0,.4,6Zm-.7-36.8a4,4,0,0,0-1.5.3,3.32,3.32,0,0,0-1.5,4.4,3.4,3.4,0,0,0,3,1.9,2.82,2.82,0,0,0,1.5-.4,3.24,3.24,0,0,0,1.5-4.4A3.49,3.49,0,0,0,220.6,90.2Zm-3.3,20a3,3,0,0,0,3.8,2,2.8,2.8,0,0,0,2-2.2,2.92,2.92,0,0,0-.1-1.6,3,3,0,0,0-2.9-2.1,2.77,2.77,0,0,0-.9.1A2.91,2.91,0,0,0,217.3,110.2Zm7.7,31a3,3,0,0,0-2.8-3.2H222a3,3,0,0,0-3,2.8,3,3,0,0,0,2.9,3.2h.2A3,3,0,0,0,225,141.2Zm-42.2,57.2a2.63,2.63,0,0,0-2.2-1.2,3,3,0,0,0-1.6.5,2.84,2.84,0,0,0-.7,3.8,2.79,2.79,0,0,0,2.2,1.1,3,3,0,0,0,1.6-.5A2.7,2.7,0,0,0,182.8,198.4Zm35.5-74Zm.2,36.4a2.2,2.2,0,0,0,.8.1,3,3,0,0,0,.7-5.9,2.2,2.2,0,0,0-.8-.1,3.18,3.18,0,0,0-3,2.3A3.15,3.15,0,0,0,218.5,160.8Zm-7.4,4.1a2.9,2.9,0,0,0-1.6-3.6,3,3,0,0,0-1-.2,2.91,2.91,0,0,0-2.6,1.8,2.66,2.66,0,0,0,1.6,3.5,3.55,3.55,0,0,0,1,.2A2.76,2.76,0,0,0,211.1,164.9Zm-18.3,39a3.06,3.06,0,0,0,2-.7,3,3,0,0,0,.3-4.3,2.9,2.9,0,0,0-2.3-1,3.18,3.18,0,0,0-2,.8,3.12,3.12,0,0,0-.3,4.3A3.17,3.17,0,0,0,192.8,203.9ZM189.3,81.3a3,3,0,0,0,2-.8,2.81,2.81,0,0,0-.1-3.9,2.73,2.73,0,0,0-1.9-.8,2.66,2.66,0,0,0-2,.9,2.81,2.81,0,0,0,.1,3.9A2.64,2.64,0,0,0,189.3,81.3Zm2.9,111.3a3.18,3.18,0,0,0,2-.8h0a2.8,2.8,0,0,0-2-4.7,2.83,2.83,0,0,0-2,.9,2.72,2.72,0,0,0,.1,3.9A3.16,3.16,0,0,0,192.2,192.6Zm.7-139.5a3.61,3.61,0,0,0,2,.6,3.51,3.51,0,0,0,2.9-1.5,3.43,3.43,0,0,0-2.8-5.5,3.51,3.51,0,0,0-2.9,1.5A3.42,3.42,0,0,0,192.9,53.1Zm-7,15.7a3,3,0,0,0,4.2-.6,2.93,2.93,0,0,0-.6-4.2,3,3,0,1,0-3.6,4.8Zm-.3-14a3.41,3.41,0,0,0-1.2-4.6,3.17,3.17,0,0,0-1.6-.4,3.33,3.33,0,0,0-1.7,6.2h0a3.29,3.29,0,0,0,1.7.4A2.93,2.93,0,0,0,185.6,54.8Zm12.7,20.9a3,3,0,0,0,2,5.3,3.18,3.18,0,0,0,2-.8,3,3,0,0,0,.3-4.3,2.9,2.9,0,0,0-2.3-1A3.55,3.55,0,0,0,198.3,75.7Zm-5.2,138.9a3.06,3.06,0,0,0,2-.7,3.34,3.34,0,0,0,.6-4.7,3.17,3.17,0,0,0-2.6-1.3,3.06,3.06,0,0,0-2,.7,3.34,3.34,0,0,0-.6,4.7A3,3,0,0,0,193.1,214.6Zm7.1-34.6a2.82,2.82,0,0,0,1.5.4,2.56,2.56,0,0,0,2.3-1.3,2.68,2.68,0,0,0-2.3-4.2,2.77,2.77,0,0,0-2.3,1.3A2.65,2.65,0,0,0,200.2,180Zm2.3,10.8a3,3,0,0,0,4.2-.6,3.14,3.14,0,0,0-.6-4.3,3,3,0,0,0-4.2.6A3.16,3.16,0,0,0,202.5,190.8ZM199.4,93a3.32,3.32,0,0,0,1.6-.5,2.84,2.84,0,0,0,.7-3.8,2.68,2.68,0,0,0-2.3-1.2,3.32,3.32,0,0,0-1.6.5,2.84,2.84,0,0,0-.7,3.8A2.8,2.8,0,0,0,199.4,93Zm1-26.8a3.32,3.32,0,0,0-.3-4.7,3,3,0,0,0-2.2-.8,3.58,3.58,0,0,0-2.5,1.1,3.32,3.32,0,0,0,.3,4.7,3.49,3.49,0,0,0,2.2.8A2.81,2.81,0,0,0,200.4,66.2Zm6.3,135.6a3.41,3.41,0,0,0,2.5-1.1,3.32,3.32,0,0,0-.3-4.7,3,3,0,0,0-2.2-.8,3.58,3.58,0,0,0-2.5,1.1,3.32,3.32,0,0,0,.3,4.7A4,4,0,0,0,206.7,201.8Zm-36-188.1a5,5,0,0,0,1.2.2,4.27,4.27,0,0,0,4.2-3.2,4.49,4.49,0,0,0-3-5.5,5,5,0,0,0-1.2-.2,4.27,4.27,0,0,0-4.2,3.2A4.49,4.49,0,0,0,170.7,13.7ZM122.4,262.9h-.5a4.34,4.34,0,0,0-4.3,3.9,4.39,4.39,0,0,0,3.4,4.7c.2,0,.3.1.5.1a4.38,4.38,0,0,0,4.8-3.9A4.44,4.44,0,0,0,122.4,262.9ZM118.3,61.6a2.76,2.76,0,0,0,2.1-3.3,2.69,2.69,0,0,0-2.7-2.1,1.27,1.27,0,0,0-.6.1,2.79,2.79,0,0,0,.6,5.5A.73.73,0,0,1,118.3,61.6Zm-6.1,189.2a2.2,2.2,0,0,0-.8-.1,3.94,3.94,0,0,0-.8,7.8c.3,0,.5.1.8.1a4,4,0,0,0,3.9-3.2A4,4,0,0,0,112.2,250.8ZM96.3,232.6a3.44,3.44,0,0,0-1.8-4.6h0a3.93,3.93,0,0,0-1.4-.3,3.59,3.59,0,0,0-3.2,2.1,3.44,3.44,0,0,0,1.8,4.6,3.19,3.19,0,0,0,1.4.3A3.59,3.59,0,0,0,96.3,232.6Zm3.2,25.1a5,5,0,0,0-1.2-.2,4.27,4.27,0,0,0-4.2,3.2,4.49,4.49,0,0,0,3,5.5,5,5,0,0,0,1.2.2,4.27,4.27,0,0,0,4.2-3.2A4.44,4.44,0,0,0,99.5,257.7Zm6-35a4.25,4.25,0,0,0-1.1-.2,3.21,3.21,0,0,0-3.1,2.3,3.24,3.24,0,0,0,2.1,4.2,4.25,4.25,0,0,0,1.1.2,3.32,3.32,0,0,0,1-6.5Zm-2.9,16.2a4.25,4.25,0,0,0-1.1-.2,3.74,3.74,0,0,0-1.2,7.3,4.25,4.25,0,0,0,1.1.2,3.84,3.84,0,0,0,3.6-2.6A3.78,3.78,0,0,0,102.6,238.9Zm10.7-4.8a2.2,2.2,0,0,0-.8-.1,3.42,3.42,0,0,0-3.4,2.8,3.54,3.54,0,0,0,2.7,4.2h0a2.2,2.2,0,0,0,.8.1,3.43,3.43,0,0,0,3.4-2.7A3.76,3.76,0,0,0,113.3,234.1Zm19.4,9.4h0a3.5,3.5,0,1,0,.2-7h-.1a3.46,3.46,0,0,0-3.5,3.4A3.54,3.54,0,0,0,132.7,243.5Zm-9.4-.3h-.4a3.69,3.69,0,0,0-3.7,3.3,3.78,3.78,0,0,0,3.3,4.1h.4a3.69,3.69,0,0,0,3.7-3.3A3.78,3.78,0,0,0,123.3,243.2Zm18.2-9.1a3.37,3.37,0,0,0,3.1-3.6,3.29,3.29,0,0,0-3.3-3.1h-.2a3.34,3.34,0,0,0-3.1,3.5,3.29,3.29,0,0,0,3.3,3.1h.2Zm-7.9,19.7h0a3.93,3.93,0,0,0-4,3.9,4,4,0,0,0,3.1,3.9c.3,0,.5.1.8.1a4,4,0,1,0,.1-7.9ZM129.1,43.9a3.34,3.34,0,0,0,3.1-3.5,3.29,3.29,0,0,0-3.3-3.1h-.2a3.34,3.34,0,0,0-3.1,3.5,3.29,3.29,0,0,0,3.3,3.1Zm.7,181.7a3,3,0,0,0,3-2.9,3,3,0,0,0-2.8-3.2h-.2a3,3,0,0,0-.2,6h.2ZM62.2,210.3a3.5,3.5,0,0,0,.1-5,3.58,3.58,0,0,0-2.5-1.1,3.25,3.25,0,0,0-2.4,1,3.5,3.5,0,0,0-.1,5,3.58,3.58,0,0,0,2.5,1.1A3.41,3.41,0,0,0,62.2,210.3ZM52.1,224.2a4,4,0,0,0,0-5.6,3.84,3.84,0,0,0-2.8-1.1,4.3,4.3,0,0,0-2.8,1.1,4,4,0,0,0,0,5.6,3.84,3.84,0,0,0,2.8,1.1A3.36,3.36,0,0,0,52.1,224.2Zm-2-15.6a3.7,3.7,0,0,0-2.3-6.6,4,4,0,0,0-2.3.8,3.8,3.8,0,0,0-.6,5.3h0a3.7,3.7,0,0,0,2.9,1.4A3.34,3.34,0,0,0,50.1,208.6Zm-11-23a3.75,3.75,0,0,0-3.3-2,3.29,3.29,0,0,0-1.7.4,3.7,3.7,0,0,0,1.7,7,3.29,3.29,0,0,0,1.7-.4,3.59,3.59,0,0,0,1.6-5ZM37.9,170a3.08,3.08,0,0,0-1.3.3,3.47,3.47,0,0,0-2,4.5h0a3.46,3.46,0,0,0,3.3,2.3,6.88,6.88,0,0,0,1.3-.2,3.59,3.59,0,0,0-1.3-6.9ZM40,145.2h.2a3.3,3.3,0,0,0-.2-6.6h-.2a3.34,3.34,0,0,0-3.1,3.5A3.29,3.29,0,0,0,40,145.2Zm43.1,85.3a4.07,4.07,0,0,0-1.8-.5,3.86,3.86,0,0,0-3.3,1.9,3.7,3.7,0,0,0,1.5,5.1,4.07,4.07,0,0,0,1.8.5,3.72,3.72,0,0,0,1.8-7Zm-6.7,17.9a4.55,4.55,0,0,0-2-.5,4.44,4.44,0,0,0-3.9,2.4,4.33,4.33,0,0,0,1.9,5.9,4.92,4.92,0,0,0,2,.5,4.39,4.39,0,0,0,2-8.3ZM55.6,234.8a4.12,4.12,0,0,0-2.7-1,4.36,4.36,0,0,0-2.7,7.8,4.73,4.73,0,0,0,2.7,1,4.42,4.42,0,0,0,3.4-1.6A4.63,4.63,0,0,0,55.6,234.8ZM71,238.7a4,4,0,0,0-1.1-5.5,3.6,3.6,0,0,0-2.2-.7,3.91,3.91,0,0,0-2.2,7.2,4.39,4.39,0,0,0,2.2.7A3.57,3.57,0,0,0,71,238.7Zm19.2,5.4a3.95,3.95,0,1,0-1.5,7.6,4.08,4.08,0,0,0,3.7-2.5A4,4,0,0,0,90.2,244.1Zm56.9,3.7a3.74,3.74,0,0,0-3.8-3.5H143a3.71,3.71,0,0,0-3.4,4,3.84,3.84,0,0,0,2.9,3.4,3.4,3.4,0,0,0,1,.1A3.73,3.73,0,0,0,147.1,247.8ZM65.6,218.5a3.78,3.78,0,0,0-2.4-.9,4.11,4.11,0,0,0-2.9,1.3,3.67,3.67,0,0,0,.5,5.2,3.58,3.58,0,0,0,2.4.9,4.11,4.11,0,0,0,2.9-1.3A3.88,3.88,0,0,0,65.6,218.5ZM47.1,195.2a3.29,3.29,0,0,0,1.9-.6,3.53,3.53,0,0,0,1.1-4.8h0a3.42,3.42,0,0,0-3-1.6,4.14,4.14,0,0,0-1.9.5,3.55,3.55,0,0,0-1.1,4.8A3.42,3.42,0,0,0,47.1,195.2Zm186.7-16.1a3.44,3.44,0,0,0-1.8-4.6,3.53,3.53,0,0,0-1.4-.3,3.59,3.59,0,0,0-3.2,2.1,3.44,3.44,0,0,0,1.8,4.6,3.53,3.53,0,0,0,1.4.3A3.59,3.59,0,0,0,233.8,179.1Zm-5.3-11.7a3.28,3.28,0,0,0-2.1-4.2,4.25,4.25,0,0,0-1.1-.2,3.43,3.43,0,0,0-3.2,2.3h0a3.28,3.28,0,0,0,2.1,4.2,3.59,3.59,0,0,0,1.1.2A3.73,3.73,0,0,0,228.5,167.4Zm8,23.9h0a3.78,3.78,0,0,0-1.5-5.1,4.07,4.07,0,0,0-1.8-.5,3.86,3.86,0,0,0-3.3,1.9,3.7,3.7,0,0,0,1.5,5.1,4.07,4.07,0,0,0,1.8.5A3.86,3.86,0,0,0,236.5,191.3Zm-15.6,26.2a4,4,0,0,0-2.8,1.2,4,4,0,0,0,0,5.6,3.84,3.84,0,0,0,2.8,1.1,4.3,4.3,0,0,0,2.8-1.1,4,4,0,0,0,0-5.6A4,4,0,0,0,220.9,217.5Zm15-10.5a4,4,0,0,0,2.2-7.3,3.6,3.6,0,0,0-2.2-.7,3.88,3.88,0,0,0-3.3,1.8,4,4,0,0,0,1.1,5.5A3.81,3.81,0,0,0,235.9,207Zm-16.3,25a4.19,4.19,0,0,0-2.8,1,4.42,4.42,0,0,0-.5,6.2,4.58,4.58,0,0,0,3.4,1.6,4.78,4.78,0,0,0,2.8-1,4.33,4.33,0,0,0,.5-6.2A4.4,4.4,0,0,0,219.6,232Zm31.2-48.4a3.87,3.87,0,0,0-2.2-5.1,4,4,0,0,0-1.5-.3,3.9,3.9,0,0,0-3.6,2.4,3.93,3.93,0,0,0,3.6,5.5A4.19,4.19,0,0,0,250.8,183.6Zm-10.4,31a4.19,4.19,0,0,0-2.8-1,4.58,4.58,0,0,0-3.4,1.6,4.43,4.43,0,0,0,.7,6.2,4.73,4.73,0,0,0,2.7,1,4.42,4.42,0,0,0,3.4-1.6A4.32,4.32,0,0,0,240.4,214.6Zm22.2-46.3a5,5,0,0,0-1.2-.2,4.27,4.27,0,0,0-4.2,3.2,4.49,4.49,0,0,0,3,5.5,5,5,0,0,0,1.2.2,4.35,4.35,0,0,0,4.2-3.2A4.52,4.52,0,0,0,262.6,168.3Zm5.9-22.7H268a4.43,4.43,0,0,0-4.4,3.9,4.36,4.36,0,0,0,8.6,1.4c0-.2.1-.3.1-.5A4.35,4.35,0,0,0,268.5,145.6Zm-14.7,46.9a4.55,4.55,0,0,0-2-.5,4.44,4.44,0,0,0-3.9,2.4,4.33,4.33,0,0,0,1.9,5.9,4.55,4.55,0,0,0,2,.5,4.39,4.39,0,0,0,2-8.3Zm-37.9-6.3a3.29,3.29,0,0,0,1.7.4,3.36,3.36,0,0,0,2.9-1.7,3.23,3.23,0,0,0-2.9-4.9,3.36,3.36,0,0,0-2.9,1.7A3.29,3.29,0,0,0,215.9,186.2Zm-34.4,57.6a4,4,0,0,0-1.5.3,4.06,4.06,0,0,0-2.2,5.2,3.93,3.93,0,0,0,3.7,2.4,4,4,0,0,0,1.5-.3,3.93,3.93,0,0,0,2.1-5.2A3.8,3.8,0,0,0,181.5,243.8Zm-7.3-7.6a3.55,3.55,0,0,0,2-4.6,3.46,3.46,0,0,0-3.3-2.2,5.85,5.85,0,0,0-1.3.2,3.46,3.46,0,0,0,1.3,6.7A2.88,2.88,0,0,0,174.2,236.2Zm-7.8,3.2a3.4,3.4,0,0,0-1,.1,3.65,3.65,0,0,0-2.5,4.6,3.84,3.84,0,0,0,3.6,2.7,3.4,3.4,0,0,0,1-.1,3.83,3.83,0,0,0,2.6-4.6A3.93,3.93,0,0,0,166.4,239.4Zm8.2,17.3a5.85,5.85,0,0,0-1.3.2,4.43,4.43,0,0,0-2.9,5.5,4.38,4.38,0,0,0,4.2,3.1,5.85,5.85,0,0,0,1.3-.2,4.43,4.43,0,0,0,2.9-5.5A4.38,4.38,0,0,0,174.6,256.7ZM149.4,262h-.5a4.36,4.36,0,0,0,.5,8.7h.5a4.44,4.44,0,0,0,3.9-4.8A4.51,4.51,0,0,0,149.4,262Zm5.9-23.1a3.54,3.54,0,0,0-3.5-2.9h-.6a3.52,3.52,0,0,0-.2,6.9,2.85,2.85,0,0,0,1.3,0A3.5,3.5,0,0,0,155.3,238.9ZM216,175.1a2.92,2.92,0,0,0-1.4-4,3.08,3.08,0,0,0-1.3-.3,3,3,0,0,0-2.7,1.7,3,3,0,0,0,1.4,4,3.08,3.08,0,0,0,1.3.3A3,3,0,0,0,216,175.1Zm-57.2,75.6a2.2,2.2,0,0,0-.8.1,3.94,3.94,0,0,0,.8,7.8,2.2,2.2,0,0,0,.8-.1,4,4,0,0,0,3.1-4.6A4,4,0,0,0,158.8,250.7Zm46.3-31.5a4,4,0,0,0-2.3.8,3.78,3.78,0,0,0-.6,5.2,3.7,3.7,0,0,0,2.9,1.4,4,4,0,0,0,2.3-.8,3.7,3.7,0,0,0-2.3-6.6Zm2.1-11.7a3.1,3.1,0,0,0-2.4,1h0a3.5,3.5,0,0,0-.1,5,3.58,3.58,0,0,0,2.5,1.1,3.1,3.1,0,0,0,2.4-1,3.5,3.5,0,0,0,.1-5A3.25,3.25,0,0,0,207.2,207.5Zm-20.4,23.7a3.29,3.29,0,0,0-1.7.4,3.79,3.79,0,0,0-1.6,5,3.64,3.64,0,0,0,3.3,2,3.29,3.29,0,0,0,1.7-.4,3.79,3.79,0,0,0,1.6-5A4,4,0,0,0,186.8,231.2Zm15.7,1.4a3.6,3.6,0,0,0-2.2.7,4,4,0,0,0,2.2,7.3,3.81,3.81,0,0,0,2.2-.7,4,4,0,0,0-2.2-7.3Zm-4.2,13.9a5.37,5.37,0,0,0-2.1.5,4.41,4.41,0,0,0-1.7,6,4.34,4.34,0,0,0,3.9,2.3,5.37,5.37,0,0,0,2.1-.5,4.41,4.41,0,0,0,1.7-6A4.54,4.54,0,0,0,198.3,246.5Zm-4.2-24.7a3.42,3.42,0,0,0-3-1.6,3.58,3.58,0,0,0-3,5.4,3.42,3.42,0,0,0,3,1.6,3.53,3.53,0,0,0,1.9-.6A3.36,3.36,0,0,0,194.1,221.8ZM88.6,62a3,3,0,0,0,2.6,1.5,2.6,2.6,0,0,0,1.5-.4,3.16,3.16,0,0,0,1.1-4.2,3,3,0,0,0-2.6-1.5,2.82,2.82,0,0,0-1.5.4h0A3.21,3.21,0,0,0,88.6,62Zm.1-34.5a4,4,0,0,0,1.5-.3,4,4,0,0,0-1.5-7.6,4,4,0,0,0-1.5.3,3.93,3.93,0,0,0-2.1,5.2A3.8,3.8,0,0,0,88.7,27.5Zm6.9-12.9a5.85,5.85,0,0,0,1.3-.2,4.43,4.43,0,0,0,2.9-5.5,4.38,4.38,0,0,0-4.2-3.1,5.85,5.85,0,0,0-1.3.2,4.43,4.43,0,0,0-2.9,5.5A4.26,4.26,0,0,0,95.6,14.6ZM83.4,40.1a3.29,3.29,0,0,0,1.7-.4,3.79,3.79,0,0,0,1.6-5,3.64,3.64,0,0,0-3.3-2,3.29,3.29,0,0,0-1.7.4h0a3.79,3.79,0,0,0-1.6,5A3.75,3.75,0,0,0,83.4,40.1Zm8.2,164.5a2.82,2.82,0,0,0,1.5.4,2.75,2.75,0,0,0,1.4-5.1,2.82,2.82,0,0,0-1.5-.4,2.56,2.56,0,0,0-2.3,1.3A3,3,0,0,0,91.6,204.6ZM87.4,73a2.63,2.63,0,0,0,2.2,1.2,3,3,0,0,0,1.6-.5,2.84,2.84,0,0,0,.7-3.8,2.68,2.68,0,0,0-2.3-1.2,3.32,3.32,0,0,0-1.6.5A2.69,2.69,0,0,0,87.4,73Zm8.2,143.6a3.08,3.08,0,0,0,1.3.3,3,3,0,0,0,2.7-1.7,3.14,3.14,0,0,0-1.4-4.1,3.08,3.08,0,0,0-1.3-.3,3,3,0,0,0-2.7,1.7A3.11,3.11,0,0,0,95.6,216.6ZM93,53.5a3.19,3.19,0,0,0,1.4-.3,3.32,3.32,0,0,0,1.5-4.4,3.4,3.4,0,0,0-3-1.9,2.82,2.82,0,0,0-1.5.4A3.15,3.15,0,0,0,90,51.7,3.26,3.26,0,0,0,93,53.5ZM76.1,49.6a3.42,3.42,0,0,0,3,1.6,4.14,4.14,0,0,0,1.9-.5,3.55,3.55,0,0,0,1.1-4.8,3.42,3.42,0,0,0-3-1.6,3.53,3.53,0,0,0-1.9.6h0A3.21,3.21,0,0,0,76.1,49.6ZM62.9,63.8a3.1,3.1,0,0,0,2.4-1,3.5,3.5,0,0,0,.1-5,3.63,3.63,0,0,0-2.6-1.1,3.25,3.25,0,0,0-2.4,1,3.5,3.5,0,0,0-.1,5A3.56,3.56,0,0,0,62.9,63.8Zm8.9-39a5,5,0,0,0,2.1-.5,4.38,4.38,0,0,0-2.2-8.2,5.37,5.37,0,0,0-2.1.5,4.29,4.29,0,0,0-1.7,5.9A4.57,4.57,0,0,0,71.8,24.8ZM54.2,85.2a3.17,3.17,0,0,0-1.6-.4,3.36,3.36,0,0,0-2.9,1.7,3.23,3.23,0,0,0,2.9,4.9,3.36,3.36,0,0,0,2.9-1.7A3.3,3.3,0,0,0,54.2,85.2Zm-.1,11a3,3,0,0,0,1.4,4,3.08,3.08,0,0,0,1.3.3,3,3,0,0,0,2.7-1.7,2.92,2.92,0,0,0-1.4-4,3.08,3.08,0,0,0-1.3-.3A3.17,3.17,0,0,0,54.1,96.2ZM67.7,38.8a3.81,3.81,0,0,0,2.2-.7A4,4,0,0,0,71,32.6a4.13,4.13,0,0,0-3.3-1.8,3.6,3.6,0,0,0-2.2.7A4,4,0,0,0,64.4,37,4.13,4.13,0,0,0,67.7,38.8ZM65,52.1a3.78,3.78,0,0,0,2.3-.8A3.7,3.7,0,0,0,65,44.7a4,4,0,0,0-2.3.8A3.67,3.67,0,0,0,65,52.1ZM66,75a3.32,3.32,0,0,0-.3-4.7,3.49,3.49,0,0,0-2.2-.8A3.41,3.41,0,0,0,61,70.6a3.32,3.32,0,0,0,.3,4.7,3,3,0,0,0,2.2.8A2.91,2.91,0,0,0,66,75ZM50.6,39.4a4.78,4.78,0,0,0,2.8-1,4.43,4.43,0,0,0,.6-6.2,4.58,4.58,0,0,0-3.4-1.6,4.19,4.19,0,0,0-2.8,1,4.33,4.33,0,0,0-.5,6.2A4.22,4.22,0,0,0,50.6,39.4Zm26.8,28a2.71,2.71,0,0,0-2,.8,3.12,3.12,0,0,0-.3,4.3,2.9,2.9,0,0,0,2.3,1,3,3,0,0,0,2-.8,3,3,0,0,0,.3-4.3A3.26,3.26,0,0,0,77.4,67.4ZM69.2,178.9a2.84,2.84,0,0,0-.7,3.8,2.63,2.63,0,0,0,2.2,1.2,3.32,3.32,0,0,0,1.6-.5,2.84,2.84,0,0,0,.7-3.8,2.63,2.63,0,0,0-2.2-1.2A2,2,0,0,0,69.2,178.9Zm3.1,31.7a3.41,3.41,0,0,0,2.5-1.1,3.32,3.32,0,0,0-.3-4.7,3.49,3.49,0,0,0-2.2-.8,3.4,3.4,0,0,0-2.2,5.9A3.41,3.41,0,0,0,72.3,210.6ZM68.2,84.8a3.06,3.06,0,0,0-.6-4.3,3,3,0,0,0-4.2.6,3.14,3.14,0,0,0,.6,4.3,3.23,3.23,0,0,0,1.8.6A2.85,2.85,0,0,0,68.2,84.8ZM67.1,96a2.5,2.5,0,0,0,1.4.4,2.56,2.56,0,0,0,2.3-1.3,2.76,2.76,0,0,0-.9-3.8,2.82,2.82,0,0,0-1.5-.4,2.77,2.77,0,0,0-2.3,1.3A2.88,2.88,0,0,0,67.1,96Zm2.8,100.4a2.71,2.71,0,0,0,2-.8,3,3,0,0,0,.3-4.3,2.9,2.9,0,0,0-2.3-1,3.18,3.18,0,0,0-2,.8,3.12,3.12,0,0,0-.3,4.3A3.45,3.45,0,0,0,69.9,196.4Zm10.7,11a3.23,3.23,0,0,0,1.8.6,3,3,0,0,0,2.4-1.2,3.05,3.05,0,0,0-.6-4.3,3,3,0,0,0-4.2.6A3.06,3.06,0,0,0,80.6,207.4Zm5.2,13.7a3.29,3.29,0,0,0,1.7.4,3.36,3.36,0,0,0,2.9-1.7,3.27,3.27,0,0,0-1.2-4.5,3.26,3.26,0,0,0-4.6,1.2A3.32,3.32,0,0,0,85.8,221.1Zm-4.9-25.6a3,3,0,0,0,2-.8,2.8,2.8,0,0,0-2-4.7,2.67,2.67,0,0,0-2,.9,2.81,2.81,0,0,0,.1,3.9A2.64,2.64,0,0,0,80.9,195.5ZM76,79.6a2.72,2.72,0,0,0,.1,3.9,2.79,2.79,0,0,0,3.9-.2,2.81,2.81,0,0,0-.1-3.9,2.79,2.79,0,0,0-3.9.2ZM73.2,224a3.61,3.61,0,0,0,2,.6,3.5,3.5,0,0,0,2-6.4,3.61,3.61,0,0,0-2-.6,3.51,3.51,0,0,0-2.9,1.5A3.72,3.72,0,0,0,73.2,224ZM77.1,56.7a3.06,3.06,0,0,0-2,.7,3.43,3.43,0,0,0-.6,4.7,3.47,3.47,0,0,0,2.6,1.3,3.06,3.06,0,0,0,2-.7,3.43,3.43,0,0,0,.6-4.7A3.32,3.32,0,0,0,77.1,56.7ZM49.3,53.9a4.3,4.3,0,0,0,2.8-1.1,4,4,0,0,0,0-5.6,3.87,3.87,0,0,0-5.6,0,4,4,0,0,0,0,5.6A4.3,4.3,0,0,0,49.3,53.9ZM29.8,56.8a4.12,4.12,0,0,0,2.7,1A4.36,4.36,0,0,0,35.2,50a4.78,4.78,0,0,0-2.8-1A4.42,4.42,0,0,0,29,50.6,4.54,4.54,0,0,0,29.8,56.8Zm-13.4,22a4.55,4.55,0,0,0,2,.5,4.25,4.25,0,0,0,3.9-2.4A4.36,4.36,0,0,0,20.4,71a4.55,4.55,0,0,0-2-.5,4.39,4.39,0,0,0-2,8.3ZM34.2,64.3A3.91,3.91,0,0,0,32,71.5a4.39,4.39,0,0,0,2.2.7,3.88,3.88,0,0,0,3.3-1.8,3.88,3.88,0,0,0-3.3-6.1ZM7.6,103.1a5,5,0,0,0,1.2.2,4.27,4.27,0,0,0,4.2-3.2,4.49,4.49,0,0,0-3-5.5,5,5,0,0,0-1.2-.2,4.38,4.38,0,0,0-4.2,3.2A4.52,4.52,0,0,0,7.6,103.1Zm29.1,10.7a3.54,3.54,0,0,0-2.7-4.2,2.2,2.2,0,0,0-.8-.1,3.49,3.49,0,0,0-.7,6.9,2.2,2.2,0,0,0,.8.1A3.32,3.32,0,0,0,36.7,113.8ZM33.7,80a3.75,3.75,0,0,0,1.4,5.1,4.07,4.07,0,0,0,1.8.5,3.86,3.86,0,0,0,3.3-1.9,3.78,3.78,0,0,0-1.5-5.1,4.07,4.07,0,0,0-1.8-.5A3.82,3.82,0,0,0,33.7,80ZM19.8,194.5a5.37,5.37,0,0,0-2.1.5,4.41,4.41,0,0,0-1.7,6,4.54,4.54,0,0,0,3.9,2.3,5.37,5.37,0,0,0,2.1-.5,4.41,4.41,0,0,0,1.7-6A4.34,4.34,0,0,0,19.8,194.5ZM23,178.1a4,4,0,0,0-1.5.3,4,4,0,0,0,1.6,7.6,4,4,0,0,0,1.5-.3,3.9,3.9,0,0,0,2.1-5.2A4.33,4.33,0,0,0,23,178.1Zm11.4,37.7a4.19,4.19,0,0,0-2.8,1,4.42,4.42,0,0,0-.5,6.2,4.58,4.58,0,0,0,3.4,1.6,4.19,4.19,0,0,0,2.8-1,4.43,4.43,0,0,0,.6-6.2A4.75,4.75,0,0,0,34.4,215.8ZM31.2,166a3.84,3.84,0,0,0-3.6-2.7,2.34,2.34,0,0,0-1.1.2,3.79,3.79,0,0,0-2.6,4.6,3.84,3.84,0,0,0,3.6,2.7,3.55,3.55,0,0,0,1-.2A3.66,3.66,0,0,0,31.2,166ZM8.8,149.5a4.42,4.42,0,0,0-4.4-3.9H3.9A4.44,4.44,0,0,0,0,150.4a4.36,4.36,0,0,0,4.4,3.9h.5A4.38,4.38,0,0,0,8.8,149.5Zm.9,21.3a5.85,5.85,0,0,0-1.3.2,4.43,4.43,0,0,0-2.9,5.5,4.38,4.38,0,0,0,4.2,3.1,5.85,5.85,0,0,0,1.3-.2,4.43,4.43,0,0,0,2.9-5.5A4.38,4.38,0,0,0,9.7,170.8Zm9.7-83.1a3.9,3.9,0,0,0,2.1,5.1,4,4,0,0,0,1.5.3,4.14,4.14,0,0,0,3.7-2.4,3.93,3.93,0,0,0-3.6-5.5A4.19,4.19,0,0,0,19.4,87.7Zm17,4.5a3.44,3.44,0,0,0,1.8,4.6,3.19,3.19,0,0,0,1.4.3A3.49,3.49,0,0,0,42.8,95,3.41,3.41,0,0,0,41,90.4a3.53,3.53,0,0,0-1.4-.3A3.59,3.59,0,0,0,36.4,92.2Zm-5.7,44.7h0a3.48,3.48,0,0,0,3.6-3.4,3.61,3.61,0,0,0-3.4-3.6h-.1a3.46,3.46,0,0,0-3.5,3.4A3.61,3.61,0,0,0,30.7,136.9Zm.2,68.4a3.88,3.88,0,0,0,3.3,1.8,3.81,3.81,0,0,0,2.2-.7,4,4,0,0,0,1.1-5.5,4.13,4.13,0,0,0-3.3-1.8,3.6,3.6,0,0,0-2.2.7A4,4,0,0,0,30.9,205.3ZM41,119.9h-.4a3.34,3.34,0,0,0-3.3,2.9,3.29,3.29,0,0,0,2.9,3.7h.4a3.31,3.31,0,0,0,.4-6.6Zm.7-15.9a3.36,3.36,0,0,0,2.1,4.2,4.25,4.25,0,0,0,1.1.2,3.21,3.21,0,0,0,3.1-2.3,3.28,3.28,0,0,0-2.1-4.2,4.25,4.25,0,0,0-1.1-.2A3.4,3.4,0,0,0,41.7,104ZM16.1,163.3a2.2,2.2,0,0,0,.8-.1,4,4,0,0,0,3.1-4.6h0a3.93,3.93,0,0,0-3.8-3.2,2.2,2.2,0,0,0-.8.1,3.94,3.94,0,0,0,.7,7.8Zm12.2-57.6a3.84,3.84,0,0,0,3.6-2.6,3.78,3.78,0,0,0-2.4-4.7,5.16,5.16,0,0,0-1.1-.2,3.54,3.54,0,0,0-3.5,2.6,3.82,3.82,0,0,0,2.4,4.7A1.8,1.8,0,0,0,28.3,105.7Zm-4.5,14a3.71,3.71,0,0,0-.4,7.4h.4a3.69,3.69,0,0,0,3.7-3.3h0a3.71,3.71,0,0,0-3.3-4.1Zm-7.7-3.8a3.94,3.94,0,0,0,.8-7.8c-.3,0-.5-.1-.8-.1a4,4,0,0,0-3.9,3.2,4,4,0,0,0,3.1,4.6A2.49,2.49,0,0,0,16.1,115.9ZM65,167.3a2.62,2.62,0,0,0-2.7-1.7,2.92,2.92,0,0,0-.9.2,2.56,2.56,0,0,0-1.6,1.9,3.34,3.34,0,0,0,.1,1.7,2.76,2.76,0,0,0,3.6,1.5A2.94,2.94,0,0,0,65,167.3Zm-9.9-4a3.09,3.09,0,0,0-3-2.2,1.7,1.7,0,0,0-.7.1,3.1,3.1,0,0,0-2.1,2.2,4.3,4.3,0,0,0,0,1.6,3,3,0,0,0,3.8,2A2.92,2.92,0,0,0,55.1,163.3ZM4.7,126.7A4.38,4.38,0,0,0,5.8,118H5a4.48,4.48,0,0,0-4.1,3.3c0,.2-.1.3-.1.5A4.46,4.46,0,0,0,4.7,126.7Zm41.1,32.7h0a3.25,3.25,0,0,0-3.4-2.6,1.27,1.27,0,0,0-.6.1,3.35,3.35,0,0,0-2.5,2.5,3.79,3.79,0,0,0,0,1.5h0a3.34,3.34,0,1,0,6.5-1.5ZM10.6,133.3a2.2,2.2,0,0,0-.1.8,4,4,0,1,0,4.1-3.8h-.3A3.85,3.85,0,0,0,10.6,133.3ZM24,148.1a3.72,3.72,0,0,0,3.6-3.9,3.85,3.85,0,0,0-3.9-3.6h0a3.87,3.87,0,0,0-3.5,2.8,3.4,3.4,0,0,0-.1,1A3.73,3.73,0,0,0,24,148.1Zm11.7,4.6a3.58,3.58,0,0,0-3.6-3.1h-.3a3.68,3.68,0,0,0-3,2.6,5.7,5.7,0,0,0-.1,1.3,3.47,3.47,0,0,0,4,3A3.4,3.4,0,0,0,35.7,152.7Z" transform="translate(0.02 0)"/></svg>