<svg id="_1_Pts" data-name="1 Pts" xmlns="http://www.w3.org/2000/svg" xmlns:xlink="http://www.w3.org/1999/xlink" viewBox="0 0 225 225"><defs><style>.cls-1,.cls-3{stroke-miterlimit:10;}.cls-1{fill:url(#linear-gradient);stroke:url(#linear-gradient-2);}.cls-2{fill:#31d3d9;}.cls-3{fill:none;stroke:#31d3d9;stroke-width:5px;}.cls-4{fill:#fff;}</style><linearGradient id="linear-gradient" x1="112.5" y1="222.5" x2="112.5" y2="114.06" gradientUnits="userSpaceOnUse"><stop offset="0" stop-opacity="0.4"/><stop offset="1" stop-opacity="0.8"/></linearGradient><linearGradient id="linear-gradient-2" x1="2" y1="112.5" x2="223" y2="112.5" gradientUnits="userSpaceOnUse"><stop offset="0" stop-color="#fff"/><stop offset="1"/></linearGradient></defs><title>1point</title><g id="Layer_5" data-name="Layer 5"><circle class="cls-1" cx="112.5" cy="112.5" r="110"/></g><g id="Layer_4" data-name="Layer 4"><rect class="cls-2" x="34.75" y="111.5" width="155.5" height="2"/></g><g id="Layer_3" data-name="Layer 3"><circle class="cls-3" cx="112.5" cy="112.5" r="110"/></g><g id="Layer_2" data-name="Layer 2"><path class="cls-2" d="M129.22,60.74a2.84,2.84,0,0,1-2.39-1.11h-.1q.1,1,.1,1.24V64.2h-1.72V52.49h1.39q.06.23.24,1.08h.09a2.7,2.7,0,0,1,2.42-1.23,2.81,2.81,0,0,1,2.36,1.1,5,5,0,0,1,.85,3.08,5,5,0,0,1-.86,3.1A2.84,2.84,0,0,1,129.22,60.74Zm-.42-7a1.79,1.79,0,0,0-1.5.6,3.12,3.12,0,0,0-.47,1.92v.26a3.79,3.79,0,0,0,.47,2.14,1.74,1.74,0,0,0,1.53.66,1.55,1.55,0,0,0,1.38-.73,3.78,3.78,0,0,0,.48-2.09,3.65,3.65,0,0,0-.48-2.06A1.6,1.6,0,0,0,128.8,53.75Z"/><path class="cls-2" d="M137.47,59.35a4.16,4.16,0,0,0,1.26-.2v1.3a3.5,3.5,0,0,1-.74.21,5.11,5.11,0,0,1-.93.08q-2.45,0-2.45-2.58V53.8h-1.11V53l1.19-.63.59-1.71h1.06v1.8h2.31v1.3h-2.31v4.34a1.21,1.21,0,0,0,.31.92A1.13,1.13,0,0,0,137.47,59.35Z"/><path class="cls-4" d="M37.37,145.45v-1.07h2.76v1.07Z"/><path class="cls-4" d="M50.16,148a2.08,2.08,0,0,1-1.75-.81h-.08q.08.75.08.91v2.43H47.14v-8.58h1q0,.17.18.79h.06a2,2,0,0,1,1.77-.9,2.06,2.06,0,0,1,1.73.81,4.42,4.42,0,0,1,0,4.53A2.08,2.08,0,0,1,50.16,148Zm-.31-5.12a1.31,1.31,0,0,0-1.1.44,2.29,2.29,0,0,0-.35,1.41v.19a2.78,2.78,0,0,0,.34,1.57,1.28,1.28,0,0,0,1.12.49,1.14,1.14,0,0,0,1-.54,2.77,2.77,0,0,0,.35-1.53,2.68,2.68,0,0,0-.35-1.51A1.17,1.17,0,0,0,49.85,142.84Z"/><path class="cls-4" d="M57,141.81a3,3,0,0,1,.63.05L57.51,143A2.39,2.39,0,0,0,57,143a1.62,1.62,0,0,0-1.23.49,1.79,1.79,0,0,0-.47,1.28v3.1H54v-5.94h1l.17,1h.06a2.34,2.34,0,0,1,.77-.84A1.83,1.83,0,0,1,57,141.81Z"/><path class="cls-4" d="M61.33,148a2.87,2.87,0,0,1-2.17-.81,3.07,3.07,0,0,1-.78-2.23,3.36,3.36,0,0,1,.73-2.29,2.5,2.5,0,0,1,2-.83,2.45,2.45,0,0,1,1.86.71,2.73,2.73,0,0,1,.68,2v.68h-4a2,2,0,0,0,.47,1.33,1.63,1.63,0,0,0,1.24.46,4.57,4.57,0,0,0,1-.1,5.13,5.13,0,0,0,1-.33v1a3.88,3.88,0,0,1-.93.31A5.67,5.67,0,0,1,61.33,148Zm-.23-5.2a1.27,1.27,0,0,0-1,.38,1.82,1.82,0,0,0-.43,1.11h2.7a1.64,1.64,0,0,0-.35-1.11A1.21,1.21,0,0,0,61.1,142.77Z"/><path class="cls-4" d="M64.56,145.45v-1.07h2.76v1.07Z"/><path class="cls-4" d="M71.65,141.81a2.06,2.06,0,0,1,1.73.81,4.43,4.43,0,0,1,0,4.54,2.29,2.29,0,0,1-3.5,0h-.09l-.23.7h-.95V139.5h1.26v2q0,.22,0,.66c0,.29,0,.47,0,.55h.05A2,2,0,0,1,71.65,141.81Zm-.33,1a1.28,1.28,0,0,0-1.1.45,2.61,2.61,0,0,0-.35,1.5v.09a2.78,2.78,0,0,0,.34,1.57,1.28,1.28,0,0,0,1.12.49,1.14,1.14,0,0,0,1-.53,2.82,2.82,0,0,0,.35-1.54Q72.71,142.84,71.32,142.84Z"/><path class="cls-4" d="M80.74,144.88a3.24,3.24,0,0,1-.75,2.27,2.68,2.68,0,0,1-2.08.82,2.84,2.84,0,0,1-1.47-.38,2.48,2.48,0,0,1-1-1.08,3.68,3.68,0,0,1-.34-1.63,3.22,3.22,0,0,1,.74-2.26,2.69,2.69,0,0,1,2.09-.81,2.62,2.62,0,0,1,2,.83A3.2,3.2,0,0,1,80.74,144.88Zm-4.32,0q0,2.06,1.52,2.06t1.5-2.06q0-2-1.51-2a1.29,1.29,0,0,0-1.15.53A2.68,2.68,0,0,0,76.41,144.88Z"/><path class="cls-4" d="M87.46,144.88a3.24,3.24,0,0,1-.75,2.27,2.68,2.68,0,0,1-2.08.82,2.84,2.84,0,0,1-1.47-.38,2.48,2.48,0,0,1-1-1.08,3.68,3.68,0,0,1-.34-1.63,3.22,3.22,0,0,1,.74-2.26,2.69,2.69,0,0,1,2.09-.81,2.62,2.62,0,0,1,2,.83A3.2,3.2,0,0,1,87.46,144.88Zm-4.32,0q0,2.06,1.52,2.06t1.5-2.06q0-2-1.51-2a1.29,1.29,0,0,0-1.15.53A2.68,2.68,0,0,0,83.13,144.88Z"/><path class="cls-4" d="M90.13,144.72l.71-.89,1.79-1.91h1.46l-2.39,2.55,2.54,3.39H92.76l-1.91-2.61-.69.57v2H88.91V139.5h1.25v4.08l-.06,1.14Z"/><path class="cls-4" d="M95.12,140.35a.7.7,0,0,1,.19-.52.72.72,0,0,1,.53-.18.64.64,0,0,1,.7.7.68.68,0,0,1-.19.51.7.7,0,0,1-.52.19.71.71,0,0,1-.53-.19A.68.68,0,0,1,95.12,140.35Zm1.34,7.51H95.2v-5.94h1.26Z"/><path class="cls-4" d="M103.49,147.86h-1.27v-3.65a1.59,1.59,0,0,0-.28-1,1.07,1.07,0,0,0-.88-.34,1.4,1.4,0,0,0-1.17.47,2.61,2.61,0,0,0-.37,1.58v3H98.26v-5.94h1l.18.78h.06a1.76,1.76,0,0,1,.76-.65,2.55,2.55,0,0,1,1.1-.23,1.91,1.91,0,0,1,2.14,2.17Z"/><path class="cls-4" d="M110.26,141.92v.69l-1,.19a1.63,1.63,0,0,1,.23.46,1.82,1.82,0,0,1,.09.58,1.78,1.78,0,0,1-.63,1.45,2.65,2.65,0,0,1-1.75.53,2.77,2.77,0,0,1-.52,0,.71.71,0,0,0-.41.59.33.33,0,0,0,.19.31,1.64,1.64,0,0,0,.7.1h1a2.31,2.31,0,0,1,1.49.42,1.47,1.47,0,0,1,.51,1.21,1.76,1.76,0,0,1-.83,1.56,4.38,4.38,0,0,1-2.41.55,3.32,3.32,0,0,1-1.85-.43,1.39,1.39,0,0,1-.64-1.22,1.3,1.3,0,0,1,.35-.92,1.86,1.86,0,0,1,1-.52.94.94,0,0,1-.42-.35.87.87,0,0,1-.16-.5.86.86,0,0,1,.19-.56,2.17,2.17,0,0,1,.56-.46,1.66,1.66,0,0,1-.75-.65,1.9,1.9,0,0,1-.29-1,1.88,1.88,0,0,1,.61-1.5,2.56,2.56,0,0,1,1.74-.53,4.19,4.19,0,0,1,.53,0l.42.07Zm-4.67,6.86a.7.7,0,0,0,.37.63,2,2,0,0,0,1,.22,3.12,3.12,0,0,0,1.54-.3.88.88,0,0,0,.5-.78.59.59,0,0,0-.28-.55,2.22,2.22,0,0,0-1-.16h-1a1.34,1.34,0,0,0-.86.25A.84.84,0,0,0,105.6,148.78Zm.54-4.94a1.2,1.2,0,0,0,.29.86,1.09,1.09,0,0,0,.82.3q1.1,0,1.1-1.17a1.33,1.33,0,0,0-.27-.89,1,1,0,0,0-.82-.31,1.06,1.06,0,0,0-.83.31A1.31,1.31,0,0,0,106.14,143.84Z"/><path class="cls-4" d="M117.94,147.86l-.25-.83h0a2.43,2.43,0,0,1-.86.74,2.73,2.73,0,0,1-1.12.2,1.89,1.89,0,0,1-1.37-.47,1.77,1.77,0,0,1-.49-1.34,1.57,1.57,0,0,1,.68-1.38,3.92,3.92,0,0,1,2.08-.51l1,0v-.32a1.2,1.2,0,0,0-.27-.85,1.08,1.08,0,0,0-.82-.28,2.88,2.88,0,0,0-.88.13,6.59,6.59,0,0,0-.8.32l-.41-.9a4.4,4.4,0,0,1,1.06-.38,4.87,4.87,0,0,1,1.08-.13,2.57,2.57,0,0,1,1.71.49,1.93,1.93,0,0,1,.58,1.55v4Zm-1.88-.86a1.56,1.56,0,0,0,1.1-.38,1.39,1.39,0,0,0,.42-1.08V145l-.76,0a2.62,2.62,0,0,0-1.3.3.91.91,0,0,0-.41.81.79.79,0,0,0,.24.61A1,1,0,0,0,116.06,147Z"/><path class="cls-4" d="M123.62,148a2.08,2.08,0,0,1-1.75-.81h-.08q.08.75.08.91v2.43H120.6v-8.58h1c0,.11.09.38.18.79h.06a2,2,0,0,1,1.77-.9,2.06,2.06,0,0,1,1.73.81,4.41,4.41,0,0,1,0,4.53A2.08,2.08,0,0,1,123.62,148Zm-.31-5.12a1.31,1.31,0,0,0-1.1.44,2.29,2.29,0,0,0-.35,1.41v.19a2.77,2.77,0,0,0,.34,1.57,1.28,1.28,0,0,0,1.12.49,1.14,1.14,0,0,0,1-.54,2.77,2.77,0,0,0,.35-1.53,2.68,2.68,0,0,0-.35-1.51A1.17,1.17,0,0,0,123.31,142.84Z"/><path class="cls-4" d="M130.47,148a2.08,2.08,0,0,1-1.75-.81h-.08q.08.75.08.91v2.43h-1.26v-8.58h1c0,.11.09.38.18.79h.06a2,2,0,0,1,1.77-.9,2.06,2.06,0,0,1,1.73.81,4.41,4.41,0,0,1,0,4.53A2.08,2.08,0,0,1,130.47,148Zm-.31-5.12a1.31,1.31,0,0,0-1.1.44,2.29,2.29,0,0,0-.35,1.41v.19a2.77,2.77,0,0,0,.34,1.57,1.28,1.28,0,0,0,1.12.49,1.14,1.14,0,0,0,1-.54,2.77,2.77,0,0,0,.35-1.53,2.68,2.68,0,0,0-.35-1.51A1.17,1.17,0,0,0,130.16,142.84Z"/><path class="cls-4" d="M139.58,144.88a3.24,3.24,0,0,1-.75,2.27,2.68,2.68,0,0,1-2.08.82,2.85,2.85,0,0,1-1.47-.38,2.48,2.48,0,0,1-1-1.08,3.69,3.69,0,0,1-.34-1.63,3.22,3.22,0,0,1,.74-2.26,2.69,2.69,0,0,1,2.09-.81,2.62,2.62,0,0,1,2,.83A3.2,3.2,0,0,1,139.58,144.88Zm-4.32,0q0,2.06,1.52,2.06t1.5-2.06q0-2-1.52-2a1.29,1.29,0,0,0-1.15.53A2.68,2.68,0,0,0,135.25,144.88Z"/><path class="cls-4" d="M141,140.35a.7.7,0,0,1,.19-.52.72.72,0,0,1,.53-.18.7.7,0,0,1,.52.18.69.69,0,0,1,.19.52.68.68,0,0,1-.19.51.7.7,0,0,1-.52.19.71.71,0,0,1-.53-.19A.69.69,0,0,1,141,140.35Zm1.34,7.51H141v-5.94h1.26Z"/><path class="cls-4" d="M149.32,147.86h-1.27v-3.65a1.59,1.59,0,0,0-.28-1,1.06,1.06,0,0,0-.88-.34,1.39,1.39,0,0,0-1.17.47,2.61,2.61,0,0,0-.37,1.58v3H144.1v-5.94h1l.18.78h.06a1.75,1.75,0,0,1,.76-.65,2.56,2.56,0,0,1,1.1-.23,1.91,1.91,0,0,1,2.14,2.17Z"/><path class="cls-4" d="M153.29,146.95a3,3,0,0,0,.92-.15v1a2.55,2.55,0,0,1-.54.15,3.73,3.73,0,0,1-.68.06q-1.79,0-1.79-1.89v-3.2h-.81v-.56l.87-.46.43-1.26h.78v1.32h1.69v1h-1.69v3.18a.89.89,0,0,0,.23.67A.83.83,0,0,0,153.29,146.95Z"/><path class="cls-4" d="M160.41,147.86h-1.27V144.2a1.66,1.66,0,0,0-.26-1,1,1,0,0,0-.81-.34,1.23,1.23,0,0,0-1.07.48,2.79,2.79,0,0,0-.34,1.58v3H155.4v-5.94h1l.18.78h.06a1.64,1.64,0,0,1,.72-.65,2.31,2.31,0,0,1,1-.23,1.81,1.81,0,0,1,1.82.93h.09a1.81,1.81,0,0,1,.74-.69,2.35,2.35,0,0,1,1.1-.25,2,2,0,0,1,1.55.54,2.38,2.38,0,0,1,.49,1.64v3.87h-1.26V144.2a1.65,1.65,0,0,0-.26-1,1,1,0,0,0-.81-.34,1.26,1.26,0,0,0-1.08.46,2.37,2.37,0,0,0-.34,1.41Z"/><path class="cls-4" d="M168.51,148a2.87,2.87,0,0,1-2.17-.81,3.07,3.07,0,0,1-.78-2.23,3.36,3.36,0,0,1,.73-2.29,2.5,2.5,0,0,1,2-.83,2.45,2.45,0,0,1,1.86.71,2.73,2.73,0,0,1,.68,2v.68h-4a2,2,0,0,0,.47,1.33,1.63,1.63,0,0,0,1.24.46,4.57,4.57,0,0,0,1-.1,5.13,5.13,0,0,0,1-.33v1a3.86,3.86,0,0,1-.93.31A5.68,5.68,0,0,1,168.51,148Zm-.23-5.2a1.27,1.27,0,0,0-1,.38,1.82,1.82,0,0,0-.43,1.11h2.7a1.64,1.64,0,0,0-.35-1.11A1.21,1.21,0,0,0,168.28,142.77Z"/><path class="cls-4" d="M177.48,147.86h-1.27v-3.65a1.59,1.59,0,0,0-.28-1,1.07,1.07,0,0,0-.88-.34,1.4,1.4,0,0,0-1.17.47,2.61,2.61,0,0,0-.37,1.58v3h-1.26v-5.94h1l.18.78h.06a1.75,1.75,0,0,1,.76-.65,2.56,2.56,0,0,1,1.1-.23,1.91,1.91,0,0,1,2.14,2.17Z"/><path class="cls-4" d="M181.45,146.95a3,3,0,0,0,.92-.15v1a2.55,2.55,0,0,1-.54.15,3.73,3.73,0,0,1-.68.06q-1.79,0-1.79-1.89v-3.2h-.81v-.56l.87-.46.43-1.26h.78v1.32h1.69v1h-1.69v3.18a.89.89,0,0,0,.23.67A.83.83,0,0,0,181.45,146.95Z"/><path class="cls-4" d="M187.55,146.17a1.55,1.55,0,0,1-.63,1.33,3,3,0,0,1-1.82.46,4.3,4.3,0,0,1-1.91-.36v-1.09a4.68,4.68,0,0,0,1.95.48q1.17,0,1.17-.7a.56.56,0,0,0-.13-.38,1.55,1.55,0,0,0-.42-.31,7.31,7.31,0,0,0-.82-.37,3.82,3.82,0,0,1-1.39-.79,1.48,1.48,0,0,1-.36-1,1.35,1.35,0,0,1,.62-1.18,2.92,2.92,0,0,1,1.67-.42,4.74,4.74,0,0,1,2,.42l-.41,1a4.42,4.42,0,0,0-1.62-.4q-1,0-1,.57a.57.57,0,0,0,.26.47,5.77,5.77,0,0,0,1.14.53,5.23,5.23,0,0,1,1.07.52,1.56,1.56,0,0,1,.49.54A1.58,1.58,0,0,1,187.55,146.17Z"/><path class="cls-4" d="M70.31,158.65v-1.07h2.76v1.07Z"/><path class="cls-4" d="M80.25,155a2.06,2.06,0,0,1,1.73.81,4.43,4.43,0,0,1,0,4.54,2.29,2.29,0,0,1-3.5,0H78.4l-.23.7h-.95V152.7h1.26v2q0,.22,0,.66c0,.29,0,.47,0,.55h.05A2,2,0,0,1,80.25,155Zm-.33,1a1.28,1.28,0,0,0-1.1.45,2.61,2.61,0,0,0-.35,1.5v.09a2.78,2.78,0,0,0,.34,1.57,1.28,1.28,0,0,0,1.12.49,1.14,1.14,0,0,0,1-.53,2.82,2.82,0,0,0,.35-1.54Q81.31,156,79.93,156Z"/><path class="cls-4" d="M89.34,158.08a3.24,3.24,0,0,1-.75,2.27,2.68,2.68,0,0,1-2.08.82,2.84,2.84,0,0,1-1.47-.38,2.48,2.48,0,0,1-1-1.08,3.68,3.68,0,0,1-.34-1.63,3.22,3.22,0,0,1,.74-2.26,2.69,2.69,0,0,1,2.09-.81,2.62,2.62,0,0,1,2,.83A3.2,3.2,0,0,1,89.34,158.08Zm-4.32,0q0,2.06,1.52,2.06t1.5-2.06q0-2-1.51-2a1.29,1.29,0,0,0-1.15.53A2.68,2.68,0,0,0,85,158.08Z"/><path class="cls-4" d="M96.06,158.08a3.24,3.24,0,0,1-.75,2.27,2.68,2.68,0,0,1-2.08.82,2.84,2.84,0,0,1-1.47-.38,2.48,2.48,0,0,1-1-1.08,3.68,3.68,0,0,1-.34-1.63,3.22,3.22,0,0,1,.74-2.26,2.69,2.69,0,0,1,2.09-.81,2.62,2.62,0,0,1,2,.83A3.2,3.2,0,0,1,96.06,158.08Zm-4.32,0q0,2.06,1.52,2.06t1.5-2.06q0-2-1.51-2a1.29,1.29,0,0,0-1.15.53A2.68,2.68,0,0,0,91.74,158.08Z"/><path class="cls-4" d="M98.73,157.92l.71-.89,1.79-1.91h1.46l-2.39,2.55,2.54,3.39h-1.48l-1.91-2.61-.69.57v2H97.51V152.7h1.25v4.08l-.06,1.14Z"/><path class="cls-4" d="M103.73,153.55a.7.7,0,0,1,.19-.52.72.72,0,0,1,.53-.18.64.64,0,0,1,.7.7.68.68,0,0,1-.19.51.7.7,0,0,1-.52.19.71.71,0,0,1-.53-.19A.68.68,0,0,1,103.73,153.55Zm1.34,7.51H103.8v-5.94h1.26Z"/><path class="cls-4" d="M112.09,161.06h-1.27v-3.65a1.59,1.59,0,0,0-.28-1,1.07,1.07,0,0,0-.88-.34,1.4,1.4,0,0,0-1.17.47,2.61,2.61,0,0,0-.37,1.58v3h-1.26v-5.94h1l.18.78h.06a1.76,1.76,0,0,1,.76-.65A2.55,2.55,0,0,1,110,155a1.91,1.91,0,0,1,2.14,2.17Z"/><path class="cls-4" d="M118.87,155.12v.69l-1,.19a1.66,1.66,0,0,1,.23.46,1.83,1.83,0,0,1,.09.58,1.78,1.78,0,0,1-.63,1.45,2.65,2.65,0,0,1-1.75.53,2.78,2.78,0,0,1-.52,0,.71.71,0,0,0-.41.59.33.33,0,0,0,.19.31,1.64,1.64,0,0,0,.7.1h1a2.3,2.3,0,0,1,1.49.42,1.48,1.48,0,0,1,.51,1.21,1.76,1.76,0,0,1-.83,1.56,4.38,4.38,0,0,1-2.41.55,3.33,3.33,0,0,1-1.85-.43,1.39,1.39,0,0,1-.64-1.22,1.3,1.3,0,0,1,.35-.92,1.86,1.86,0,0,1,1-.52.94.94,0,0,1-.42-.35.9.9,0,0,1,0-1.07,2.16,2.16,0,0,1,.56-.46,1.66,1.66,0,0,1-.75-.65,1.9,1.9,0,0,1-.29-1,1.88,1.88,0,0,1,.61-1.5,2.56,2.56,0,0,1,1.74-.53,4.21,4.21,0,0,1,.53,0l.42.07ZM114.2,162a.69.69,0,0,0,.37.63,2,2,0,0,0,1,.22,3.12,3.12,0,0,0,1.54-.3.88.88,0,0,0,.5-.78.59.59,0,0,0-.28-.55,2.22,2.22,0,0,0-1-.16h-1a1.34,1.34,0,0,0-.86.25A.84.84,0,0,0,114.2,162Zm.54-4.94a1.2,1.2,0,0,0,.29.86,1.09,1.09,0,0,0,.83.3q1.1,0,1.1-1.17a1.34,1.34,0,0,0-.27-.89,1,1,0,0,0-.83-.31,1.06,1.06,0,0,0-.83.31A1.3,1.3,0,0,0,114.74,157Z"/><path class="cls-4" d="M128.1,158.08a3.24,3.24,0,0,1-.75,2.27,2.68,2.68,0,0,1-2.08.82,2.84,2.84,0,0,1-1.47-.38,2.48,2.48,0,0,1-1-1.08,3.68,3.68,0,0,1-.34-1.63,3.22,3.22,0,0,1,.74-2.26,2.69,2.69,0,0,1,2.09-.81,2.62,2.62,0,0,1,2,.83A3.21,3.21,0,0,1,128.1,158.08Zm-4.32,0q0,2.06,1.52,2.06t1.5-2.06q0-2-1.51-2a1.29,1.29,0,0,0-1.15.53A2.68,2.68,0,0,0,123.77,158.08Z"/><path class="cls-4" d="M134.77,161.06H133.5v-3.65a1.59,1.59,0,0,0-.28-1,1.06,1.06,0,0,0-.88-.34,1.4,1.4,0,0,0-1.17.47,2.62,2.62,0,0,0-.37,1.58v3h-1.26v-5.94h1l.18.78h.06a1.76,1.76,0,0,1,.76-.65,2.55,2.55,0,0,1,1.1-.23,1.91,1.91,0,0,1,2.14,2.17Z"/><path class="cls-4" d="M137.79,161.06h-1.26V152.7h1.26Z"/><path class="cls-4" d="M139.52,153.55a.7.7,0,0,1,.19-.52.72.72,0,0,1,.53-.18.64.64,0,0,1,.7.7.68.68,0,0,1-.19.51.7.7,0,0,1-.52.19.71.71,0,0,1-.53-.19A.68.68,0,0,1,139.52,153.55Zm1.34,7.51h-1.26v-5.94h1.26Z"/><path class="cls-4" d="M147.89,161.06h-1.27v-3.65a1.6,1.6,0,0,0-.28-1,1.07,1.07,0,0,0-.88-.34,1.39,1.39,0,0,0-1.17.47,2.6,2.6,0,0,0-.37,1.58v3h-1.26v-5.94h1l.18.78h.06a1.75,1.75,0,0,1,.76-.65,2.56,2.56,0,0,1,1.1-.23,1.91,1.91,0,0,1,2.14,2.17Z"/><path class="cls-4" d="M152.24,161.17a2.87,2.87,0,0,1-2.17-.81,3.07,3.07,0,0,1-.78-2.23,3.36,3.36,0,0,1,.73-2.29,2.5,2.5,0,0,1,2-.83,2.45,2.45,0,0,1,1.86.71,2.73,2.73,0,0,1,.68,2v.68h-4a2,2,0,0,0,.47,1.33,1.63,1.63,0,0,0,1.24.46,4.57,4.57,0,0,0,1-.1,5.13,5.13,0,0,0,1-.33v1a3.86,3.86,0,0,1-.93.31A5.68,5.68,0,0,1,152.24,161.17ZM152,156a1.27,1.27,0,0,0-1,.38,1.82,1.82,0,0,0-.43,1.11h2.7a1.64,1.64,0,0,0-.35-1.11A1.21,1.21,0,0,0,152,156Z"/><path class="cls-4" d="M60.08,171.85v-1.07h2.76v1.07Z"/><path class="cls-4" d="M66.92,166.75a.7.7,0,0,1,.19-.52.72.72,0,0,1,.53-.18.64.64,0,0,1,.7.7.68.68,0,0,1-.19.51.7.7,0,0,1-.52.19.71.71,0,0,1-.53-.19A.68.68,0,0,1,66.92,166.75Zm1.34,7.51H67v-5.94h1.26Z"/><path class="cls-4" d="M75.28,174.26H74v-3.65a1.59,1.59,0,0,0-.28-1,1.07,1.07,0,0,0-.88-.34,1.4,1.4,0,0,0-1.17.47,2.61,2.61,0,0,0-.37,1.58v3H70.06v-5.94h1l.18.78h.06a1.76,1.76,0,0,1,.76-.65,2.55,2.55,0,0,1,1.1-.23,1.91,1.91,0,0,1,2.14,2.17Z"/><path class="cls-4" d="M76.52,171.85v-1.07h2.76v1.07Z"/><path class="cls-4" d="M84.57,172.57a1.55,1.55,0,0,1-.63,1.33,3,3,0,0,1-1.82.46,4.3,4.3,0,0,1-1.91-.36v-1.09a4.68,4.68,0,0,0,1.95.48q1.17,0,1.17-.7a.56.56,0,0,0-.13-.38,1.54,1.54,0,0,0-.42-.31,7.22,7.22,0,0,0-.82-.37,3.82,3.82,0,0,1-1.39-.79,1.48,1.48,0,0,1-.36-1,1.35,1.35,0,0,1,.62-1.18,2.92,2.92,0,0,1,1.67-.42,4.73,4.73,0,0,1,2,.42l-.41,1a4.41,4.41,0,0,0-1.62-.4q-1,0-1,.57a.57.57,0,0,0,.26.47,5.77,5.77,0,0,0,1.14.53,5.2,5.2,0,0,1,1.07.52,1.55,1.55,0,0,1,.49.54A1.58,1.58,0,0,1,84.57,172.57Z"/><path class="cls-4" d="M89.65,174.26l-.25-.83h0a2.44,2.44,0,0,1-.86.74,2.73,2.73,0,0,1-1.12.2,1.89,1.89,0,0,1-1.37-.47,1.77,1.77,0,0,1-.49-1.34,1.57,1.57,0,0,1,.68-1.38,3.92,3.92,0,0,1,2.08-.51l1,0v-.32a1.2,1.2,0,0,0-.27-.85,1.08,1.08,0,0,0-.82-.28,2.87,2.87,0,0,0-.88.13,6.61,6.61,0,0,0-.81.32l-.41-.9a4.41,4.41,0,0,1,1.06-.38,4.86,4.86,0,0,1,1.08-.13,2.57,2.57,0,0,1,1.71.49,1.93,1.93,0,0,1,.58,1.55v4Zm-1.88-.86a1.56,1.56,0,0,0,1.1-.38,1.39,1.39,0,0,0,.42-1.08v-.52l-.76,0a2.62,2.62,0,0,0-1.3.3.91.91,0,0,0-.41.81.79.79,0,0,0,.24.61A1,1,0,0,0,87.77,173.4Z"/><path class="cls-4" d="M93.58,174.26H92.32V165.9h1.26Z"/><path class="cls-4" d="M100.65,171.28a3.24,3.24,0,0,1-.75,2.27,2.68,2.68,0,0,1-2.08.82,2.84,2.84,0,0,1-1.47-.38,2.48,2.48,0,0,1-1-1.08,3.68,3.68,0,0,1-.34-1.63,3.22,3.22,0,0,1,.74-2.26,2.69,2.69,0,0,1,2.09-.81,2.62,2.62,0,0,1,2,.83A3.2,3.2,0,0,1,100.65,171.28Zm-4.32,0q0,2.06,1.52,2.06t1.5-2.06q0-2-1.51-2a1.29,1.29,0,0,0-1.15.53A2.68,2.68,0,0,0,96.33,171.28Z"/><path class="cls-4" d="M107.33,174.26h-1.27v-3.65a1.59,1.59,0,0,0-.28-1,1.07,1.07,0,0,0-.88-.34,1.4,1.4,0,0,0-1.17.47,2.61,2.61,0,0,0-.37,1.58v3H102.1v-5.94h1l.18.78h.06a1.76,1.76,0,0,1,.76-.65,2.55,2.55,0,0,1,1.1-.23,1.91,1.91,0,0,1,2.14,2.17Z"/><path class="cls-4" d="M114.15,173.35a3,3,0,0,0,.92-.15v1a2.55,2.55,0,0,1-.54.15,3.73,3.73,0,0,1-.68.06q-1.79,0-1.79-1.89v-3.2h-.81v-.56l.87-.46.43-1.26h.78v1.32H115v1h-1.69v3.18a.89.89,0,0,0,.23.67A.83.83,0,0,0,114.15,173.35Z"/><path class="cls-4" d="M119.28,168.21a3,3,0,0,1,.63.05l-.12,1.18a2.39,2.39,0,0,0-.56-.06,1.61,1.61,0,0,0-1.23.49,1.78,1.78,0,0,0-.47,1.28v3.1h-1.26v-5.94h1l.17,1h.06a2.34,2.34,0,0,1,.77-.84A1.83,1.83,0,0,1,119.28,168.21Z"/><path class="cls-4" d="M123.6,174.37a2.87,2.87,0,0,1-2.17-.81,3.07,3.07,0,0,1-.78-2.23,3.36,3.36,0,0,1,.73-2.29,2.5,2.5,0,0,1,2-.83,2.45,2.45,0,0,1,1.86.71,2.73,2.73,0,0,1,.68,2v.68h-4a2,2,0,0,0,.47,1.33,1.63,1.63,0,0,0,1.24.46,4.57,4.57,0,0,0,1-.1,5.13,5.13,0,0,0,1-.33v1a3.88,3.88,0,0,1-.93.31A5.67,5.67,0,0,1,123.6,174.37Zm-.23-5.2a1.27,1.27,0,0,0-1,.38,1.82,1.82,0,0,0-.43,1.11h2.7a1.64,1.64,0,0,0-.35-1.11A1.21,1.21,0,0,0,123.37,169.17Z"/><path class="cls-4" d="M131.06,174.26l-.25-.83h0a2.44,2.44,0,0,1-.87.74,2.73,2.73,0,0,1-1.12.2,1.89,1.89,0,0,1-1.37-.47,1.77,1.77,0,0,1-.49-1.34,1.57,1.57,0,0,1,.68-1.38,3.92,3.92,0,0,1,2.08-.51l1,0v-.32a1.2,1.2,0,0,0-.27-.85,1.08,1.08,0,0,0-.82-.28,2.87,2.87,0,0,0-.87.13,6.62,6.62,0,0,0-.81.32l-.41-.9a4.42,4.42,0,0,1,1.06-.38,4.85,4.85,0,0,1,1.08-.13,2.57,2.57,0,0,1,1.71.49,1.93,1.93,0,0,1,.58,1.55v4Zm-1.88-.86a1.56,1.56,0,0,0,1.1-.38,1.39,1.39,0,0,0,.42-1.08v-.52l-.76,0a2.62,2.62,0,0,0-1.3.3.91.91,0,0,0-.41.81.79.79,0,0,0,.24.61A1,1,0,0,0,129.18,173.4Z"/><path class="cls-4" d="M135.94,173.35a3,3,0,0,0,.92-.15v1a2.55,2.55,0,0,1-.54.15,3.73,3.73,0,0,1-.68.06q-1.79,0-1.79-1.89v-3.2H133v-.56l.87-.46.43-1.26h.78v1.32h1.69v1h-1.69v3.18a.89.89,0,0,0,.23.67A.83.83,0,0,0,135.94,173.35Z"/><path class="cls-4" d="M143.06,174.26h-1.27V170.6a1.66,1.66,0,0,0-.26-1,1,1,0,0,0-.81-.34,1.23,1.23,0,0,0-1.07.48,2.78,2.78,0,0,0-.34,1.58v3h-1.26v-5.94h1l.18.78h.06a1.64,1.64,0,0,1,.72-.65,2.3,2.3,0,0,1,1-.23,1.81,1.81,0,0,1,1.82.93h.09a1.81,1.81,0,0,1,.74-.69,2.35,2.35,0,0,1,1.1-.25,2,2,0,0,1,1.55.54,2.38,2.38,0,0,1,.49,1.64v3.87h-1.26V170.6a1.65,1.65,0,0,0-.26-1,1,1,0,0,0-.81-.34,1.26,1.26,0,0,0-1.08.46,2.38,2.38,0,0,0-.34,1.41Z"/><path class="cls-4" d="M151.16,174.37a2.87,2.87,0,0,1-2.17-.81,3.07,3.07,0,0,1-.78-2.23,3.36,3.36,0,0,1,.73-2.29,2.5,2.5,0,0,1,2-.83,2.45,2.45,0,0,1,1.86.71,2.73,2.73,0,0,1,.68,2v.68h-4a2,2,0,0,0,.47,1.33,1.63,1.63,0,0,0,1.24.46,4.57,4.57,0,0,0,1-.1,5.13,5.13,0,0,0,1-.33v1a3.86,3.86,0,0,1-.93.31A5.68,5.68,0,0,1,151.16,174.37Zm-.23-5.2a1.27,1.27,0,0,0-1,.38,1.82,1.82,0,0,0-.43,1.11h2.7a1.64,1.64,0,0,0-.35-1.11A1.21,1.21,0,0,0,150.93,169.17Z"/><path class="cls-4" d="M160.13,174.26h-1.27v-3.65a1.59,1.59,0,0,0-.28-1,1.07,1.07,0,0,0-.88-.34,1.4,1.4,0,0,0-1.17.47,2.61,2.61,0,0,0-.37,1.58v3H154.9v-5.94h1l.18.78h.06a1.75,1.75,0,0,1,.76-.65,2.56,2.56,0,0,1,1.1-.23,1.91,1.91,0,0,1,2.14,2.17Z"/><path class="cls-4" d="M164.1,173.35a3,3,0,0,0,.92-.15v1a2.55,2.55,0,0,1-.54.15,3.73,3.73,0,0,1-.68.06q-1.79,0-1.79-1.89v-3.2h-.81v-.56l.87-.46.43-1.26h.78v1.32H165v1h-1.69v3.18a.89.89,0,0,0,.23.67A.83.83,0,0,0,164.1,173.35Z"/><path class="cls-4" d="M55.77,185V184h2.76V185Z"/><path class="cls-4" d="M65.7,181.41a3,3,0,0,1,.63.05l-.12,1.18a2.39,2.39,0,0,0-.56-.06,1.62,1.62,0,0,0-1.23.49,1.79,1.79,0,0,0-.47,1.28v3.1H62.69v-5.94h1l.17,1h.06a2.34,2.34,0,0,1,.77-.84A1.83,1.83,0,0,1,65.7,181.41Z"/><path class="cls-4" d="M70,187.57a2.87,2.87,0,0,1-2.17-.81,3.07,3.07,0,0,1-.78-2.23,3.36,3.36,0,0,1,.73-2.29,2.5,2.5,0,0,1,2-.83,2.45,2.45,0,0,1,1.86.71,2.73,2.73,0,0,1,.68,2v.68h-4a2,2,0,0,0,.47,1.33,1.63,1.63,0,0,0,1.24.46,4.57,4.57,0,0,0,1-.1,5.13,5.13,0,0,0,1-.33v1a3.88,3.88,0,0,1-.93.31A5.67,5.67,0,0,1,70,187.57Zm-.23-5.2a1.27,1.27,0,0,0-1,.38,1.82,1.82,0,0,0-.43,1.11h2.7a1.64,1.64,0,0,0-.35-1.11A1.21,1.21,0,0,0,69.79,182.37Z"/><path class="cls-4" d="M76,186.55a3,3,0,0,0,.92-.15v1a2.55,2.55,0,0,1-.54.15,3.73,3.73,0,0,1-.68.06q-1.79,0-1.79-1.89v-3.2h-.81v-.56l.87-.46.43-1.26h.78v1.32h1.69v1H75.15v3.18a.89.89,0,0,0,.23.67A.83.83,0,0,0,76,186.55Z"/><path class="cls-4" d="M81.81,187.46l-.25-.83h0a2.44,2.44,0,0,1-.86.74,2.73,2.73,0,0,1-1.12.2,1.89,1.89,0,0,1-1.37-.47,1.77,1.77,0,0,1-.49-1.34,1.57,1.57,0,0,1,.68-1.38,3.92,3.92,0,0,1,2.08-.51l1,0v-.32a1.2,1.2,0,0,0-.27-.85,1.08,1.08,0,0,0-.82-.28,2.87,2.87,0,0,0-.88.13,6.61,6.61,0,0,0-.81.32l-.41-.9a4.41,4.41,0,0,1,1.06-.38,4.86,4.86,0,0,1,1.08-.13,2.57,2.57,0,0,1,1.71.49,1.93,1.93,0,0,1,.58,1.55v4Zm-1.88-.86a1.56,1.56,0,0,0,1.1-.38,1.39,1.39,0,0,0,.42-1.08v-.52l-.76,0a2.62,2.62,0,0,0-1.3.3.91.91,0,0,0-.41.81.79.79,0,0,0,.24.61A1,1,0,0,0,79.93,186.6Z"/><path class="cls-4" d="M84.4,179.95a.7.7,0,0,1,.19-.52.72.72,0,0,1,.53-.18.64.64,0,0,1,.7.7.68.68,0,0,1-.19.51.7.7,0,0,1-.52.19.71.71,0,0,1-.53-.19A.68.68,0,0,1,84.4,179.95Zm1.34,7.51H84.47v-5.94h1.26Z"/><path class="cls-4" d="M88.8,187.46H87.54V179.1H88.8Z"/><path class="cls-4" d="M96.48,187.57a2.08,2.08,0,0,1-1.75-.81h-.08q.08.75.08.91v2.43H93.46v-8.58h1q0,.17.18.79h.06a2,2,0,0,1,1.77-.9,2.06,2.06,0,0,1,1.73.81,4.42,4.42,0,0,1,0,4.53A2.08,2.08,0,0,1,96.48,187.57Zm-.31-5.12a1.31,1.31,0,0,0-1.1.44,2.29,2.29,0,0,0-.35,1.41v.19a2.78,2.78,0,0,0,.34,1.57,1.28,1.28,0,0,0,1.12.49,1.14,1.14,0,0,0,1-.54,2.77,2.77,0,0,0,.35-1.53A2.68,2.68,0,0,0,97.2,183,1.17,1.17,0,0,0,96.17,182.44Z"/><path class="cls-4" d="M104.51,187.46l-.18-.78h-.06a1.78,1.78,0,0,1-.75.65,2.51,2.51,0,0,1-1.11.24,2.18,2.18,0,0,1-1.61-.54,2.23,2.23,0,0,1-.53-1.63v-3.88h1.27v3.66a1.59,1.59,0,0,0,.28,1,1.07,1.07,0,0,0,.88.34,1.39,1.39,0,0,0,1.17-.48,2.62,2.62,0,0,0,.37-1.59v-3h1.27v5.94Z"/><path class="cls-4" d="M110.31,181.41a3,3,0,0,1,.63.05l-.12,1.18a2.39,2.39,0,0,0-.56-.06,1.62,1.62,0,0,0-1.23.49,1.79,1.79,0,0,0-.47,1.28v3.1H107.3v-5.94h1l.17,1h.06a2.34,2.34,0,0,1,.77-.84A1.83,1.83,0,0,1,110.31,181.41Z"/><path class="cls-4" d="M114.44,187.57a2.6,2.6,0,0,1-2-.79,4,4,0,0,1,0-4.56,2.72,2.72,0,0,1,2.12-.81,4,4,0,0,1,1.69.35l-.38,1a3.82,3.82,0,0,0-1.32-.31q-1.54,0-1.54,2a2.45,2.45,0,0,0,.38,1.5,1.33,1.33,0,0,0,1.13.5,3.23,3.23,0,0,0,1.59-.42v1.1a2.49,2.49,0,0,1-.72.29A4.31,4.31,0,0,1,114.44,187.57Z"/><path class="cls-4" d="M122.71,187.46h-1.27v-3.65a1.59,1.59,0,0,0-.28-1,1.07,1.07,0,0,0-.88-.34,1.39,1.39,0,0,0-1.17.48,2.62,2.62,0,0,0-.37,1.59v2.95h-1.26V179.1h1.26v2.12a9.9,9.9,0,0,1-.06,1.09h.08a1.76,1.76,0,0,1,.72-.67,2.32,2.32,0,0,1,1.07-.24,1.91,1.91,0,0,1,2.16,2.17Z"/><path class="cls-4" d="M128.19,187.46l-.25-.83h0a2.43,2.43,0,0,1-.86.74,2.73,2.73,0,0,1-1.12.2,1.89,1.89,0,0,1-1.37-.47,1.77,1.77,0,0,1-.49-1.34,1.57,1.57,0,0,1,.68-1.38,3.92,3.92,0,0,1,2.08-.51l1,0v-.32a1.2,1.2,0,0,0-.27-.85,1.08,1.08,0,0,0-.82-.28,2.88,2.88,0,0,0-.88.13,6.59,6.59,0,0,0-.8.32l-.41-.9a4.4,4.4,0,0,1,1.06-.38,4.87,4.87,0,0,1,1.08-.13,2.57,2.57,0,0,1,1.71.49,1.93,1.93,0,0,1,.58,1.55v4Zm-1.88-.86a1.56,1.56,0,0,0,1.1-.38,1.39,1.39,0,0,0,.42-1.08v-.52l-.76,0a2.62,2.62,0,0,0-1.3.3.91.91,0,0,0-.41.81.79.79,0,0,0,.24.61A1,1,0,0,0,126.31,186.6Z"/><path class="cls-4" d="M134.84,185.77a1.55,1.55,0,0,1-.63,1.33,3,3,0,0,1-1.81.46,4.3,4.3,0,0,1-1.91-.36v-1.09a4.68,4.68,0,0,0,2,.48q1.16,0,1.17-.7a.56.56,0,0,0-.13-.38,1.54,1.54,0,0,0-.42-.31,7.2,7.2,0,0,0-.82-.37,3.82,3.82,0,0,1-1.39-.79,1.48,1.48,0,0,1-.36-1,1.35,1.35,0,0,1,.62-1.18,2.92,2.92,0,0,1,1.67-.42,4.73,4.73,0,0,1,2,.42l-.41,1a4.41,4.41,0,0,0-1.62-.4q-1,0-1,.57a.57.57,0,0,0,.26.47,5.74,5.74,0,0,0,1.14.53,5.19,5.19,0,0,1,1.07.52,1.55,1.55,0,0,1,.49.54A1.58,1.58,0,0,1,134.84,185.77Z"/><path class="cls-4" d="M138.8,187.57a2.87,2.87,0,0,1-2.17-.81,3.07,3.07,0,0,1-.78-2.23,3.36,3.36,0,0,1,.72-2.29,2.5,2.5,0,0,1,2-.83,2.45,2.45,0,0,1,1.86.71,2.73,2.73,0,0,1,.68,2v.68h-4a2,2,0,0,0,.47,1.33,1.63,1.63,0,0,0,1.24.46,4.57,4.57,0,0,0,1-.1,5.15,5.15,0,0,0,1-.33v1a3.88,3.88,0,0,1-.94.31A5.66,5.66,0,0,1,138.8,187.57Zm-.23-5.2a1.27,1.27,0,0,0-1,.38,1.82,1.82,0,0,0-.43,1.11h2.7a1.65,1.65,0,0,0-.36-1.11A1.21,1.21,0,0,0,138.57,182.37Z"/><path class="cls-4" d="M150.21,185a1.64,1.64,0,0,1-.57,1.28,2.9,2.9,0,0,1-1.64.62v1.17h-.71V187a5.55,5.55,0,0,1-2.19-.41v-1.13a5.43,5.43,0,0,0,1.08.38,4.88,4.88,0,0,0,1.11.16v-2l-.45-.17a3.17,3.17,0,0,1-1.29-.81,1.72,1.72,0,0,1-.41-1.16,1.51,1.51,0,0,1,.58-1.22,2.87,2.87,0,0,1,1.57-.58v-.9H148V180a5.89,5.89,0,0,1,2.07.44l-.39,1A5.75,5.75,0,0,0,148,181v2l.41.16a3.72,3.72,0,0,1,1.41.83A1.53,1.53,0,0,1,150.21,185Zm-3.81-3.22a.72.72,0,0,0,.19.51,2,2,0,0,0,.69.4V181a1.26,1.26,0,0,0-.66.26A.63.63,0,0,0,146.4,181.8Zm2.54,3.3a.67.67,0,0,0-.22-.51,2.21,2.21,0,0,0-.73-.39v1.71Q148.94,185.77,148.94,185.11Z"/><path class="cls-4" d="M155,187.46h-1.26v-5.07q0-.91,0-1.44l-.3.29-1.21,1-.63-.8,2.31-1.82H155Z"/><path class="cls-4" d="M160.2,182.56a2.69,2.69,0,0,1,1.88.63,2.2,2.2,0,0,1,.69,1.71,2.5,2.5,0,0,1-.79,2,3.24,3.24,0,0,1-2.24.71,4.23,4.23,0,0,1-2.07-.42V186a3.75,3.75,0,0,0,1,.38,4.54,4.54,0,0,0,1,.13,2,2,0,0,0,1.3-.38,1.39,1.39,0,0,0,.45-1.12q0-1.41-1.79-1.41a4.67,4.67,0,0,0-.62.05l-.65.12-.56-.33.3-3.83h4.08v1.12h-3l-.18,1.95.46-.08A4.36,4.36,0,0,1,160.2,182.56Z"/><path class="cls-4" d="M166,184.06h-2.14v-1H166v-2.19h1v2.19h2.14v1H167v2.18h-1Z"/></g><g id="Layer_1" data-name="Layer 1"><path class="cls-2" d="M128.11,80.11v8.47H99.69V80.11h9.94V58.9a7.6,7.6,0,0,1-2,1.72,27.35,27.35,0,0,1-3,1.65,21.11,21.11,0,0,1-3.33,1.26,11.24,11.24,0,0,1-3,.49V55.26a7.92,7.92,0,0,0,3.08-.81,26.53,26.53,0,0,0,3.57-1.92,29.65,29.65,0,0,0,3-2.21,7.44,7.44,0,0,0,1.64-1.72h9.59v31.5Z"/></g></svg>