<svg id="_20_pts" data-name="20 pts" xmlns="http://www.w3.org/2000/svg" xmlns:xlink="http://www.w3.org/1999/xlink" viewBox="0 0 225 225"><defs><style>.cls-1,.cls-3{stroke-miterlimit:10;}.cls-1{fill:url(#linear-gradient);stroke:url(#linear-gradient-2);}.cls-2{fill:#31d3d9;}.cls-3{fill:none;stroke:#31d3d9;stroke-width:5px;}.cls-4{fill:#fff;}</style><linearGradient id="linear-gradient" x1="112.5" y1="222.5" x2="112.5" y2="114.06" gradientUnits="userSpaceOnUse"><stop offset="0" stop-opacity="0.4"/><stop offset="1" stop-opacity="0.8"/></linearGradient><linearGradient id="linear-gradient-2" x1="2" y1="112.5" x2="223" y2="112.5" gradientUnits="userSpaceOnUse"><stop offset="0" stop-color="#fff"/><stop offset="1"/></linearGradient></defs><title>20points</title><g id="Layer_5_copy_4" data-name="Layer 5 copy 4"><circle class="cls-1" cx="112.5" cy="112.5" r="110"/></g><g id="Layer_4_copy_4" data-name="Layer 4 copy 4"><rect class="cls-2" x="34.75" y="111.5" width="155.5" height="2"/></g><g id="Layer_3_copy_4" data-name="Layer 3 copy 4"><circle class="cls-3" cx="112.5" cy="112.5" r="110"/></g><g id="Layer_2_copy_4" data-name="Layer 2 copy 4"><path class="cls-2" d="M158.38,60.74A2.85,2.85,0,0,1,156,59.63h-.1c.07.69.1,1.1.1,1.25V64.2h-1.72V52.49h1.39c0,.15.12.51.24,1.09H156a2.7,2.7,0,0,1,2.42-1.23,2.8,2.8,0,0,1,2.36,1.09,5,5,0,0,1,.85,3.09,5,5,0,0,1-.86,3.1A2.86,2.86,0,0,1,158.38,60.74Zm-.42-7a1.81,1.81,0,0,0-1.5.6,3.15,3.15,0,0,0-.47,1.92v.26a3.81,3.81,0,0,0,.47,2.14,1.74,1.74,0,0,0,1.53.66,1.55,1.55,0,0,0,1.38-.73,3.8,3.8,0,0,0,.48-2.09,3.65,3.65,0,0,0-.48-2.06A1.62,1.62,0,0,0,158,53.75Z"/><path class="cls-2" d="M166.63,59.35a4.25,4.25,0,0,0,1.26-.2v1.3a3.85,3.85,0,0,1-.73.21,5.67,5.67,0,0,1-.94.08c-1.63,0-2.44-.86-2.44-2.58V53.8h-1.11V53l1.19-.63.59-1.71h1.06v1.8h2.3V53.8h-2.3v4.33a1.2,1.2,0,0,0,.31.92A1.13,1.13,0,0,0,166.63,59.35Z"/><path class="cls-2" d="M175,58.29a2.12,2.12,0,0,1-.87,1.82,4.15,4.15,0,0,1-2.47.63,5.79,5.79,0,0,1-2.6-.49V58.76a6.33,6.33,0,0,0,2.65.66q1.59,0,1.59-1a.75.75,0,0,0-.17-.51,2.12,2.12,0,0,0-.58-.43,10.32,10.32,0,0,0-1.12-.49,5.18,5.18,0,0,1-1.89-1.09,2,2,0,0,1-.5-1.4,1.84,1.84,0,0,1,.84-1.62,4,4,0,0,1,2.28-.57,6.54,6.54,0,0,1,2.7.57l-.55,1.3a6.06,6.06,0,0,0-2.21-.54c-.91,0-1.36.26-1.36.78a.78.78,0,0,0,.36.64,7.45,7.45,0,0,0,1.54.73,6.38,6.38,0,0,1,1.46.71,2.16,2.16,0,0,1,.68.74A2.25,2.25,0,0,1,175,58.29Z"/><path class="cls-4" d="M58.9,145.45v-1.08h2.77v1.08Z"/><path class="cls-4" d="M68.83,141.81a2.8,2.8,0,0,1,.63.06L69.33,143a2.44,2.44,0,0,0-.55-.06,1.6,1.6,0,0,0-1.23.49,1.81,1.81,0,0,0-.47,1.29v3.1H65.82v-5.94h1L67,143H67a2.26,2.26,0,0,1,.77-.85A1.85,1.85,0,0,1,68.83,141.81Z"/><path class="cls-4" d="M73.15,148a2.86,2.86,0,0,1-2.16-.81,3.08,3.08,0,0,1-.78-2.23,3.35,3.35,0,0,1,.72-2.28,2.49,2.49,0,0,1,2-.84,2.43,2.43,0,0,1,1.86.72,2.69,2.69,0,0,1,.68,2v.68h-4A2,2,0,0,0,72,146.5a1.64,1.64,0,0,0,1.24.47,4.34,4.34,0,0,0,1-.1,5.65,5.65,0,0,0,1-.33v1a4.14,4.14,0,0,1-.94.31A5.74,5.74,0,0,1,73.15,148Zm-.23-5.2a1.27,1.27,0,0,0-1,.38,1.77,1.77,0,0,0-.43,1.11h2.69a1.59,1.59,0,0,0-.35-1.11A1.2,1.2,0,0,0,72.92,142.77Z"/><path class="cls-4" d="M79.88,142.88H78.43v5H77.16v-5h-1v-.59l1-.39v-.39a2.21,2.21,0,0,1,.49-1.56,2,2,0,0,1,1.51-.51,4.19,4.19,0,0,1,1.31.22l-.33,1a2.91,2.91,0,0,0-.89-.15.72.72,0,0,0-.63.27,1.32,1.32,0,0,0-.19.79v.39h1.45Z"/><path class="cls-4" d="M83.48,148a2.9,2.9,0,0,1-2.17-.81,3.08,3.08,0,0,1-.78-2.23,3.35,3.35,0,0,1,.73-2.28,2.49,2.49,0,0,1,2-.84,2.43,2.43,0,0,1,1.86.72,2.73,2.73,0,0,1,.68,2v.68h-4a2,2,0,0,0,.47,1.33,1.63,1.63,0,0,0,1.24.47,4.34,4.34,0,0,0,1-.1,6,6,0,0,0,1-.33v1a4.14,4.14,0,0,1-.94.31A5.74,5.74,0,0,1,83.48,148Zm-.23-5.2a1.27,1.27,0,0,0-1,.38,1.83,1.83,0,0,0-.44,1.11h2.7a1.64,1.64,0,0,0-.35-1.11A1.2,1.2,0,0,0,83.25,142.77Z"/><path class="cls-4" d="M90.24,141.81a2.8,2.8,0,0,1,.63.06L90.74,143a2.51,2.51,0,0,0-.55-.06,1.6,1.6,0,0,0-1.23.49,1.81,1.81,0,0,0-.47,1.29v3.1H87.23v-5.94h1l.17,1.05h.07a2.26,2.26,0,0,1,.77-.85A1.85,1.85,0,0,1,90.24,141.81Z"/><path class="cls-4" d="M95,141.81a2.68,2.68,0,0,1,.63.06L95.49,143a2.6,2.6,0,0,0-.56-.06,1.6,1.6,0,0,0-1.23.49,1.81,1.81,0,0,0-.47,1.29v3.1H92v-5.94h1l.16,1.05h.07a2.26,2.26,0,0,1,.77-.85A1.9,1.9,0,0,1,95,141.81Z"/><path class="cls-4" d="M96.64,140.35a.7.7,0,0,1,.18-.52.69.69,0,0,1,.53-.19.68.68,0,0,1,.52.19.7.7,0,0,1,.18.52.64.64,0,0,1-.7.69.69.69,0,0,1-.53-.19A.68.68,0,0,1,96.64,140.35ZM98,147.86H96.71v-5.94H98Z"/><path class="cls-4" d="M105,147.86h-1.26v-3.65a1.64,1.64,0,0,0-.28-1,1.09,1.09,0,0,0-.88-.34,1.39,1.39,0,0,0-1.17.48,2.57,2.57,0,0,0-.37,1.58v3H99.78v-5.94h1l.17.78H101a1.82,1.82,0,0,1,.76-.66,2.64,2.64,0,0,1,1.1-.23A1.91,1.91,0,0,1,105,144Z"/><path class="cls-4" d="M111.78,141.92v.69l-1,.19a1.53,1.53,0,0,1,.23.46,1.9,1.9,0,0,1,.09.58,1.78,1.78,0,0,1-.63,1.45,2.64,2.64,0,0,1-1.74.52,2.75,2.75,0,0,1-.52,0,.73.73,0,0,0-.41.59.33.33,0,0,0,.19.31,1.63,1.63,0,0,0,.7.1h1a2.3,2.3,0,0,1,1.49.42,1.47,1.47,0,0,1,.51,1.21,1.76,1.76,0,0,1-.83,1.56,4.44,4.44,0,0,1-2.41.54,3.31,3.31,0,0,1-1.85-.43,1.37,1.37,0,0,1-.64-1.22,1.3,1.3,0,0,1,.35-.92,1.85,1.85,0,0,1,1-.52,1,1,0,0,1-.42-.35.85.85,0,0,1-.16-.5.83.83,0,0,1,.19-.56,2,2,0,0,1,.55-.46,1.73,1.73,0,0,1-.75-.65,1.92,1.92,0,0,1-.28-1,1.89,1.89,0,0,1,.61-1.5,2.56,2.56,0,0,1,1.73-.53,3.23,3.23,0,0,1,.53,0,2.24,2.24,0,0,1,.42.07Zm-4.67,6.86a.67.67,0,0,0,.37.63,2,2,0,0,0,1,.22,3.23,3.23,0,0,0,1.54-.29.9.9,0,0,0,.5-.79.6.6,0,0,0-.27-.55,2.25,2.25,0,0,0-1-.16h-1a1.33,1.33,0,0,0-.86.25A.85.85,0,0,0,107.11,148.78Zm.54-4.94a1.21,1.21,0,0,0,.29.86,1.09,1.09,0,0,0,.82.3c.73,0,1.1-.39,1.1-1.17a1.33,1.33,0,0,0-.27-.89,1,1,0,0,0-.83-.32,1.1,1.1,0,0,0-.83.31A1.37,1.37,0,0,0,107.65,143.84Z"/><path class="cls-4" d="M118.72,142.88h-1.45v5H116v-5h-1v-.59l1-.39v-.39a2.16,2.16,0,0,1,.49-1.56,2,2,0,0,1,1.51-.51,4.19,4.19,0,0,1,1.31.22l-.33,1a2.91,2.91,0,0,0-.89-.15.72.72,0,0,0-.63.27,1.32,1.32,0,0,0-.19.79v.39h1.45Z"/><path class="cls-4" d="M122.74,141.81a2.8,2.8,0,0,1,.63.06l-.13,1.17a2.44,2.44,0,0,0-.55-.06,1.6,1.6,0,0,0-1.23.49,1.81,1.81,0,0,0-.47,1.29v3.1h-1.26v-5.94h1l.17,1.05H121a2.26,2.26,0,0,1,.77-.85A1.88,1.88,0,0,1,122.74,141.81Z"/><path class="cls-4" d="M124.39,140.35a.7.7,0,0,1,.19-.52.82.82,0,0,1,1,0,.7.7,0,0,1,.18.52.68.68,0,0,1-.18.5.82.82,0,0,1-1,0A.69.69,0,0,1,124.39,140.35Zm1.34,7.51h-1.26v-5.94h1.26Z"/><path class="cls-4" d="M130.13,148a2.88,2.88,0,0,1-2.17-.81,3.08,3.08,0,0,1-.78-2.23,3.31,3.31,0,0,1,.73-2.28,2.77,2.77,0,0,1,3.85-.12,2.73,2.73,0,0,1,.68,2v.68h-4a2,2,0,0,0,.47,1.33,1.63,1.63,0,0,0,1.24.47,4.34,4.34,0,0,0,1-.1,5.57,5.57,0,0,0,1-.33v1a3.91,3.91,0,0,1-.93.31A5.81,5.81,0,0,1,130.13,148Zm-.23-5.2a1.27,1.27,0,0,0-1,.38,1.77,1.77,0,0,0-.44,1.11h2.7a1.64,1.64,0,0,0-.36-1.11A1.17,1.17,0,0,0,129.9,142.77Z"/><path class="cls-4" d="M139.1,147.86h-1.27v-3.65a1.65,1.65,0,0,0-.27-1,1.1,1.1,0,0,0-.88-.34,1.37,1.37,0,0,0-1.17.48,2.57,2.57,0,0,0-.37,1.58v3h-1.27v-5.94h1l.18.78h.06a1.85,1.85,0,0,1,.77-.66,2.59,2.59,0,0,1,1.09-.23A1.91,1.91,0,0,1,139.1,144Z"/><path class="cls-4" d="M142.86,148a2.08,2.08,0,0,1-1.74-.81,4.42,4.42,0,0,1,0-4.53,2.08,2.08,0,0,1,1.75-.82,2.06,2.06,0,0,1,1.79.87h.06a7.69,7.69,0,0,1-.09-1V139.5h1.27v8.36h-1l-.22-.78h-.06A2,2,0,0,1,142.86,148Zm.34-1a1.38,1.38,0,0,0,1.13-.44,2.3,2.3,0,0,0,.37-1.42v-.18a2.58,2.58,0,0,0-.37-1.59,1.33,1.33,0,0,0-1.14-.48,1.16,1.16,0,0,0-1,.54,2.78,2.78,0,0,0-.36,1.54,2.74,2.74,0,0,0,.35,1.51A1.19,1.19,0,0,0,143.2,147Z"/><path class="cls-4" d="M151.7,146.17a1.55,1.55,0,0,1-.63,1.33,3.06,3.06,0,0,1-1.82.47,4.31,4.31,0,0,1-1.91-.36v-1.09a4.72,4.72,0,0,0,1.95.48c.78,0,1.17-.23,1.17-.7a.55.55,0,0,0-.13-.38,1.57,1.57,0,0,0-.42-.31,5.93,5.93,0,0,0-.83-.36,3.91,3.91,0,0,1-1.38-.8,1.49,1.49,0,0,1-.37-1,1.38,1.38,0,0,1,.62-1.19,2.93,2.93,0,0,1,1.67-.42,4.61,4.61,0,0,1,2,.43l-.4.95a4.36,4.36,0,0,0-1.62-.4c-.67,0-1,.19-1,.57a.57.57,0,0,0,.26.47,5.2,5.2,0,0,0,1.14.53,5.94,5.94,0,0,1,1.07.52,1.59,1.59,0,0,1,.49.55A1.55,1.55,0,0,1,151.7,146.17Z"/><path class="cls-4" d="M161.19,144.88a3.22,3.22,0,0,1-.75,2.27,2.64,2.64,0,0,1-2.07.82,2.88,2.88,0,0,1-1.48-.38,2.51,2.51,0,0,1-1-1.08,3.65,3.65,0,0,1-.34-1.63,3.21,3.21,0,0,1,.74-2.26,2.68,2.68,0,0,1,2.09-.81,2.62,2.62,0,0,1,2,.83A3.23,3.23,0,0,1,161.19,144.88Zm-4.32,0c0,1.37.5,2.06,1.52,2.06s1.5-.69,1.5-2.06-.5-2-1.51-2a1.31,1.31,0,0,0-1.16.53A2.74,2.74,0,0,0,156.87,144.88Z"/><path class="cls-4" d="M165.65,141.81a2.68,2.68,0,0,1,.63.06l-.12,1.17a2.6,2.6,0,0,0-.56-.06,1.63,1.63,0,0,0-1.23.49,1.81,1.81,0,0,0-.47,1.29v3.1h-1.26v-5.94h1l.16,1.05h.07a2.35,2.35,0,0,1,.77-.85A1.9,1.9,0,0,1,165.65,141.81Z"/><path class="cls-4" d="M99.92,156.08H98.47v5H97.21v-5h-1v-.6l1-.38v-.39a2.16,2.16,0,0,1,.49-1.56,2,2,0,0,1,1.51-.51,4.24,4.24,0,0,1,1.31.22l-.33,1a2.93,2.93,0,0,0-.9-.15.74.74,0,0,0-.62.26,1.37,1.37,0,0,0-.2.8v.39h1.45Z"/><path class="cls-4" d="M104.65,161.06l-.25-.83h-.05a2.39,2.39,0,0,1-.86.74,2.74,2.74,0,0,1-1.12.2,1.85,1.85,0,0,1-1.36-.48,1.75,1.75,0,0,1-.5-1.33,1.57,1.57,0,0,1,.69-1.39,3.92,3.92,0,0,1,2.07-.51l1,0v-.32a1.19,1.19,0,0,0-.27-.85,1.06,1.06,0,0,0-.82-.28,2.89,2.89,0,0,0-.88.13,7.85,7.85,0,0,0-.8.32l-.41-.9a4.46,4.46,0,0,1,1.06-.39,5.29,5.29,0,0,1,1.08-.13,2.6,2.6,0,0,1,1.72.5,1.92,1.92,0,0,1,.57,1.55v4Zm-1.88-.86a1.56,1.56,0,0,0,1.1-.38,1.4,1.4,0,0,0,.42-1.08v-.52l-.76,0a2.68,2.68,0,0,0-1.3.29.92.92,0,0,0-.41.82.78.78,0,0,0,.24.61A1,1,0,0,0,102.77,160.2Z"/><path class="cls-4" d="M112.32,161.06h-1.27V157.4a1.6,1.6,0,0,0-.26-1,1,1,0,0,0-.8-.34,1.21,1.21,0,0,0-1.07.48,2.74,2.74,0,0,0-.34,1.58v3h-1.27v-5.94h1l.18.78h.06a1.77,1.77,0,0,1,.72-.66,2.36,2.36,0,0,1,1-.23,1.8,1.8,0,0,1,1.82.94h.09a1.71,1.71,0,0,1,.74-.69A2.28,2.28,0,0,1,114,155a2,2,0,0,1,1.55.54,2.35,2.35,0,0,1,.49,1.64v3.87h-1.26V157.4a1.66,1.66,0,0,0-.26-1,1,1,0,0,0-.81-.34,1.28,1.28,0,0,0-1.08.46,2.36,2.36,0,0,0-.34,1.41Z"/><path class="cls-4" d="M117.76,153.55a.74.74,0,0,1,.18-.53.72.72,0,0,1,.53-.18.71.71,0,0,1,.52.18.74.74,0,0,1,.18.53.64.64,0,0,1-.7.69.69.69,0,0,1-.53-.19A.68.68,0,0,1,117.76,153.55Zm1.33,7.51h-1.26v-5.94h1.26Z"/><path class="cls-4" d="M122.16,161.06H120.9V152.7h1.26Z"/><path class="cls-4" d="M123.06,155.12h1.38l1.21,3.37a6.48,6.48,0,0,1,.36,1.35h0a6.26,6.26,0,0,1,.18-.72c.09-.28.54-1.61,1.37-4H129l-2.54,6.73a2.41,2.41,0,0,1-2.31,1.85,3.75,3.75,0,0,1-.82-.09v-1a2.59,2.59,0,0,0,.65.07,1.35,1.35,0,0,0,1.29-1.06l.22-.56Z"/></g><g id="Layer_1_copy_4" data-name="Layer 1 copy 4"><path class="cls-2" d="M73.93,88.58a30,30,0,0,1,.49-5.7,15,15,0,0,1,1.75-4.73,16.84,16.84,0,0,1,3.36-4.06,29.12,29.12,0,0,1,5.39-3.71c1.87-1,3.54-1.92,5-2.69s2.7-1.49,3.71-2.14a9,9,0,0,0,2.27-2,3.81,3.81,0,0,0,.77-2.35A4.66,4.66,0,0,0,95,57.61a7,7,0,0,0-4.83-1.51,9.71,9.71,0,0,0-3.08.46,11.6,11.6,0,0,0-2.62,1.22,14.29,14.29,0,0,0-2.24,1.72,18.28,18.28,0,0,0-1.86,2l-6-6.93a16.07,16.07,0,0,1,2.59-2.13,24.27,24.27,0,0,1,4-2.17,28.1,28.1,0,0,1,5-1.68,24.82,24.82,0,0,1,5.91-.67,21.14,21.14,0,0,1,6.37.88A13.93,13.93,0,0,1,103,51.24,10.59,10.59,0,0,1,105.89,55a11.39,11.39,0,0,1,1,4.79,9.85,9.85,0,0,1-.91,4.34,13.2,13.2,0,0,1-2.31,3.36,18,18,0,0,1-3,2.56c-1.1.72-2.16,1.36-3.19,1.92-.84.47-1.74,1-2.69,1.54a32.9,32.9,0,0,0-2.84,1.86,19.39,19.39,0,0,0-2.55,2.2,9.33,9.33,0,0,0-1.79,2.52h20.09v8.47Z"/><path class="cls-2" d="M150.51,68.07a25.53,25.53,0,0,1-1.37,8.51,21,21,0,0,1-3.78,6.72,17,17,0,0,1-5.74,4.41,16.49,16.49,0,0,1-7.17,1.57,16.67,16.67,0,0,1-7.24-1.57,17.06,17.06,0,0,1-5.75-4.41,21,21,0,0,1-3.78-6.72,27.27,27.27,0,0,1,0-17,21,21,0,0,1,3.78-6.72,17.44,17.44,0,0,1,5.75-4.45,16.42,16.42,0,0,1,7.24-1.61,16.24,16.24,0,0,1,7.17,1.61,17.4,17.4,0,0,1,5.74,4.45,21,21,0,0,1,3.78,6.72A25.47,25.47,0,0,1,150.51,68.07Zm-9.45,0a19.72,19.72,0,0,0-.63-5.14,12.74,12.74,0,0,0-1.79-4,8.46,8.46,0,0,0-2.72-2.59,6.81,6.81,0,0,0-3.47-.91,7.08,7.08,0,0,0-3.57.91,8.4,8.4,0,0,0-2.77,2.59,13,13,0,0,0-1.78,4,19.72,19.72,0,0,0-.63,5.14,19.38,19.38,0,0,0,.63,5.11,13,13,0,0,0,1.78,4,8.4,8.4,0,0,0,2.77,2.59,7.08,7.08,0,0,0,3.57.91,6.81,6.81,0,0,0,3.47-.91,8.46,8.46,0,0,0,2.72-2.59,12.81,12.81,0,0,0,1.79-4A19.38,19.38,0,0,0,141.06,68.07Z"/></g></svg>