<svg id="_2_pts" data-name="2 pts" xmlns="http://www.w3.org/2000/svg" xmlns:xlink="http://www.w3.org/1999/xlink" viewBox="0 0 225 225"><defs><style>.cls-1,.cls-3{stroke-miterlimit:10;}.cls-1{fill:url(#linear-gradient);stroke:url(#linear-gradient-2);}.cls-2{fill:#31d3d9;}.cls-3{fill:none;stroke:#31d3d9;stroke-width:5px;}.cls-4{fill:#fff;}</style><linearGradient id="linear-gradient" x1="112.5" y1="222.5" x2="112.5" y2="114.06" gradientUnits="userSpaceOnUse"><stop offset="0" stop-opacity="0.4"/><stop offset="1" stop-opacity="0.8"/></linearGradient><linearGradient id="linear-gradient-2" x1="2" y1="112.5" x2="223" y2="112.5" gradientUnits="userSpaceOnUse"><stop offset="0" stop-color="#fff"/><stop offset="1"/></linearGradient></defs><title>2points</title><g id="Layer_5_copy" data-name="Layer 5 copy"><circle class="cls-1" cx="112.5" cy="112.5" r="110"/></g><g id="Layer_4_copy" data-name="Layer 4 copy"><rect class="cls-2" x="34.75" y="111.5" width="155.5" height="2"/></g><g id="Layer_3_copy" data-name="Layer 3 copy"><circle class="cls-3" cx="112.5" cy="112.5" r="110"/></g><g id="Layer_2_copy" data-name="Layer 2 copy"><path class="cls-2" d="M136.38,60.74A2.84,2.84,0,0,1,134,59.63h-.1q.1,1,.1,1.24V64.2h-1.72V52.49h1.39q.06.23.24,1.08H134a2.7,2.7,0,0,1,2.42-1.23,2.81,2.81,0,0,1,2.36,1.1,5,5,0,0,1,.85,3.08,5,5,0,0,1-.86,3.1A2.84,2.84,0,0,1,136.38,60.74Zm-.42-7a1.79,1.79,0,0,0-1.5.6,3.12,3.12,0,0,0-.47,1.92v.26a3.79,3.79,0,0,0,.47,2.14,1.74,1.74,0,0,0,1.53.66,1.55,1.55,0,0,0,1.38-.73,3.78,3.78,0,0,0,.48-2.09,3.65,3.65,0,0,0-.48-2.06A1.6,1.6,0,0,0,136,53.75Z"/><path class="cls-2" d="M144.63,59.35a4.16,4.16,0,0,0,1.26-.2v1.3a3.5,3.5,0,0,1-.74.21,5.11,5.11,0,0,1-.93.08q-2.45,0-2.45-2.58V53.8h-1.11V53l1.19-.63.59-1.71h1.06v1.8h2.31v1.3h-2.31v4.34a1.21,1.21,0,0,0,.31.92A1.13,1.13,0,0,0,144.63,59.35Z"/><path class="cls-2" d="M153,58.29a2.12,2.12,0,0,1-.86,1.82,4.14,4.14,0,0,1-2.48.63,5.85,5.85,0,0,1-2.6-.49V58.76a6.38,6.38,0,0,0,2.66.66q1.59,0,1.59-1a.76.76,0,0,0-.18-.51,2.11,2.11,0,0,0-.58-.42,10.05,10.05,0,0,0-1.12-.5,5.19,5.19,0,0,1-1.89-1.08,2,2,0,0,1-.49-1.41,1.85,1.85,0,0,1,.84-1.62,4,4,0,0,1,2.28-.58,6.46,6.46,0,0,1,2.7.58l-.56,1.3a6,6,0,0,0-2.21-.54q-1.36,0-1.36.78a.78.78,0,0,0,.36.64,7.84,7.84,0,0,0,1.55.73,7.12,7.12,0,0,1,1.46.71,2,2,0,0,1,.89,1.75Z"/><path class="cls-4" d="M62.1,145.45v-1.07h2.76v1.07Z"/><path class="cls-4" d="M70.27,147.86H69V139.5h1.26Z"/><path class="cls-4" d="M76.27,147.86l-.18-.78H76a1.78,1.78,0,0,1-.75.65,2.51,2.51,0,0,1-1.11.24,2.18,2.18,0,0,1-1.61-.54A2.23,2.23,0,0,1,72,145.8v-3.88H73.3v3.66a1.59,1.59,0,0,0,.28,1,1.07,1.07,0,0,0,.88.34,1.39,1.39,0,0,0,1.17-.48,2.62,2.62,0,0,0,.37-1.59v-3h1.27v5.94Z"/><path class="cls-4" d="M80.38,144.83l-2-2.91h1.44L81.18,144l1.36-2.08H84l-2,2.91,2.1,3H82.65l-1.47-2.22-1.46,2.22H78.29Z"/><path class="cls-4" d="M89.31,147.86l-.18-.78h-.06a1.78,1.78,0,0,1-.75.65,2.51,2.51,0,0,1-1.11.24,2.18,2.18,0,0,1-1.61-.54,2.23,2.23,0,0,1-.53-1.63v-3.88h1.27v3.66a1.59,1.59,0,0,0,.28,1,1.07,1.07,0,0,0,.88.34,1.39,1.39,0,0,0,1.17-.48,2.62,2.62,0,0,0,.37-1.59v-3H90.3v5.94Z"/><path class="cls-4" d="M95.11,141.81a3,3,0,0,1,.63.05L95.62,143a2.39,2.39,0,0,0-.56-.06,1.62,1.62,0,0,0-1.23.49,1.79,1.79,0,0,0-.47,1.28v3.1H92.1v-5.94h1l.17,1h.06a2.34,2.34,0,0,1,.77-.84A1.83,1.83,0,0,1,95.11,141.81Z"/><path class="cls-4" d="M95.94,141.92h1.38l1.21,3.37a6.39,6.39,0,0,1,.37,1.35h0a5.65,5.65,0,0,1,.18-.72q.13-.42,1.36-4h1.36l-2.54,6.73A2.41,2.41,0,0,1,97,150.5a3.6,3.6,0,0,1-.82-.09v-1a3,3,0,0,0,.65.06,1.33,1.33,0,0,0,1.28-1.06l.22-.56Z"/><path class="cls-4" d="M107.81,146.95a3,3,0,0,0,.92-.15v1a2.55,2.55,0,0,1-.54.15,3.73,3.73,0,0,1-.68.06q-1.79,0-1.79-1.89v-3.2h-.81v-.56l.87-.46.43-1.26H107v1.32h1.69v1H107v3.18a.89.89,0,0,0,.23.67A.83.83,0,0,0,107.81,146.95Z"/><path class="cls-4" d="M112.94,141.81a3,3,0,0,1,.63.05l-.12,1.18a2.39,2.39,0,0,0-.56-.06,1.62,1.62,0,0,0-1.23.49,1.79,1.79,0,0,0-.47,1.28v3.1h-1.26v-5.94h1l.17,1h.06a2.34,2.34,0,0,1,.77-.84A1.83,1.83,0,0,1,112.94,141.81Z"/><path class="cls-4" d="M117.26,148a2.87,2.87,0,0,1-2.17-.81,3.07,3.07,0,0,1-.78-2.23,3.36,3.36,0,0,1,.72-2.29,2.5,2.5,0,0,1,2-.83,2.45,2.45,0,0,1,1.86.71,2.73,2.73,0,0,1,.68,2v.68h-4a2,2,0,0,0,.47,1.33,1.63,1.63,0,0,0,1.24.46,4.57,4.57,0,0,0,1-.1,5.15,5.15,0,0,0,1-.33v1a3.88,3.88,0,0,1-.94.31A5.66,5.66,0,0,1,117.26,148Zm-.23-5.2a1.27,1.27,0,0,0-1,.38,1.82,1.82,0,0,0-.43,1.11h2.7a1.65,1.65,0,0,0-.36-1.11A1.21,1.21,0,0,0,117,142.77Z"/><path class="cls-4" d="M124.72,147.86l-.25-.83h0a2.44,2.44,0,0,1-.87.74,2.73,2.73,0,0,1-1.12.2,1.89,1.89,0,0,1-1.37-.47,1.77,1.77,0,0,1-.49-1.34,1.57,1.57,0,0,1,.68-1.38,3.92,3.92,0,0,1,2.08-.51l1,0v-.32a1.2,1.2,0,0,0-.27-.85,1.08,1.08,0,0,0-.82-.28,2.87,2.87,0,0,0-.87.13,6.61,6.61,0,0,0-.81.32l-.41-.9a4.41,4.41,0,0,1,1.06-.38,4.87,4.87,0,0,1,1.09-.13,2.57,2.57,0,0,1,1.71.49,1.93,1.93,0,0,1,.58,1.55v4Zm-1.88-.86a1.56,1.56,0,0,0,1.1-.38,1.39,1.39,0,0,0,.42-1.08V145l-.76,0a2.62,2.62,0,0,0-1.3.3.91.91,0,0,0-.4.81.79.79,0,0,0,.24.61A1,1,0,0,0,122.84,147Z"/><path class="cls-4" d="M129.6,146.95a3,3,0,0,0,.92-.15v1a2.52,2.52,0,0,1-.54.15,3.75,3.75,0,0,1-.69.06q-1.79,0-1.79-1.89v-3.2h-.81v-.56l.87-.46.43-1.26h.78v1.32h1.69v1h-1.69v3.18a.89.89,0,0,0,.23.67A.83.83,0,0,0,129.6,146.95Z"/><path class="cls-4" d="M136.71,147.86h-1.27V144.2a1.66,1.66,0,0,0-.26-1,1,1,0,0,0-.81-.34,1.23,1.23,0,0,0-1.07.48,2.79,2.79,0,0,0-.34,1.58v3h-1.26v-5.94h1l.18.78h.06a1.64,1.64,0,0,1,.72-.65,2.31,2.31,0,0,1,1-.23,1.81,1.81,0,0,1,1.82.93h.09a1.81,1.81,0,0,1,.74-.69,2.35,2.35,0,0,1,1.1-.25,2,2,0,0,1,1.55.54,2.38,2.38,0,0,1,.49,1.64v3.87H139.2V144.2a1.65,1.65,0,0,0-.26-1,1,1,0,0,0-.81-.34,1.26,1.26,0,0,0-1.08.46,2.37,2.37,0,0,0-.34,1.41Z"/><path class="cls-4" d="M144.82,148a2.87,2.87,0,0,1-2.17-.81,3.07,3.07,0,0,1-.78-2.23,3.36,3.36,0,0,1,.73-2.29,2.5,2.5,0,0,1,2-.83,2.45,2.45,0,0,1,1.86.71,2.73,2.73,0,0,1,.68,2v.68h-4a2,2,0,0,0,.47,1.33,1.63,1.63,0,0,0,1.24.46,4.57,4.57,0,0,0,1-.1,5.13,5.13,0,0,0,1-.33v1a3.86,3.86,0,0,1-.93.31A5.68,5.68,0,0,1,144.82,148Zm-.23-5.2a1.27,1.27,0,0,0-1,.38,1.82,1.82,0,0,0-.43,1.11h2.7a1.64,1.64,0,0,0-.35-1.11A1.21,1.21,0,0,0,144.59,142.77Z"/><path class="cls-4" d="M153.79,147.86h-1.27v-3.65a1.59,1.59,0,0,0-.28-1,1.07,1.07,0,0,0-.88-.34,1.4,1.4,0,0,0-1.17.47,2.61,2.61,0,0,0-.37,1.58v3h-1.26v-5.94h1l.18.78h.06a1.75,1.75,0,0,1,.76-.65,2.56,2.56,0,0,1,1.1-.23,1.91,1.91,0,0,1,2.14,2.17Z"/><path class="cls-4" d="M157.76,146.95a3,3,0,0,0,.92-.15v1a2.55,2.55,0,0,1-.54.15,3.73,3.73,0,0,1-.68.06q-1.79,0-1.79-1.89v-3.2h-.81v-.56l.87-.46.43-1.26h.78v1.32h1.69v1h-1.69v3.18a.89.89,0,0,0,.23.67A.83.83,0,0,0,157.76,146.95Z"/><path class="cls-4" d="M162.08,146.95a3,3,0,0,0,.92-.15v1a2.55,2.55,0,0,1-.54.15,3.73,3.73,0,0,1-.68.06q-1.79,0-1.79-1.89v-3.2h-.81v-.56l.87-.46.43-1.26h.78v1.32h1.69v1h-1.69v3.18a.89.89,0,0,0,.23.67A.83.83,0,0,0,162.08,146.95Z"/></g><g id="Layer_1_copy" data-name="Layer 1 copy"><path class="cls-2" d="M95.42,88.58a30.37,30.37,0,0,1,.49-5.71,15.42,15.42,0,0,1,1.71-4.73A15.86,15.86,0,0,1,101,74.09a30.43,30.43,0,0,1,5.43-3.71q2.87-1.54,5.07-2.69a41,41,0,0,0,3.68-2.13,9.16,9.16,0,0,0,2.24-2,3.77,3.77,0,0,0,.77-2.35,4.68,4.68,0,0,0-1.68-3.6,7,7,0,0,0-4.83-1.5,9.92,9.92,0,0,0-3.08.46A11.71,11.71,0,0,0,106,57.78a14.91,14.91,0,0,0-2.24,1.71,18.63,18.63,0,0,0-1.86,2l-6-6.93a15.72,15.72,0,0,1,2.59-2.13,24.92,24.92,0,0,1,4-2.17,29.08,29.08,0,0,1,5-1.68,25.26,25.26,0,0,1,5.92-.67,21.36,21.36,0,0,1,6.37.88,14,14,0,0,1,4.72,2.45A10.53,10.53,0,0,1,127.38,55a11.34,11.34,0,0,1,1,4.79,9.89,9.89,0,0,1-.91,4.34,13,13,0,0,1-2.31,3.36,17.57,17.57,0,0,1-3,2.55q-1.65,1.09-3.19,1.93l-2.87,1.61q-1.61.91-3.18,2A32.87,32.87,0,0,0,110,77.83a10.4,10.4,0,0,0-2,2.27h21.21v8.47Z"/></g></svg>