<svg id="_3_pts" data-name="3 pts" xmlns="http://www.w3.org/2000/svg" xmlns:xlink="http://www.w3.org/1999/xlink" viewBox="0 0 225 225"><defs><style>.cls-1,.cls-3{stroke-miterlimit:10;}.cls-1{fill:url(#linear-gradient);stroke:url(#linear-gradient-2);}.cls-2{fill:#31d3d9;}.cls-3{fill:none;stroke:#31d3d9;stroke-width:5px;}.cls-4{fill:#fff;}</style><linearGradient id="linear-gradient" x1="112.5" y1="222.5" x2="112.5" y2="114.06" gradientUnits="userSpaceOnUse"><stop offset="0" stop-opacity="0.4"/><stop offset="1" stop-opacity="0.8"/></linearGradient><linearGradient id="linear-gradient-2" x1="2" y1="112.5" x2="223" y2="112.5" gradientUnits="userSpaceOnUse"><stop offset="0" stop-color="#fff"/><stop offset="1"/></linearGradient></defs><title>3points</title><g id="Layer_5_copy_2" data-name="Layer 5 copy 2"><circle class="cls-1" cx="112.5" cy="112.5" r="110"/></g><g id="Layer_4_copy_2" data-name="Layer 4 copy 2"><rect class="cls-2" x="34.75" y="111.5" width="155.5" height="2"/></g><g id="Layer_3_copy_2" data-name="Layer 3 copy 2"><circle class="cls-3" cx="112.5" cy="112.5" r="110"/></g><g id="Layer_2_copy_2" data-name="Layer 2 copy 2"><path class="cls-2" d="M136.38,60.74A2.85,2.85,0,0,1,134,59.63h-.1c.07.69.1,1.1.1,1.25V64.2h-1.72V52.49h1.39c0,.15.12.51.24,1.09H134a2.7,2.7,0,0,1,2.42-1.23,2.8,2.8,0,0,1,2.36,1.09,5,5,0,0,1,.85,3.09,5,5,0,0,1-.86,3.1A2.86,2.86,0,0,1,136.38,60.74Zm-.42-7a1.81,1.81,0,0,0-1.5.6,3.15,3.15,0,0,0-.47,1.92v.26a3.81,3.81,0,0,0,.47,2.14,1.74,1.74,0,0,0,1.53.66,1.55,1.55,0,0,0,1.38-.73,3.8,3.8,0,0,0,.48-2.09,3.65,3.65,0,0,0-.48-2.06A1.62,1.62,0,0,0,136,53.75Z"/><path class="cls-2" d="M144.63,59.35a4.25,4.25,0,0,0,1.26-.2v1.3a3.85,3.85,0,0,1-.73.21,5.67,5.67,0,0,1-.94.08c-1.63,0-2.44-.86-2.44-2.58V53.8h-1.11V53l1.19-.63.59-1.71h1.06v1.8h2.3V53.8h-2.3v4.33a1.2,1.2,0,0,0,.31.92A1.13,1.13,0,0,0,144.63,59.35Z"/><path class="cls-2" d="M153,58.29a2.12,2.12,0,0,1-.87,1.82,4.15,4.15,0,0,1-2.47.63,5.79,5.79,0,0,1-2.6-.49V58.76a6.33,6.33,0,0,0,2.65.66q1.59,0,1.59-1a.75.75,0,0,0-.17-.51,2.12,2.12,0,0,0-.58-.43,10.32,10.32,0,0,0-1.12-.49,5.18,5.18,0,0,1-1.89-1.09,2,2,0,0,1-.5-1.4,1.84,1.84,0,0,1,.84-1.62,4,4,0,0,1,2.28-.57,6.54,6.54,0,0,1,2.7.57l-.55,1.3a6.06,6.06,0,0,0-2.21-.54c-.91,0-1.36.26-1.36.78a.78.78,0,0,0,.36.64,7.45,7.45,0,0,0,1.54.73,6.38,6.38,0,0,1,1.46.71,2.16,2.16,0,0,1,.68.74A2.25,2.25,0,0,1,153,58.29Z"/><path class="cls-4" d="M44.8,138.45v-1.08h2.76v1.08Z"/><path class="cls-4" d="M53.93,140a3,3,0,0,0,.92-.15v.95a2.51,2.51,0,0,1-.54.16,3.85,3.85,0,0,1-.69.06c-1.19,0-1.79-.63-1.79-1.89v-3.2H51v-.56l.87-.46.43-1.26h.78v1.32h1.69v1H53.1v3.18a.87.87,0,0,0,.23.67A.81.81,0,0,0,53.93,140Z"/><path class="cls-4" d="M59.75,140.86,59.5,140h0a2.49,2.49,0,0,1-.87.74,2.72,2.72,0,0,1-1.11.2,1.91,1.91,0,0,1-1.37-.47,1.78,1.78,0,0,1-.49-1.34,1.57,1.57,0,0,1,.68-1.39,4,4,0,0,1,2.08-.51l1,0v-.32a1.19,1.19,0,0,0-.26-.85,1.08,1.08,0,0,0-.83-.28,2.82,2.82,0,0,0-.87.13,7.18,7.18,0,0,0-.81.32l-.41-.9a4.62,4.62,0,0,1,1.06-.39,5.47,5.47,0,0,1,1.09-.13,2.58,2.58,0,0,1,1.71.5,1.94,1.94,0,0,1,.58,1.55v4ZM57.87,140a1.61,1.61,0,0,0,1.11-.38,1.43,1.43,0,0,0,.41-1.08V138l-.76,0a2.71,2.71,0,0,0-1.3.29.91.91,0,0,0-.4.82.81.81,0,0,0,.23.61A1,1,0,0,0,57.87,140Z"/><path class="cls-4" d="M67.43,134.92v.69l-1,.19a1.8,1.8,0,0,1,.23.46,1.9,1.9,0,0,1,.09.58,1.78,1.78,0,0,1-.63,1.45,2.68,2.68,0,0,1-1.75.52,2.64,2.64,0,0,1-.51,0,.71.71,0,0,0-.41.59.33.33,0,0,0,.19.31,1.63,1.63,0,0,0,.7.1h1a2.3,2.3,0,0,1,1.49.42,1.47,1.47,0,0,1,.51,1.21,1.78,1.78,0,0,1-.83,1.56,4.46,4.46,0,0,1-2.41.54,3.26,3.26,0,0,1-1.85-.43,1.37,1.37,0,0,1-.64-1.22,1.29,1.29,0,0,1,.34-.92,1.93,1.93,0,0,1,1-.52,1,1,0,0,1-.41-.35.86.86,0,0,1-.17-.5.88.88,0,0,1,.19-.56,2.09,2.09,0,0,1,.56-.46,1.62,1.62,0,0,1-.75-.65,2.11,2.11,0,0,1,.32-2.55,2.6,2.6,0,0,1,1.74-.53,3.23,3.23,0,0,1,.53,0,2.58,2.58,0,0,1,.42.07Zm-4.66,6.86a.68.68,0,0,0,.36.63,2,2,0,0,0,1,.22,3.16,3.16,0,0,0,1.53-.29.89.89,0,0,0,.51-.79.59.59,0,0,0-.28-.55,2.19,2.19,0,0,0-1-.16H64a1.33,1.33,0,0,0-.86.25A.82.82,0,0,0,62.77,141.78Zm.54-4.94a1.17,1.17,0,0,0,.29.86,1.07,1.07,0,0,0,.82.3c.73,0,1.1-.39,1.1-1.17a1.33,1.33,0,0,0-.27-.89,1.06,1.06,0,0,0-.83-.32,1.1,1.1,0,0,0-.83.31A1.32,1.32,0,0,0,63.31,136.84Z"/><path class="cls-4" d="M73.55,134.92v.69l-1,.19a1.8,1.8,0,0,1,.23.46,1.9,1.9,0,0,1,.09.58,1.76,1.76,0,0,1-.64,1.45,2.64,2.64,0,0,1-1.74.52,2.82,2.82,0,0,1-.52,0,.71.71,0,0,0-.4.59.33.33,0,0,0,.19.31,1.6,1.6,0,0,0,.7.1h1a2.31,2.31,0,0,1,1.5.42,1.47,1.47,0,0,1,.51,1.21,1.77,1.77,0,0,1-.84,1.56,4.4,4.4,0,0,1-2.4.54,3.26,3.26,0,0,1-1.85-.43,1.37,1.37,0,0,1-.64-1.22,1.29,1.29,0,0,1,.34-.92,1.89,1.89,0,0,1,1-.52.87.87,0,0,1-.41-.35.86.86,0,0,1-.17-.5.83.83,0,0,1,.19-.56,2.09,2.09,0,0,1,.56-.46,1.62,1.62,0,0,1-.75-.65,1.92,1.92,0,0,1-.29-1,1.89,1.89,0,0,1,.61-1.5,2.6,2.6,0,0,1,1.74-.53,3.32,3.32,0,0,1,.53,0,2.25,2.25,0,0,1,.41.07Zm-4.67,6.86a.69.69,0,0,0,.37.63,2,2,0,0,0,1,.22,3.19,3.19,0,0,0,1.53-.29.89.89,0,0,0,.51-.79.61.61,0,0,0-.28-.55,2.22,2.22,0,0,0-1-.16h-1a1.36,1.36,0,0,0-.87.25A.85.85,0,0,0,68.88,141.78Zm.55-4.94a1.2,1.2,0,0,0,.28.86,1.11,1.11,0,0,0,.83.3c.73,0,1.09-.39,1.09-1.17a1.33,1.33,0,0,0-.27-.89,1,1,0,0,0-.82-.32,1.09,1.09,0,0,0-.83.31A1.32,1.32,0,0,0,69.43,136.84Z"/><path class="cls-4" d="M74.58,133.35a.64.64,0,0,1,.71-.71.68.68,0,0,1,.52.19.7.7,0,0,1,.19.52.65.65,0,0,1-.71.69.7.7,0,0,1-.53-.19A.68.68,0,0,1,74.58,133.35Zm1.33,7.51H74.65v-5.94h1.26Z"/><path class="cls-4" d="M83,140.86H81.68v-3.65a1.58,1.58,0,0,0-.28-1,1.09,1.09,0,0,0-.88-.34,1.39,1.39,0,0,0-1.17.48A2.57,2.57,0,0,0,79,137.9v3H77.72v-5.94h1l.17.78H79a1.82,1.82,0,0,1,.76-.66,2.64,2.64,0,0,1,1.1-.23A1.91,1.91,0,0,1,83,137Z"/><path class="cls-4" d="M89.72,134.92v.69l-1,.19a1.53,1.53,0,0,1,.23.46,1.65,1.65,0,0,1,.1.58,1.79,1.79,0,0,1-.64,1.45,2.64,2.64,0,0,1-1.74.52,2.75,2.75,0,0,1-.52,0,.73.73,0,0,0-.41.59.34.34,0,0,0,.19.31,1.63,1.63,0,0,0,.7.1h1a2.28,2.28,0,0,1,1.49.42,1.47,1.47,0,0,1,.51,1.21,1.76,1.76,0,0,1-.83,1.56,4.42,4.42,0,0,1-2.4.54,3.32,3.32,0,0,1-1.86-.43,1.39,1.39,0,0,1-.64-1.22,1.3,1.3,0,0,1,.35-.92,1.85,1.85,0,0,1,1-.52,1,1,0,0,1-.42-.35.85.85,0,0,1-.16-.5.83.83,0,0,1,.19-.56,1.94,1.94,0,0,1,.56-.46,1.62,1.62,0,0,1-.75-.65,1.84,1.84,0,0,1-.29-1,1.89,1.89,0,0,1,.61-1.5,2.57,2.57,0,0,1,1.74-.53,3.2,3.2,0,0,1,.52,0,2.24,2.24,0,0,1,.42.07Zm-4.67,6.86a.67.67,0,0,0,.37.63,2,2,0,0,0,1,.22,3.23,3.23,0,0,0,1.54-.29.88.88,0,0,0,.5-.79.6.6,0,0,0-.27-.55,2.25,2.25,0,0,0-1-.16h-1a1.33,1.33,0,0,0-.86.25A.85.85,0,0,0,85.05,141.78Zm.54-4.94a1.21,1.21,0,0,0,.29.86,1.1,1.1,0,0,0,.83.3c.73,0,1.09-.39,1.09-1.17a1.33,1.33,0,0,0-.27-.89,1,1,0,0,0-.82-.32,1.07,1.07,0,0,0-.83.31A1.32,1.32,0,0,0,85.59,136.84Z"/><path class="cls-4" d="M98.68,140.86l-.78-2.18h-3l-.77,2.18H92.77L95.71,133h1.4l2.94,7.88Zm-1.12-3.29-.74-2.13-.22-.68c-.09-.31-.16-.53-.19-.68a12.53,12.53,0,0,1-.43,1.45l-.71,2Z"/><path class="cls-4" d="M106.18,140.86h-1.27v-3.65a1.58,1.58,0,0,0-.28-1,1.09,1.09,0,0,0-.88-.34,1.39,1.39,0,0,0-1.17.48,2.57,2.57,0,0,0-.37,1.58v3H101v-5.94h1l.17.78h.07a1.82,1.82,0,0,1,.76-.66,2.64,2.64,0,0,1,1.1-.23,1.91,1.91,0,0,1,2.14,2.18Z"/><path class="cls-4" d="M113.16,140.86h-1.27v-3.65a1.58,1.58,0,0,0-.28-1,1.06,1.06,0,0,0-.87-.34,1.4,1.4,0,0,0-1.18.48,2.64,2.64,0,0,0-.37,1.58v3h-1.26v-5.94h1l.18.78h.06a1.82,1.82,0,0,1,.76-.66,2.64,2.64,0,0,1,1.1-.23,1.91,1.91,0,0,1,2.14,2.18Z"/><path class="cls-4" d="M118.63,140.86l-.25-.83h0a2.49,2.49,0,0,1-.87.74,2.74,2.74,0,0,1-1.12.2,1.89,1.89,0,0,1-1.36-.47,1.78,1.78,0,0,1-.49-1.34,1.57,1.57,0,0,1,.68-1.39,4,4,0,0,1,2.08-.51l1,0v-.32a1.23,1.23,0,0,0-.26-.85,1.1,1.1,0,0,0-.83-.28,2.82,2.82,0,0,0-.87.13,7.18,7.18,0,0,0-.81.32l-.41-.9a4.46,4.46,0,0,1,1.06-.39,5.39,5.39,0,0,1,1.09-.13,2.58,2.58,0,0,1,1.71.5,1.94,1.94,0,0,1,.57,1.55v4Zm-1.88-.86a1.56,1.56,0,0,0,1.1-.38,1.4,1.4,0,0,0,.42-1.08V138l-.76,0a2.68,2.68,0,0,0-1.3.29.91.91,0,0,0-.4.82.77.77,0,0,0,.23.61A1,1,0,0,0,116.75,140Z"/><path class="cls-4" d="M128.81,138.73a2,2,0,0,1-.75,1.64,3.29,3.29,0,0,1-2.09.6,4.89,4.89,0,0,1-2.18-.42v-1.21a6.15,6.15,0,0,0,1.14.4,5.19,5.19,0,0,0,1.12.14,1.76,1.76,0,0,0,1.13-.29.94.94,0,0,0,.36-.78,1,1,0,0,0-.33-.74,4.79,4.79,0,0,0-1.38-.73,3.65,3.65,0,0,1-1.51-1,2.12,2.12,0,0,1-.44-1.34,1.86,1.86,0,0,1,.7-1.55,2.86,2.86,0,0,1,1.87-.56,5.54,5.54,0,0,1,2.25.49l-.41,1.05a4.79,4.79,0,0,0-1.87-.44,1.45,1.45,0,0,0-1,.27.9.9,0,0,0-.32.71,1,1,0,0,0,.13.53,1.42,1.42,0,0,0,.43.41,6.64,6.64,0,0,0,1.06.51,6,6,0,0,1,1.27.67,2.14,2.14,0,0,1,.59.7A2.24,2.24,0,0,1,128.81,138.73Z"/><path class="cls-4" d="M132.41,140a3,3,0,0,0,.93-.15v.95a2.51,2.51,0,0,1-.54.16,3.85,3.85,0,0,1-.69.06c-1.19,0-1.79-.63-1.79-1.89v-3.2h-.81v-.56l.87-.46.43-1.26h.78v1.32h1.69v1h-1.69v3.18a.9.9,0,0,0,.22.67A.84.84,0,0,0,132.41,140Z"/><path class="cls-4" d="M133.62,134.92H135l1.21,3.37a6.48,6.48,0,0,1,.36,1.35h0a5,5,0,0,1,.18-.72c.09-.28.54-1.61,1.36-4h1.37L137,141.65a2.4,2.4,0,0,1-2.31,1.85,3.75,3.75,0,0,1-.82-.09v-1a2.59,2.59,0,0,0,.65.07,1.35,1.35,0,0,0,1.29-1.06l.22-.56Z"/><path class="cls-4" d="M141.68,140.86h-1.26V132.5h1.26Z"/><path class="cls-4" d="M146.08,141a2.86,2.86,0,0,1-2.16-.81,3,3,0,0,1-.79-2.23,3.35,3.35,0,0,1,.73-2.28,2.49,2.49,0,0,1,2-.84,2.44,2.44,0,0,1,1.86.72,2.69,2.69,0,0,1,.68,2v.68h-4a2,2,0,0,0,.47,1.33,1.63,1.63,0,0,0,1.24.47,4.34,4.34,0,0,0,1-.1,6,6,0,0,0,1-.33v1a4.14,4.14,0,0,1-.94.31A5.74,5.74,0,0,1,146.08,141Zm-.23-5.2a1.27,1.27,0,0,0-1,.38,1.77,1.77,0,0,0-.43,1.11h2.69a1.64,1.64,0,0,0-.35-1.11A1.2,1.2,0,0,0,145.85,135.77Z"/><path class="cls-4" d="M153.82,139.17a1.53,1.53,0,0,1-.64,1.33,3,3,0,0,1-1.81.47,4.31,4.31,0,0,1-1.91-.36v-1.09a4.72,4.72,0,0,0,1.95.48c.78,0,1.17-.23,1.17-.7a.6.6,0,0,0-.13-.38,1.65,1.65,0,0,0-.43-.31,5.72,5.72,0,0,0-.82-.36,4,4,0,0,1-1.39-.8,1.49,1.49,0,0,1-.36-1,1.38,1.38,0,0,1,.62-1.19,2.91,2.91,0,0,1,1.67-.42,4.61,4.61,0,0,1,2,.43l-.41.95a4.32,4.32,0,0,0-1.61-.4c-.67,0-1,.19-1,.57a.55.55,0,0,0,.26.47,5.29,5.29,0,0,0,1.13.53,5.61,5.61,0,0,1,1.07.52,1.62,1.62,0,0,1,.5.55A1.68,1.68,0,0,1,153.82,139.17Z"/><path class="cls-4" d="M164.37,140.86h-1.29v-3.54h-3.62v3.54h-1.29V133h1.29v3.21h3.62V133h1.29Z"/><path class="cls-4" d="M170,140.86l-.26-.83h0a2.47,2.47,0,0,1-.86.74,2.77,2.77,0,0,1-1.12.2,1.93,1.93,0,0,1-1.37-.47,1.78,1.78,0,0,1-.49-1.34,1.59,1.59,0,0,1,.68-1.39,4,4,0,0,1,2.08-.51l1,0v-.32a1.19,1.19,0,0,0-.27-.85,1.07,1.07,0,0,0-.82-.28,2.84,2.84,0,0,0-.88.13,6.35,6.35,0,0,0-.8.32l-.41-.9a4.3,4.3,0,0,1,1.06-.39,5.29,5.29,0,0,1,1.08-.13,2.55,2.55,0,0,1,1.71.5,1.91,1.91,0,0,1,.58,1.55v4Zm-1.88-.86a1.6,1.6,0,0,0,1.1-.38,1.4,1.4,0,0,0,.42-1.08V138l-.77,0a2.67,2.67,0,0,0-1.29.29.92.92,0,0,0-.41.82.78.78,0,0,0,.24.61A1,1,0,0,0,168.14,140Z"/><path class="cls-4" d="M172.61,133.35a.7.7,0,0,1,.18-.52.82.82,0,0,1,1.05,0,.7.7,0,0,1,.18.52.68.68,0,0,1-.18.5.82.82,0,0,1-1.05,0A.68.68,0,0,1,172.61,133.35Zm1.33,7.51h-1.26v-5.94h1.26Z"/><path class="cls-4" d="M178.76,134.81a2.74,2.74,0,0,1,.63.06l-.12,1.17a2.6,2.6,0,0,0-.56-.06,1.6,1.6,0,0,0-1.23.49,1.81,1.81,0,0,0-.47,1.29v3.1h-1.26v-5.94h1l.16,1.05H177a2.26,2.26,0,0,1,.77-.85A1.88,1.88,0,0,1,178.76,134.81Z"/><path class="cls-4" d="M41.88,151.65v-1.08h2.76v1.08Z"/><path class="cls-4" d="M53,154.06l-.17-.78h-.07a1.71,1.71,0,0,1-.75.65,2.45,2.45,0,0,1-1.11.24,2.17,2.17,0,0,1-1.61-.54,2.25,2.25,0,0,1-.53-1.63v-3.88H50v3.66a1.64,1.64,0,0,0,.28,1,1.1,1.1,0,0,0,.88.34,1.36,1.36,0,0,0,1.16-.48,2.61,2.61,0,0,0,.38-1.59v-3H54v5.94Z"/><path class="cls-4" d="M59.77,152.37a1.56,1.56,0,0,1-.64,1.33,3,3,0,0,1-1.81.47,4.31,4.31,0,0,1-1.91-.36v-1.09a4.72,4.72,0,0,0,2,.48c.78,0,1.17-.23,1.17-.7a.6.6,0,0,0-.13-.38,1.65,1.65,0,0,0-.43-.31,6.9,6.9,0,0,0-.82-.37,3.84,3.84,0,0,1-1.39-.79,1.49,1.49,0,0,1-.36-1,1.36,1.36,0,0,1,.61-1.19,2.94,2.94,0,0,1,1.68-.42,4.61,4.61,0,0,1,2,.43l-.41.95a4.32,4.32,0,0,0-1.62-.4q-1,0-1,.57a.55.55,0,0,0,.26.47,5.29,5.29,0,0,0,1.13.53,5.61,5.61,0,0,1,1.07.52,1.49,1.49,0,0,1,.49.55A1.53,1.53,0,0,1,59.77,152.37Z"/><path class="cls-4" d="M61.06,146.55a.74.74,0,0,1,.18-.53.86.86,0,0,1,1,0,.74.74,0,0,1,.18.53.68.68,0,0,1-.18.5.82.82,0,0,1-1,0A.68.68,0,0,1,61.06,146.55Zm1.33,7.51H61.13v-5.94h1.26Z"/><path class="cls-4" d="M69.42,154.06H68.16v-3.65a1.64,1.64,0,0,0-.28-1A1.1,1.1,0,0,0,67,149a1.39,1.39,0,0,0-1.17.48,2.57,2.57,0,0,0-.37,1.58v3H64.2v-5.94h1l.17.78h.07a1.82,1.82,0,0,1,.76-.66,2.61,2.61,0,0,1,1.1-.23,1.91,1.91,0,0,1,2.13,2.18Z"/><path class="cls-4" d="M76.2,148.12v.69l-1,.19a1.65,1.65,0,0,1,.23.46,1.85,1.85,0,0,1,.09.58,1.79,1.79,0,0,1-.63,1.45,3.22,3.22,0,0,1-2.26.48.71.71,0,0,0-.41.59.33.33,0,0,0,.19.31,1.63,1.63,0,0,0,.7.1h1a2.3,2.3,0,0,1,1.49.42,1.47,1.47,0,0,1,.51,1.21,1.75,1.75,0,0,1-.83,1.55,4.36,4.36,0,0,1-2.41.55,3.29,3.29,0,0,1-1.85-.43,1.37,1.37,0,0,1-.64-1.22,1.3,1.3,0,0,1,.35-.92,1.85,1.85,0,0,1,1-.52,1,1,0,0,1-.42-.35.85.85,0,0,1-.16-.5.87.87,0,0,1,.18-.56,2.26,2.26,0,0,1,.56-.46,1.73,1.73,0,0,1-.75-.65,1.92,1.92,0,0,1-.28-1.05,1.89,1.89,0,0,1,.61-1.5,2.56,2.56,0,0,1,1.73-.53,3.23,3.23,0,0,1,.53,0,2.24,2.24,0,0,1,.42.07ZM71.53,155a.68.68,0,0,0,.37.63,2,2,0,0,0,1,.22,3.23,3.23,0,0,0,1.54-.29.9.9,0,0,0,.5-.79.6.6,0,0,0-.27-.55,2.25,2.25,0,0,0-1-.16h-1a1.33,1.33,0,0,0-.86.25A.85.85,0,0,0,71.53,155Zm.54-4.94a1.21,1.21,0,0,0,.29.86,1.09,1.09,0,0,0,.82.3c.73,0,1.1-.39,1.1-1.17a1.32,1.32,0,0,0-.27-.89,1,1,0,0,0-.83-.32,1.1,1.1,0,0,0-.83.31A1.36,1.36,0,0,0,72.07,150Z"/><path class="cls-4" d="M84.56,149.39l-.29,1.52h1.45v.9H84.09l-.43,2.25h-1l.43-2.25H81.8l-.43,2.25h-.93l.41-2.25H79.5v-.9H81l.31-1.52H79.91v-.91h1.58l.43-2.26h1l-.43,2.26h1.36l.43-2.26h.93l-.43,2.26H86.1v.91ZM82,150.91h1.34l.31-1.52H82.28Z"/><path class="cls-4" d="M91,154.06l-.25-.83h0a2.39,2.39,0,0,1-.86.74,2.77,2.77,0,0,1-1.12.2,1.89,1.89,0,0,1-1.37-.48,1.78,1.78,0,0,1-.49-1.33,1.59,1.59,0,0,1,.68-1.39,4,4,0,0,1,2.08-.51l1,0v-.32a1.19,1.19,0,0,0-.27-.85,1.06,1.06,0,0,0-.82-.28,2.84,2.84,0,0,0-.88.13,6.35,6.35,0,0,0-.8.32l-.41-.9a4.3,4.3,0,0,1,1.06-.39,5.29,5.29,0,0,1,1.08-.13,2.55,2.55,0,0,1,1.71.5,1.9,1.9,0,0,1,.58,1.55v4Zm-1.88-.86a1.58,1.58,0,0,0,1.1-.38,1.4,1.4,0,0,0,.42-1.08v-.52l-.77,0a2.67,2.67,0,0,0-1.29.29.92.92,0,0,0-.41.82.78.78,0,0,0,.24.61A1,1,0,0,0,89.1,153.2Z"/><path class="cls-4" d="M98.87,154.06H97.6v-3.65a1.58,1.58,0,0,0-.28-1,1.06,1.06,0,0,0-.87-.34,1.4,1.4,0,0,0-1.18.48,2.64,2.64,0,0,0-.37,1.58v3H93.64v-5.94h1l.18.78h.06a1.82,1.82,0,0,1,.76-.66,2.64,2.64,0,0,1,1.1-.23,1.91,1.91,0,0,1,2.14,2.18Z"/><path class="cls-4" d="M105.85,154.06h-1.27v-3.65a1.65,1.65,0,0,0-.27-1,1.1,1.1,0,0,0-.88-.34,1.37,1.37,0,0,0-1.17.48,2.57,2.57,0,0,0-.37,1.58v3h-1.27v-5.94h1l.18.78h.06a1.85,1.85,0,0,1,.77-.66,2.59,2.59,0,0,1,1.09-.23,1.91,1.91,0,0,1,2.14,2.18Z"/><path class="cls-4" d="M111.32,154.06l-.25-.83h0a2.49,2.49,0,0,1-.87.74,2.72,2.72,0,0,1-1.11.2,1.87,1.87,0,0,1-1.37-.48,1.74,1.74,0,0,1-.49-1.33,1.59,1.59,0,0,1,.68-1.39,4,4,0,0,1,2.08-.51l1,0v-.32a1.19,1.19,0,0,0-.26-.85,1.08,1.08,0,0,0-.83-.28,2.82,2.82,0,0,0-.87.13,7.18,7.18,0,0,0-.81.32l-.41-.9a4.62,4.62,0,0,1,1.06-.39,5.47,5.47,0,0,1,1.09-.13,2.58,2.58,0,0,1,1.71.5,1.93,1.93,0,0,1,.58,1.55v4Zm-1.88-.86a1.61,1.61,0,0,0,1.11-.38,1.43,1.43,0,0,0,.41-1.08v-.52l-.76,0a2.71,2.71,0,0,0-1.3.29.91.91,0,0,0-.4.82.81.81,0,0,0,.23.61A1,1,0,0,0,109.44,153.2Z"/><path class="cls-4" d="M118,152.37a1.53,1.53,0,0,1-.64,1.33,3,3,0,0,1-1.81.47,4.31,4.31,0,0,1-1.91-.36v-1.09a4.72,4.72,0,0,0,1.95.48c.78,0,1.17-.23,1.17-.7a.6.6,0,0,0-.13-.38,1.65,1.65,0,0,0-.43-.31,6.9,6.9,0,0,0-.82-.37,3.93,3.93,0,0,1-1.39-.79,1.49,1.49,0,0,1-.36-1,1.37,1.37,0,0,1,.62-1.19,2.91,2.91,0,0,1,1.67-.42,4.61,4.61,0,0,1,2,.43l-.41.95a4.32,4.32,0,0,0-1.61-.4c-.67,0-1,.19-1,.57a.55.55,0,0,0,.26.47,5.29,5.29,0,0,0,1.13.53,5.61,5.61,0,0,1,1.07.52,1.62,1.62,0,0,1,.5.55A1.65,1.65,0,0,1,118,152.37Z"/><path class="cls-4" d="M121.55,153.15a3,3,0,0,0,.93-.15V154a3.25,3.25,0,0,1-.54.16,3.85,3.85,0,0,1-.69.06c-1.19,0-1.79-.63-1.79-1.89v-3.2h-.81v-.56l.87-.47.43-1.25h.78v1.32h1.69v1h-1.69v3.17a.88.88,0,0,0,.23.68A.84.84,0,0,0,121.55,153.15Z"/><path class="cls-4" d="M122.76,148.12h1.38l1.21,3.37a6.48,6.48,0,0,1,.36,1.35h.05a6,6,0,0,1,.17-.72c.09-.28.54-1.61,1.37-4h1.36l-2.54,6.73a2.41,2.41,0,0,1-2.31,1.85,3.75,3.75,0,0,1-.82-.09v-1a2.59,2.59,0,0,0,.65.07,1.35,1.35,0,0,0,1.29-1.06l.22-.56Z"/><path class="cls-4" d="M130.83,154.06h-1.27V145.7h1.27Z"/><path class="cls-4" d="M135.22,154.17a2.86,2.86,0,0,1-2.16-.81,3.08,3.08,0,0,1-.78-2.23,3.4,3.4,0,0,1,.72-2.29,2.52,2.52,0,0,1,2-.83,2.43,2.43,0,0,1,1.86.72,2.69,2.69,0,0,1,.69,2v.68h-4a1.92,1.92,0,0,0,.46,1.33,1.64,1.64,0,0,0,1.24.47,5,5,0,0,0,1-.1,5.65,5.65,0,0,0,1-.33v1a4.18,4.18,0,0,1-.94.32A5.74,5.74,0,0,1,135.22,154.17ZM135,149a1.24,1.24,0,0,0-1,.38,1.77,1.77,0,0,0-.43,1.11h2.69a1.59,1.59,0,0,0-.35-1.11A1.19,1.19,0,0,0,135,149Z"/><path class="cls-4" d="M141,154.17a2.05,2.05,0,0,1-1.73-.81,4.36,4.36,0,0,1,0-4.53,2.27,2.27,0,0,1,3.53,0h.06a7.83,7.83,0,0,1-.09-1V145.7H144v8.36h-1l-.22-.78h-.06A2,2,0,0,1,141,154.17Zm.34-1a1.36,1.36,0,0,0,1.13-.44,2.3,2.3,0,0,0,.37-1.42v-.18a2.58,2.58,0,0,0-.37-1.59,1.33,1.33,0,0,0-1.14-.48,1.17,1.17,0,0,0-1,.54,2.78,2.78,0,0,0-.36,1.54,2.74,2.74,0,0,0,.35,1.51A1.2,1.2,0,0,0,141.31,153.15Z"/><path class="cls-4" d="M150.83,154.06h-1.27V150.4a1.66,1.66,0,0,0-.26-1,1,1,0,0,0-.8-.34,1.21,1.21,0,0,0-1.07.48,2.73,2.73,0,0,0-.35,1.58v3h-1.26v-5.94h1l.18.78h.06a1.77,1.77,0,0,1,.72-.66,2.36,2.36,0,0,1,1-.23,1.8,1.8,0,0,1,1.82.94h.09a1.71,1.71,0,0,1,.74-.69,2.25,2.25,0,0,1,1.09-.25,2,2,0,0,1,1.55.54,2.35,2.35,0,0,1,.49,1.64v3.87h-1.27V150.4a1.6,1.6,0,0,0-.26-1,1,1,0,0,0-.8-.34,1.28,1.28,0,0,0-1.08.46,2.36,2.36,0,0,0-.34,1.41Z"/><path class="cls-4" d="M155.44,148.12h1.37l1.21,3.37a7.24,7.24,0,0,1,.37,1.35h0a4.7,4.7,0,0,1,.18-.72c.08-.28.54-1.61,1.36-4h1.36l-2.54,6.73a2.41,2.41,0,0,1-2.31,1.85,3.59,3.59,0,0,1-.81-.09v-1a2.54,2.54,0,0,0,.65.07,1.34,1.34,0,0,0,1.28-1.06l.22-.56Z"/><path class="cls-4" d="M167.46,154.06H166.2v-3.65a1.64,1.64,0,0,0-.28-1A1.1,1.1,0,0,0,165,149a1.39,1.39,0,0,0-1.17.48,2.6,2.6,0,0,0-.37,1.59v2.95h-1.26V145.7h1.26v2.12a8.4,8.4,0,0,1-.07,1.09h.08a1.91,1.91,0,0,1,.72-.66,2.28,2.28,0,0,1,1.07-.24,1.92,1.92,0,0,1,2.16,2.18Z"/><path class="cls-4" d="M172.94,154.06l-.26-.83h0a2.47,2.47,0,0,1-.86.74,2.77,2.77,0,0,1-1.12.2,1.87,1.87,0,0,1-1.37-.48,1.74,1.74,0,0,1-.49-1.33,1.59,1.59,0,0,1,.68-1.39,4,4,0,0,1,2.08-.51l1,0v-.32a1.19,1.19,0,0,0-.27-.85,1.07,1.07,0,0,0-.82-.28,2.84,2.84,0,0,0-.88.13,7.18,7.18,0,0,0-.81.32l-.4-.9a4.38,4.38,0,0,1,1.05-.39,5.47,5.47,0,0,1,1.09-.13,2.55,2.55,0,0,1,1.71.5,1.9,1.9,0,0,1,.58,1.55v4Zm-1.88-.86a1.6,1.6,0,0,0,1.1-.38,1.4,1.4,0,0,0,.42-1.08v-.52l-.77,0a2.67,2.67,0,0,0-1.29.29.92.92,0,0,0-.41.82.78.78,0,0,0,.24.61A1,1,0,0,0,171.06,153.2Z"/><path class="cls-4" d="M175.52,146.55a.74.74,0,0,1,.19-.53.86.86,0,0,1,1,0,.74.74,0,0,1,.18.53.68.68,0,0,1-.18.5.82.82,0,0,1-1,0A.69.69,0,0,1,175.52,146.55Zm1.34,7.51H175.6v-5.94h1.26Z"/><path class="cls-4" d="M181.68,148a2.8,2.8,0,0,1,.63.06l-.13,1.17a2.53,2.53,0,0,0-.56-.06,1.6,1.6,0,0,0-1.22.49,1.77,1.77,0,0,0-.47,1.29v3.1h-1.26v-5.94h1l.17,1h.06a2.37,2.37,0,0,1,.78-.85A1.85,1.85,0,0,1,181.68,148Z"/></g><g id="Layer_1_copy_2" data-name="Layer 1 copy 2"><path class="cls-2" d="M119.6,72.06a11.2,11.2,0,0,1,7.11,4.17,12.88,12.88,0,0,1,2.69,8.29,13.46,13.46,0,0,1-1.29,6A12.62,12.62,0,0,1,124.43,95a17.18,17.18,0,0,1-5.74,2.87,25.7,25.7,0,0,1-7.49,1,24.45,24.45,0,0,1-9.48-1.71,17,17,0,0,1-6.75-5l5.31-6.65a12.89,12.89,0,0,0,4.31,3.57,13.82,13.82,0,0,0,6.26,1.26,10.91,10.91,0,0,0,6.55-1.68,6,6,0,0,0,2.27-5.18,6.59,6.59,0,0,0-2.59-5.6c-1.72-1.31-4.34-2-7.84-2h-2v-7h2.17A10.25,10.25,0,0,0,116.1,67a6,6,0,0,0,2.38-4.93,4.94,4.94,0,0,0-1.92-4.27,8.47,8.47,0,0,0-5.08-1.4,11.36,11.36,0,0,0-5.77,1.47A11.59,11.59,0,0,0,101.55,62L95.67,55.4a11.11,11.11,0,0,1,2.8-2.9,19.55,19.55,0,0,1,4-2.25,24.47,24.47,0,0,1,4.8-1.46,26.64,26.64,0,0,1,5.31-.53,21.79,21.79,0,0,1,6.51.91,16.09,16.09,0,0,1,5,2.52,11.27,11.27,0,0,1,3.26,3.89,11,11,0,0,1,1.15,5.07,12.53,12.53,0,0,1-.63,4A11.42,11.42,0,0,1,126,68.07a10.92,10.92,0,0,1-2.83,2.59A9.82,9.82,0,0,1,119.6,72.06Z"/></g></svg>