<svg id="_5_pts" data-name="5 pts" xmlns="http://www.w3.org/2000/svg" xmlns:xlink="http://www.w3.org/1999/xlink" viewBox="0 0 225 225"><defs><style>.cls-1,.cls-3{stroke-miterlimit:10;}.cls-1{fill:url(#linear-gradient);stroke:url(#linear-gradient-2);}.cls-2{fill:#31d3d9;}.cls-3{fill:none;stroke:#31d3d9;stroke-width:5px;}.cls-4{fill:#fff;}</style><linearGradient id="linear-gradient" x1="112.5" y1="222.5" x2="112.5" y2="114.06" gradientUnits="userSpaceOnUse"><stop offset="0" stop-opacity="0.4"/><stop offset="1" stop-opacity="0.8"/></linearGradient><linearGradient id="linear-gradient-2" x1="2" y1="112.5" x2="223" y2="112.5" gradientUnits="userSpaceOnUse"><stop offset="0" stop-color="#fff"/><stop offset="1"/></linearGradient></defs><title>5points</title><g id="Layer_5_copy_3" data-name="Layer 5 copy 3"><circle class="cls-1" cx="112.5" cy="112.5" r="110"/></g><g id="Layer_4_copy_3" data-name="Layer 4 copy 3"><rect class="cls-2" x="34.75" y="111.5" width="155.5" height="2"/></g><g id="Layer_3_copy_3" data-name="Layer 3 copy 3"><circle class="cls-3" cx="112.5" cy="112.5" r="110"/></g><g id="Layer_2_copy_3" data-name="Layer 2 copy 3"><path class="cls-2" d="M136.38,60.74A2.85,2.85,0,0,1,134,59.63h-.1c.07.69.1,1.1.1,1.25V64.2h-1.72V52.49h1.39c0,.15.12.51.24,1.09H134a2.7,2.7,0,0,1,2.42-1.23,2.8,2.8,0,0,1,2.36,1.09,5,5,0,0,1,.85,3.09,5,5,0,0,1-.86,3.1A2.86,2.86,0,0,1,136.38,60.74Zm-.42-7a1.81,1.81,0,0,0-1.5.6,3.15,3.15,0,0,0-.47,1.92v.26a3.81,3.81,0,0,0,.47,2.14,1.74,1.74,0,0,0,1.53.66,1.55,1.55,0,0,0,1.38-.73,3.8,3.8,0,0,0,.48-2.09,3.65,3.65,0,0,0-.48-2.06A1.62,1.62,0,0,0,136,53.75Z"/><path class="cls-2" d="M144.63,59.35a4.25,4.25,0,0,0,1.26-.2v1.3a3.85,3.85,0,0,1-.73.21,5.67,5.67,0,0,1-.94.08c-1.63,0-2.44-.86-2.44-2.58V53.8h-1.11V53l1.19-.63.59-1.71h1.06v1.8h2.3V53.8h-2.3v4.33a1.2,1.2,0,0,0,.31.92A1.13,1.13,0,0,0,144.63,59.35Z"/><path class="cls-2" d="M153,58.29a2.12,2.12,0,0,1-.87,1.82,4.15,4.15,0,0,1-2.47.63,5.79,5.79,0,0,1-2.6-.49V58.76a6.33,6.33,0,0,0,2.65.66q1.59,0,1.59-1a.75.75,0,0,0-.17-.51,2.12,2.12,0,0,0-.58-.43,10.32,10.32,0,0,0-1.12-.49,5.18,5.18,0,0,1-1.89-1.09,2,2,0,0,1-.5-1.4,1.84,1.84,0,0,1,.84-1.62,4,4,0,0,1,2.28-.57,6.54,6.54,0,0,1,2.7.57l-.55,1.3a6.06,6.06,0,0,0-2.21-.54c-.91,0-1.36.26-1.36.78a.78.78,0,0,0,.36.64,7.45,7.45,0,0,0,1.54.73,6.38,6.38,0,0,1,1.46.71,2.16,2.16,0,0,1,.68.74A2.25,2.25,0,0,1,153,58.29Z"/><path class="cls-4" d="M77.12,145.45v-1.08h2.76v1.08Z"/><path class="cls-4" d="M88,146.17a1.53,1.53,0,0,1-.64,1.33,3,3,0,0,1-1.81.47,4.31,4.31,0,0,1-1.91-.36v-1.09a4.72,4.72,0,0,0,2,.48c.78,0,1.17-.23,1.17-.7a.6.6,0,0,0-.13-.38,1.65,1.65,0,0,0-.43-.31,5.72,5.72,0,0,0-.82-.36,4.08,4.08,0,0,1-1.39-.8,1.49,1.49,0,0,1-.36-1,1.38,1.38,0,0,1,.62-1.19,2.91,2.91,0,0,1,1.67-.42,4.61,4.61,0,0,1,2,.43l-.41.95a4.32,4.32,0,0,0-1.61-.4c-.67,0-1,.19-1,.57a.55.55,0,0,0,.26.47,5.29,5.29,0,0,0,1.13.53,5.32,5.32,0,0,1,1.07.52,1.52,1.52,0,0,1,.5.55A1.68,1.68,0,0,1,88,146.17Z"/><path class="cls-4" d="M94.61,147.86H93.34v-3.65a1.58,1.58,0,0,0-.28-1,1.06,1.06,0,0,0-.87-.34,1.39,1.39,0,0,0-1.17.48,2.62,2.62,0,0,0-.37,1.59v3H89.38V139.5h1.27v2.12a10.64,10.64,0,0,1-.07,1.09h.08a1.77,1.77,0,0,1,.72-.66,2.25,2.25,0,0,1,1.07-.24A1.92,1.92,0,0,1,94.61,144Z"/><path class="cls-4" d="M100.08,147.86l-.25-.83h0a2.49,2.49,0,0,1-.87.74,2.74,2.74,0,0,1-1.12.2,1.9,1.9,0,0,1-1.36-.47,1.78,1.78,0,0,1-.49-1.34,1.57,1.57,0,0,1,.68-1.39,4,4,0,0,1,2.08-.51l1,0v-.32a1.23,1.23,0,0,0-.26-.85,1.08,1.08,0,0,0-.83-.28,2.82,2.82,0,0,0-.87.13,7.18,7.18,0,0,0-.81.32l-.41-.9a4.62,4.62,0,0,1,1.06-.39,5.39,5.39,0,0,1,1.09-.13,2.58,2.58,0,0,1,1.71.5,1.94,1.94,0,0,1,.57,1.55v4ZM98.2,147a1.61,1.61,0,0,0,1.11-.38,1.43,1.43,0,0,0,.41-1.08V145l-.76,0a2.71,2.71,0,0,0-1.3.29.91.91,0,0,0-.4.82.81.81,0,0,0,.23.61A1,1,0,0,0,98.2,147Z"/><path class="cls-4" d="M105.76,141.81a2.8,2.8,0,0,1,.63.06l-.13,1.17a2.51,2.51,0,0,0-.55-.06,1.6,1.6,0,0,0-1.23.49,1.81,1.81,0,0,0-.47,1.29v3.1h-1.26v-5.94h1l.17,1.05H104a2.26,2.26,0,0,1,.77-.85A1.85,1.85,0,0,1,105.76,141.81Z"/><path class="cls-4" d="M110.08,148a2.86,2.86,0,0,1-2.16-.81,3.08,3.08,0,0,1-.79-2.23,3.35,3.35,0,0,1,.73-2.28,2.49,2.49,0,0,1,2-.84,2.43,2.43,0,0,1,1.86.72,2.69,2.69,0,0,1,.68,2v.68h-4a2,2,0,0,0,.47,1.33,1.63,1.63,0,0,0,1.24.47,4.34,4.34,0,0,0,1-.1,6,6,0,0,0,1-.33v1a4.14,4.14,0,0,1-.94.31A5.74,5.74,0,0,1,110.08,148Zm-.23-5.2a1.27,1.27,0,0,0-1,.38,1.77,1.77,0,0,0-.43,1.11h2.69a1.64,1.64,0,0,0-.35-1.11A1.2,1.2,0,0,0,109.85,142.77Z"/><path class="cls-4" d="M120.4,147.86l-.25-.83h0a2.49,2.49,0,0,1-.87.74,2.74,2.74,0,0,1-1.12.2,1.89,1.89,0,0,1-1.36-.47,1.78,1.78,0,0,1-.49-1.34,1.57,1.57,0,0,1,.68-1.39,3.93,3.93,0,0,1,2.08-.51l1,0v-.32a1.23,1.23,0,0,0-.26-.85,1.1,1.1,0,0,0-.83-.28,2.82,2.82,0,0,0-.87.13,7.18,7.18,0,0,0-.81.32l-.41-.9a4.46,4.46,0,0,1,1.06-.39,5.3,5.3,0,0,1,1.09-.13,2.58,2.58,0,0,1,1.71.5,1.94,1.94,0,0,1,.57,1.55v4Zm-1.88-.86a1.56,1.56,0,0,0,1.1-.38,1.4,1.4,0,0,0,.42-1.08V145l-.76,0a2.68,2.68,0,0,0-1.3.29.91.91,0,0,0-.4.82.77.77,0,0,0,.23.61A1,1,0,0,0,118.52,147Z"/><path class="cls-4" d="M128.94,148a2.09,2.09,0,0,1-1.76-.81h-.07c0,.5.07.8.07.91v2.43h-1.26v-8.58h1c0,.11.09.38.18.79h.06a2,2,0,0,1,1.78-.9,2.05,2.05,0,0,1,1.73.81,4.42,4.42,0,0,1,0,4.53A2.06,2.06,0,0,1,128.94,148Zm-.31-5.13a1.33,1.33,0,0,0-1.1.44,2.32,2.32,0,0,0-.35,1.41v.19a2.76,2.76,0,0,0,.35,1.57,1.29,1.29,0,0,0,1.12.49,1.14,1.14,0,0,0,1-.54,2.75,2.75,0,0,0,.36-1.53,2.61,2.61,0,0,0-.36-1.51A1.15,1.15,0,0,0,128.63,142.84Z"/><path class="cls-4" d="M138,144.88a3.22,3.22,0,0,1-.74,2.27,2.66,2.66,0,0,1-2.08.82,2.82,2.82,0,0,1-1.47-.38,2.47,2.47,0,0,1-1-1.08,3.8,3.8,0,0,1-.34-1.63,3.25,3.25,0,0,1,.74-2.26,2.7,2.7,0,0,1,2.09-.81,2.62,2.62,0,0,1,2,.83A3.23,3.23,0,0,1,138,144.88Zm-4.32,0c0,1.37.51,2.06,1.52,2.06s1.5-.69,1.5-2.06-.5-2-1.51-2a1.29,1.29,0,0,0-1.15.53A2.65,2.65,0,0,0,133.72,144.88Z"/><path class="cls-4" d="M143.48,146.17a1.55,1.55,0,0,1-.63,1.33A3,3,0,0,1,141,148a4.28,4.28,0,0,1-1.91-.36v-1.09a4.72,4.72,0,0,0,2,.48c.78,0,1.16-.23,1.16-.7a.6.6,0,0,0-.12-.38,1.65,1.65,0,0,0-.43-.31,6.28,6.28,0,0,0-.82-.36,4,4,0,0,1-1.39-.8,1.49,1.49,0,0,1-.36-1,1.37,1.37,0,0,1,.61-1.19,2.94,2.94,0,0,1,1.68-.42,4.64,4.64,0,0,1,2,.43l-.41.95a4.32,4.32,0,0,0-1.62-.4c-.66,0-1,.19-1,.57a.57.57,0,0,0,.26.47,5.73,5.73,0,0,0,1.14.53,5.61,5.61,0,0,1,1.07.52,1.49,1.49,0,0,1,.49.55A1.55,1.55,0,0,1,143.48,146.17Z"/><path class="cls-4" d="M147.06,147a3,3,0,0,0,.93-.15v.95a2.51,2.51,0,0,1-.54.16,3.85,3.85,0,0,1-.69.06c-1.19,0-1.79-.63-1.79-1.89v-3.2h-.81v-.56l.87-.46.43-1.26h.78v1.32h1.69v1h-1.69v3.18a.9.9,0,0,0,.22.67A.84.84,0,0,0,147.06,147Z"/><path class="cls-4" d="M74,158.65v-1.08h2.76v1.08Z"/><path class="cls-4" d="M86.18,158.08a3.22,3.22,0,0,1-.74,2.27,2.7,2.7,0,0,1-2.08.82,2.82,2.82,0,0,1-1.47-.38,2.47,2.47,0,0,1-1-1.08,3.8,3.8,0,0,1-.34-1.63,3.25,3.25,0,0,1,.74-2.26,2.7,2.7,0,0,1,2.09-.81,2.62,2.62,0,0,1,2,.83A3.21,3.21,0,0,1,86.18,158.08Zm-4.32,0c0,1.37.51,2.06,1.52,2.06s1.5-.69,1.5-2.06-.5-2-1.51-2a1.29,1.29,0,0,0-1.15.53A2.65,2.65,0,0,0,81.86,158.08Z"/><path class="cls-4" d="M92.86,161.06H91.59v-3.65a1.65,1.65,0,0,0-.27-1,1.1,1.1,0,0,0-.88-.34,1.37,1.37,0,0,0-1.17.48,2.57,2.57,0,0,0-.37,1.58v3H87.63v-5.94h1l.18.78h.06a1.85,1.85,0,0,1,.77-.66,2.59,2.59,0,0,1,1.09-.23,1.91,1.91,0,0,1,2.14,2.18Z"/><path class="cls-4" d="M95.88,161.06H94.62V152.7h1.26Z"/><path class="cls-4" d="M97.61,153.55a.63.63,0,0,1,.71-.71.64.64,0,0,1,.71.71.65.65,0,0,1-.19.5.67.67,0,0,1-.52.19.7.7,0,0,1-.53-.19A.68.68,0,0,1,97.61,153.55ZM99,161.06H97.68v-5.94H99Z"/><path class="cls-4" d="M106,161.06h-1.27v-3.65a1.58,1.58,0,0,0-.28-1,1.07,1.07,0,0,0-.88-.34,1.39,1.39,0,0,0-1.17.48,2.64,2.64,0,0,0-.37,1.58v3h-1.26v-5.94h1l.18.78H102a1.82,1.82,0,0,1,.76-.66,2.64,2.64,0,0,1,1.1-.23,1.91,1.91,0,0,1,2.14,2.18Z"/><path class="cls-4" d="M110.33,161.17a2.87,2.87,0,0,1-2.17-.81,3.08,3.08,0,0,1-.78-2.23,3.4,3.4,0,0,1,.72-2.29,2.54,2.54,0,0,1,2-.83,2.46,2.46,0,0,1,1.86.72,2.73,2.73,0,0,1,.68,2v.68h-4a1.93,1.93,0,0,0,.47,1.33,1.61,1.61,0,0,0,1.24.47,5.08,5.08,0,0,0,1-.1,5.86,5.86,0,0,0,1-.33v1a4.27,4.27,0,0,1-.93.32A5.89,5.89,0,0,1,110.33,161.17Zm-.23-5.2a1.26,1.26,0,0,0-1,.38,1.82,1.82,0,0,0-.43,1.11h2.7a1.64,1.64,0,0,0-.36-1.11A1.18,1.18,0,0,0,110.1,156Z"/><path class="cls-4" d="M119.94,155a2.68,2.68,0,0,1,.63.06l-.12,1.17a2.6,2.6,0,0,0-.56-.06,1.6,1.6,0,0,0-1.23.49,1.81,1.81,0,0,0-.47,1.29v3.1h-1.26v-5.94h1l.16,1h.07a2.26,2.26,0,0,1,.77-.85A1.9,1.9,0,0,1,119.94,155Z"/><path class="cls-4" d="M124.27,161.17a2.87,2.87,0,0,1-2.17-.81,3.08,3.08,0,0,1-.78-2.23,3.4,3.4,0,0,1,.72-2.29,2.54,2.54,0,0,1,2-.83,2.42,2.42,0,0,1,1.85.72,2.69,2.69,0,0,1,.69,2v.68h-4a1.92,1.92,0,0,0,.46,1.33,1.64,1.64,0,0,0,1.24.47,4.92,4.92,0,0,0,1-.1,5.65,5.65,0,0,0,1-.33v1a4.27,4.27,0,0,1-.93.32A5.89,5.89,0,0,1,124.27,161.17ZM124,156a1.24,1.24,0,0,0-1,.38,1.77,1.77,0,0,0-.43,1.11h2.69a1.59,1.59,0,0,0-.35-1.11A1.18,1.18,0,0,0,124,156Z"/><path class="cls-4" d="M129.36,161.06l-2.25-5.94h1.33l1.21,3.45A6.43,6.43,0,0,1,130,160h0a8.69,8.69,0,0,1,.37-1.41l1.21-3.45H133l-2.26,5.94Z"/><path class="cls-4" d="M133.82,153.55A.7.7,0,0,1,134,153a.72.72,0,0,1,.53-.18.69.69,0,0,1,.51.18.7.7,0,0,1,.19.53.65.65,0,0,1-.19.5.66.66,0,0,1-.51.19.69.69,0,0,1-.53-.19A.65.65,0,0,1,133.82,153.55Zm1.34,7.51H133.9v-5.94h1.26Z"/><path class="cls-4" d="M139.56,161.17a2.87,2.87,0,0,1-2.17-.81,3.08,3.08,0,0,1-.78-2.23,3.4,3.4,0,0,1,.72-2.29,2.54,2.54,0,0,1,2-.83,2.42,2.42,0,0,1,1.85.72,2.69,2.69,0,0,1,.69,2v.68h-4a1.93,1.93,0,0,0,.47,1.33,1.61,1.61,0,0,0,1.24.47,5.08,5.08,0,0,0,1-.1,5.86,5.86,0,0,0,1-.33v1a4.27,4.27,0,0,1-.93.32A5.89,5.89,0,0,1,139.56,161.17Zm-.23-5.2a1.24,1.24,0,0,0-1,.38,1.82,1.82,0,0,0-.43,1.11h2.7a1.64,1.64,0,0,0-.36-1.11A1.18,1.18,0,0,0,139.33,156Z"/><path class="cls-4" d="M148.17,161.06l-.77-2.77c-.09-.3-.26-1-.5-2h-.05c-.21,1-.37,1.65-.49,2.06l-.79,2.76h-1.4l-1.66-5.94h1.28l.76,2.93c.17.72.3,1.34.37,1.86h0c0-.27.09-.57.16-.91s.14-.59.19-.75l.91-3.13h1.38l.88,3.13c.05.17.12.44.2.8a5.54,5.54,0,0,1,.14.84h0a17.37,17.37,0,0,1,.38-1.84l.77-2.93h1.27l-1.68,5.94Z"/></g><g id="Layer_1_copy_3" data-name="Layer 1 copy 3"><path class="cls-2" d="M113.31,66.25a18,18,0,0,1,6.51,1.16A15.57,15.57,0,0,1,125,70.66a14.69,14.69,0,0,1,3.43,5,16.71,16.71,0,0,1,1.23,6.51,16.43,16.43,0,0,1-1.4,6.86,15.89,15.89,0,0,1-3.85,5.28,17.5,17.5,0,0,1-5.82,3.44A21.21,21.21,0,0,1,111.35,99a20.34,20.34,0,0,1-9.77-2.31A15.91,15.91,0,0,1,95,90.4l5.39-5.6a15.27,15.27,0,0,0,4.93,4.34,12.39,12.39,0,0,0,6.06,1.61,8.68,8.68,0,0,0,6.19-2.27A8,8,0,0,0,120,82.42a7.74,7.74,0,0,0-8-8.12,9.12,9.12,0,0,0-4.31,1,8.4,8.4,0,0,0-3.18,2.87H96.3a14.1,14.1,0,0,1,.28-1.57c.18-.92.42-2.08.7-3.5s.58-3,.91-4.76.67-3.54,1-5.36q1.26-6.44,2.8-14.42h24.5v8.54H108.83l-2,11.13a5.8,5.8,0,0,1,2.45-1.47A12.33,12.33,0,0,1,113.31,66.25Z"/></g></svg>