<svg id="Layer_1" data-name="Layer 1" xmlns="http://www.w3.org/2000/svg" xmlns:xlink="http://www.w3.org/1999/xlink" viewBox="0 0 333.92 152.34"><defs><style>.cls-1{fill:#fff;}.cls-2{fill:url(#radial-gradient);}</style><radialGradient id="radial-gradient" cx="76.38" cy="76.17" r="76.27" gradientUnits="userSpaceOnUse"><stop offset="0" stop-color="#231f20"/><stop offset="0.29" stop-color="#292728"/><stop offset="0.38" stop-color="#2b2a2b"/><stop offset="0.44" stop-color="#2f393b"/><stop offset="0.57" stop-color="#386064"/><stop offset="0.74" stop-color="#479ea6"/><stop offset="0.84" stop-color="#50c3cd"/><stop offset="1" stop-color="#50c3cd"/></radialGradient></defs><title>logo with tagline</title><path class="cls-1" d="M169.4,66h1.76L174,89.17h.71c.12.07.17.14.17.21s-.06.13-.17.21h-4.78a.16.16,0,0,1-.13-.06.22.22,0,0,1,0-.15.22.22,0,0,1,0-.15.16.16,0,0,1,.13-.05h.76l-.41-4.51h-2.91L167,87.22c0,.14,0,.28,0,.43a1.78,1.78,0,0,0,.26,1.05,1.09,1.09,0,0,0,.72.44l.25.08a.22.22,0,0,1,.06.16.2.2,0,0,1-.06.15.18.18,0,0,1-.13.06h-2.71a.18.18,0,0,1-.14-.06.2.2,0,0,1-.06-.15.26.26,0,0,1,0-.16l.19-.06a1,1,0,0,0,.71-.41,4.33,4.33,0,0,0,.54-1.84ZM169,72l-1.58,12.28h2.79Z"/><path class="cls-1" d="M184.42,67.68a2.14,2.14,0,0,0-.19-1,1,1,0,0,0-.59-.44l-.68-.06c-.05,0-.08-.08-.08-.18a.3.3,0,0,1,0-.18s.09,0,.2,0h2.81a.12.12,0,0,1,.1.06.23.23,0,0,1,0,.13.16.16,0,0,1,0,.12,1.17,1.17,0,0,1-.28.13,1.32,1.32,0,0,0-.68.5,2.7,2.7,0,0,0-.24,1.15V89.58h-2.45l-4-21.74V87.52a2.6,2.6,0,0,0,.17,1.13.94.94,0,0,0,.57.45l.71.06a.22.22,0,0,1,.08.2.26.26,0,0,1,0,.17.3.3,0,0,1-.2,0h-2.8a.13.13,0,0,1-.1,0,.18.18,0,0,1,0-.12.15.15,0,0,1,0-.11,1.17,1.17,0,0,1,.28-.13,1.3,1.3,0,0,0,.67-.49A2.84,2.84,0,0,0,178,87.5V66.13h-.89a.18.18,0,0,1-.13-.06.22.22,0,0,1-.06-.16.2.2,0,0,1,.06-.14.18.18,0,0,1,.13-.06h4.1l3.22,17.47Z"/><path class="cls-1" d="M195.73,67.68a2.14,2.14,0,0,0-.19-1,1,1,0,0,0-.59-.44l-.68-.06c-.05,0-.08-.08-.08-.18a.3.3,0,0,1,0-.18s.09,0,.2,0h2.81a.12.12,0,0,1,.1.06.23.23,0,0,1,0,.13.16.16,0,0,1,0,.12,1.16,1.16,0,0,1-.28.13,1.32,1.32,0,0,0-.68.5,2.69,2.69,0,0,0-.24,1.15V89.58h-2.45l-4-21.74V87.52a2.61,2.61,0,0,0,.17,1.13.94.94,0,0,0,.57.45l.71.06a.22.22,0,0,1,.08.2.26.26,0,0,1,0,.17.3.3,0,0,1-.2,0h-2.8a.13.13,0,0,1-.1,0,.18.18,0,0,1,0-.12.15.15,0,0,1,0-.11,1.15,1.15,0,0,1,.28-.13,1.3,1.3,0,0,0,.67-.49,2.84,2.84,0,0,0,.23-1.17V66.13h-.89a.18.18,0,0,1-.13-.06.22.22,0,0,1-.06-.16.2.2,0,0,1,.06-.14.18.18,0,0,1,.13-.06h4.1l3.22,17.47Z"/><path class="cls-1" d="M203.34,66h1.76l2.83,23.12h.71c.12.07.17.14.17.21s-.06.13-.17.21h-4.78a.16.16,0,0,1-.13-.06.22.22,0,0,1,0-.15.22.22,0,0,1,0-.15.16.16,0,0,1,.13-.05h.76l-.41-4.51H201.3L201,87.22c0,.14,0,.28,0,.43a1.78,1.78,0,0,0,.26,1.05,1.09,1.09,0,0,0,.72.44l.25.08a.22.22,0,0,1,.06.16.2.2,0,0,1-.06.15.18.18,0,0,1-.13.06h-2.71a.18.18,0,0,1-.14-.06.2.2,0,0,1-.06-.15.26.26,0,0,1,0-.16l.19-.06a1,1,0,0,0,.71-.41,4.33,4.33,0,0,0,.54-1.84Zm-.4,5.92-1.58,12.28h2.79Z"/><path class="cls-1" d="M218.74,88.2a8.58,8.58,0,0,0-1.1.94q-.56.56-.69.56a.09.09,0,0,1-.08,0,.42.42,0,0,1,0-.21v-10a.14.14,0,0,1,0-.1.12.12,0,0,1,.09,0,.18.18,0,0,1,.14.09.51.51,0,0,1,.11.32v.68a19.32,19.32,0,0,0,.62,4.52,8.26,8.26,0,0,0,1.62,3.62,1.5,1.5,0,0,0,1.14.54,1.63,1.63,0,0,0,1.3-.71,3.42,3.42,0,0,0,.56-2.13,9.15,9.15,0,0,0-.51-2.89,52.81,52.81,0,0,0-3-6.51,29.94,29.94,0,0,1-1.82-4,8.1,8.1,0,0,1-.39-2.42,5.52,5.52,0,0,1,1.1-3.65,3.23,3.23,0,0,1,2.52-1.32,2.73,2.73,0,0,1,2.17,1.29,8.92,8.92,0,0,0,1.54-1.06q.24-.22.32-.22a.09.09,0,0,1,.06,0,.57.57,0,0,1,0,.22v8.62a.46.46,0,0,1-.08.29.16.16,0,0,1-.13.06.16.16,0,0,1-.15-.08,7.69,7.69,0,0,1-.19-1.14q-.65-4.94-1.72-6.54a1.77,1.77,0,0,0-1.43-.92,1.31,1.31,0,0,0-1,.54,2.46,2.46,0,0,0-.44,1.59q0,1.89,2.16,6.2l1.4,2.81a28.24,28.24,0,0,1,1.92,4.61,11.49,11.49,0,0,1,.48,3.05,5.43,5.43,0,0,1-1.16,3.68,3.5,3.5,0,0,1-2.71,1.33A3,3,0,0,1,218.74,88.2Z"/><path class="cls-1" d="M230.94,66.13h-.34a.89.89,0,0,0-.61.22,3.47,3.47,0,0,0-.75,1.47,30,30,0,0,0-1,4.37,27.76,27.76,0,0,0-.41,3.22v.36a.3.3,0,0,1-.06.2.18.18,0,0,1-.14.07.16.16,0,0,1-.14-.06.32.32,0,0,1-.08-.21V65.71h10.3V75.79a.27.27,0,0,1-.06.18.2.2,0,0,1-.15.07.18.18,0,0,1-.14-.07.27.27,0,0,1-.06-.18v-.62a22.71,22.71,0,0,0-.45-3.37,28.19,28.19,0,0,0-1-4.15,3.87,3.87,0,0,0-.63-1.3.73.73,0,0,0-.47-.22h-.51v23h1.24c.12.07.17.14.17.21s-.06.13-.17.21h-5.87a.16.16,0,0,1-.13-.06.22.22,0,0,1,0-.15.23.23,0,0,1,0-.15.16.16,0,0,1,.13-.05h1.38Z"/><path class="cls-1" d="M242.94,77.74l-2.6-11.62h-.63a.16.16,0,0,1-.13-.05.23.23,0,0,1,0-.15.22.22,0,0,1,0-.16.17.17,0,0,1,.13,0h5.16q.18.11.17.19c0,.07-.06.15-.17.22h-1.27L246,77l1.85-8.44a3.91,3.91,0,0,0,.11-.89,2.16,2.16,0,0,0-.19-1,1,1,0,0,0-.52-.5l-.52-.06a.18.18,0,0,1-.09-.17c0-.07.06-.14.17-.21h2.57a.62.62,0,0,1,.24,0l0,.08c0,.07-.06.15-.19.24a2.63,2.63,0,0,0-1.1,1.83l-2.21,9.85V89.17h1.25a.19.19,0,0,1,.13.05.21.21,0,0,1,.06.15.2.2,0,0,1-.06.15.18.18,0,0,1-.13.06h-5.86a.16.16,0,0,1-.13-.06.23.23,0,0,1,0-.15.23.23,0,0,1,0-.15.16.16,0,0,1,.13-.05h1.32Z"/><path class="cls-1" d="M252.51,66.13h-1c-.12-.08-.17-.14-.17-.2s.06-.14.17-.21h5.28a.18.18,0,0,1,.14.06.2.2,0,0,1,.05.14.22.22,0,0,1-.05.16.18.18,0,0,1-.14.06h-1v23h.67a2,2,0,0,0,1.25-.41,4,4,0,0,0,1-1.67A18.72,18.72,0,0,0,259.81,83q.34-2.21.36-2.83a.64.64,0,0,1,.06-.29l.13,0,.13,0a.2.2,0,0,1,.06.14l-.13,9.55h-8.92a.18.18,0,0,1-.13-.06.2.2,0,0,1-.06-.15.21.21,0,0,1,.06-.15.19.19,0,0,1,.14-.05h1Z"/><path class="cls-1" d="M263.72,66.13h-1c-.11-.08-.16-.14-.16-.2s.05-.15.16-.21h9v8.84c-.06.11-.13.16-.19.16a.15.15,0,0,1-.13-.06,1.36,1.36,0,0,1-.06-.45,18.9,18.9,0,0,0-.83-4.89,7.12,7.12,0,0,0-1.38-2.87,1.74,1.74,0,0,0-1.17-.32h-1V77.28a2,2,0,0,0,1.48-1,6.57,6.57,0,0,0,.76-3.55V71.54a.18.18,0,0,1,.06-.13.18.18,0,0,1,.13-.06.16.16,0,0,1,.13.06.2.2,0,0,1,0,.13V83.33a.2.2,0,0,1,0,.13.16.16,0,0,1-.13.05.18.18,0,0,1-.13-.05.18.18,0,0,1-.06-.13V82.19a7,7,0,0,0-.86-3.73q-.51-.79-1.06-.79a.27.27,0,0,0-.22.1.53.53,0,0,0-.1.35V89.17h.51a2.11,2.11,0,0,0,1.29-.48A4.44,4.44,0,0,0,270,87a12.21,12.21,0,0,0,.86-2.61,18.14,18.14,0,0,0,.49-3.57v-1c.07-.12.14-.17.21-.17a.22.22,0,0,1,.15,0,.16.16,0,0,1,.06.13v9.81h-9a.24.24,0,0,1-.17-.06.2.2,0,0,1-.06-.14.19.19,0,0,1,.06-.15.26.26,0,0,1,.17-.05h1Z"/><path class="cls-1" d="M276.12,88.2a8.65,8.65,0,0,0-1.1.94q-.56.56-.69.56a.09.09,0,0,1-.08,0,.42.42,0,0,1,0-.21v-10a.14.14,0,0,1,0-.1.12.12,0,0,1,.09,0,.18.18,0,0,1,.14.09.51.51,0,0,1,.11.32v.68a19.37,19.37,0,0,0,.62,4.52,8.25,8.25,0,0,0,1.62,3.62,1.5,1.5,0,0,0,1.14.54,1.62,1.62,0,0,0,1.3-.71,3.42,3.42,0,0,0,.56-2.13,9.13,9.13,0,0,0-.51-2.89,52.83,52.83,0,0,0-3-6.51,30,30,0,0,1-1.82-4,8.08,8.08,0,0,1-.39-2.42,5.52,5.52,0,0,1,1.1-3.65,3.23,3.23,0,0,1,2.52-1.32A2.73,2.73,0,0,1,280,66.74a8.92,8.92,0,0,0,1.54-1.06c.16-.15.27-.22.32-.22a.09.09,0,0,1,.06,0,.55.55,0,0,1,0,.22v8.62a.46.46,0,0,1-.08.29.16.16,0,0,1-.13.06.16.16,0,0,1-.15-.08,7.7,7.7,0,0,1-.19-1.14q-.65-4.94-1.72-6.54A1.77,1.77,0,0,0,278.2,66a1.31,1.31,0,0,0-1,.54,2.45,2.45,0,0,0-.44,1.59q0,1.89,2.16,6.2l1.4,2.81a28.18,28.18,0,0,1,1.92,4.61,11.5,11.5,0,0,1,.48,3.05,5.43,5.43,0,0,1-1.16,3.68,3.5,3.5,0,0,1-2.71,1.33A3,3,0,0,1,276.12,88.2Z"/><path class="cls-1" d="M291.78,89.17v-23h-1c-.12-.08-.17-.15-.17-.21s.06-.12.17-.2h4.81c.12.08.17.14.17.2s-.06.14-.17.21H295V77h2V66.13h-.67c-.12-.08-.17-.15-.17-.21s.06-.13.17-.2h4.9c.12.08.17.14.17.2s-.06.14-.17.21h-1v23h1a.22.22,0,0,1,.14.05.19.19,0,0,1,.06.15.19.19,0,0,1-.06.15.21.21,0,0,1-.14.06h-4.75a.18.18,0,0,1-.13-.06.2.2,0,0,1-.05-.15.2.2,0,0,1,.05-.15.19.19,0,0,1,.13-.05h.51V77.36h-2V89.17h.61a.18.18,0,0,1,.13.05.21.21,0,0,1,.05.15.2.2,0,0,1-.06.15.18.18,0,0,1-.13.06h-4.91c-.12-.07-.17-.14-.17-.21s.06-.13.17-.21Z"/><path class="cls-1" d="M307.43,66h1.76L312,89.17h.71c.12.07.17.14.17.21s-.06.13-.17.21H308a.16.16,0,0,1-.13-.06.23.23,0,0,1,0-.15.23.23,0,0,1,0-.15.16.16,0,0,1,.13-.05h.76l-.41-4.51H305.4l-.33,2.56c0,.14,0,.28,0,.43a1.77,1.77,0,0,0,.26,1.05,1.08,1.08,0,0,0,.72.44l.25.08a.22.22,0,0,1,.06.16.2.2,0,0,1-.06.15.18.18,0,0,1-.13.06h-2.71a.18.18,0,0,1-.13-.06.2.2,0,0,1-.06-.15.26.26,0,0,1,0-.16l.19-.06a1,1,0,0,0,.71-.41,4.34,4.34,0,0,0,.54-1.84ZM307,72l-1.58,12.28h2.79Z"/><path class="cls-1" d="M316,66.13h-1a.15.15,0,0,1-.13-.06.21.21,0,0,1,0-.14.24.24,0,0,1,0-.16.16.16,0,0,1,.13-.06h5.16a.18.18,0,0,1,.13.06.2.2,0,0,1,.06.14.21.21,0,0,1-.06.16.18.18,0,0,1-.13.06h-1v23h1c.11.07.16.14.16.21s-.05.14-.16.21h-5.28c-.12-.07-.17-.14-.17-.21s.06-.13.17-.21H316Z"/><path class="cls-1" d="M323.33,66.13h-.94c-.12-.07-.17-.14-.17-.21s.06-.13.17-.2h5a4.13,4.13,0,0,1,3.22,1.58A6.38,6.38,0,0,1,332,71.6a7.06,7.06,0,0,1-.52,2.79,5,5,0,0,1-1.55,2,6.87,6.87,0,0,1-1.91.92,7.56,7.56,0,0,1,2,.83,4.23,4.23,0,0,1,1.42,1.6,5.46,5.46,0,0,1,.46,2.43V88a.91.91,0,0,0,.13.55.41.41,0,0,0,.33.16.7.7,0,0,0,.57-.39,5.11,5.11,0,0,0,.52-2.27.74.74,0,0,1,.09-.38.19.19,0,0,1,.15-.09.18.18,0,0,1,.16.11,1,1,0,0,1,.08.47,4,4,0,0,1-.85,2.71,2.72,2.72,0,0,1-2.13,1,2.34,2.34,0,0,1-1.72-.59,2.26,2.26,0,0,1-.58-1.67V79.17a1.64,1.64,0,0,0-.54-1.44,3.28,3.28,0,0,0-1.48-.21V89.17h.78a.29.29,0,0,1,.2.06.19.19,0,0,1,.07.14.19.19,0,0,1-.07.14.29.29,0,0,1-.2.06h-5a.23.23,0,0,1-.16-.06.19.19,0,0,1-.06-.15.19.19,0,0,1,.06-.15.24.24,0,0,1,.16-.05h.94Zm3.29,0v11h.77a1.16,1.16,0,0,0,.9-.38,1.6,1.6,0,0,0,.35-1.11V67.38a1.45,1.45,0,0,0-.25-1,1.36,1.36,0,0,0-1-.27Z"/><path class="cls-1" d="M67,96.13H57.42v-.88H59.8l-2-9.48H51.09q-1.45,7.15-1.45,7.75,0,1.73,1.84,1.73h1.33v.88H45.28v-.88H46q2.13,0,2.72-3l6.78-33.65h1.11l8,36.6H67ZM57.59,84.92,54.33,69.62,51.26,84.92Z"/><path class="cls-1" d="M81,69.28A17.23,17.23,0,0,0,78.63,62a4.76,4.76,0,0,0-3.94-2.47,3.08,3.08,0,0,0-2.52,1.33,5.58,5.58,0,0,0-1,3.49,9.82,9.82,0,0,0,1,4.51,26.47,26.47,0,0,0,4,5.31A38.82,38.82,0,0,1,82,81.88a13.45,13.45,0,0,1,1.65,6.27,8.43,8.43,0,0,1-2.23,6,8.08,8.08,0,0,1-6.2,2.38,6.7,6.7,0,0,1-4.28-1.73,2.47,2.47,0,0,0-1.16-.71q-1.48,0-1.65,2h-.85V84.61h.85a17.65,17.65,0,0,0,2.67,8.2q2,2.87,4.48,2.87a3.72,3.72,0,0,0,3.06-1.33,5.9,5.9,0,0,0,1.08-3.8A11.22,11.22,0,0,0,78,85.17a32.3,32.3,0,0,0-4.9-6.36,29.79,29.79,0,0,1-4.52-5.92,10.7,10.7,0,0,1-1.4-5.12,9.7,9.7,0,0,1,2.13-6.71,6.9,6.9,0,0,1,5.36-2.37A7.52,7.52,0,0,1,78.54,60a3.2,3.2,0,0,0,1.36.63q1.05,0,1.05-1.28v-.2h.88V69.28Z"/><path class="cls-1" d="M104.32,96.13H95v-.88h2V76H90.42V95.25h2v.88H83.1v-.88H85.6V60H83.1v-.88h9.36V60h-2V75.16H97V60H95v-.88h9.36V60H101.8V95.25h2.52Z"/><path class="cls-2" d="M82.09,122.74l.24,0a1.7,1.7,0,0,1,.23,3.39l-.23,0a1.71,1.71,0,0,1-1.68-1.48A1.69,1.69,0,0,1,82.09,122.74ZM84,119.46a1.55,1.55,0,0,0,1.51,1.21,1.54,1.54,0,0,0,0-3.08,1.49,1.49,0,0,0-.34,0A1.54,1.54,0,0,0,84,119.46Zm7.58-83a1.55,1.55,0,1,0-.54-.11A1.55,1.55,0,0,0,91.56,36.42Zm2.23,82.07a1.54,1.54,0,0,0-.6-3,1.56,1.56,0,0,0-.6.12,1.54,1.54,0,0,0-.81,2,1.52,1.52,0,0,0,1.09.89A1.59,1.59,0,0,0,93.79,118.5ZM88,20.88a1.65,1.65,0,0,0,.43.05A2,2,0,0,0,88.84,17a2,2,0,0,0-.43,0,1.93,1.93,0,0,0-1.9,1.53A2,2,0,0,0,88,20.88Zm.62-9.35a2.28,2.28,0,0,0,.43,0,2.21,2.21,0,0,0,.42-4.38,2.14,2.14,0,0,0-.43,0,2.21,2.21,0,0,0-.42,4.39ZM82.49,24.95h.25A1.87,1.87,0,0,0,83,21.25l-.24,0a1.87,1.87,0,0,0-.24,3.72Zm-7.9,5.46h0a1.54,1.54,0,0,0,0,3.08h0a1.54,1.54,0,0,0-.05-3.08Zm2.32,91.33h0a1.54,1.54,0,0,0,0-3.08h0a1.54,1.54,0,0,0,0,3.08Zm1.82-92.67a1.7,1.7,0,0,0,.11-3.4h-.1a1.7,1.7,0,0,0-.11,3.4ZM77,15.63a2,2,0,0,0,0,3.94h0a2,2,0,0,0,2-1.93,2,2,0,0,0-1.93-2ZM81.18,4.91A2.46,2.46,0,0,0,81.69,0l-.27,0H81.3a2.46,2.46,0,0,0-.11,4.91Zm1.4,6.68a2.09,2.09,0,0,0-.21,4.18h.22a2.09,2.09,0,0,0,.22-4.17Zm.9,19.47-.26,0A1.54,1.54,0,0,0,83,34.1l.26,0a1.54,1.54,0,0,0,.26-3.06Zm28.21-12.77a2.21,2.21,0,0,0,1.84,3.44,2.21,2.21,0,1,0,0-4.43A2.21,2.21,0,0,0,111.69,18.29Zm-3-5.43a2.45,2.45,0,0,0,1.13.28,2.46,2.46,0,1,0-1.13-.28Zm6.06,16.75a2.07,2.07,0,0,0,1.34.48,2.09,2.09,0,1,0-1.34-.48Zm7.53-3.19a2.22,2.22,0,0,0,0,3.14,2.23,2.23,0,0,0,3.14,0,2.24,2.24,0,0,0,0-3.14,2.22,2.22,0,0,0-3.14,0Zm-1.92-5.92a2.44,2.44,0,0,0,1.54.54,2.46,2.46,0,1,0,0-4.92,2.46,2.46,0,0,0-1.53,4.38Zm-28.78,104a1.7,1.7,0,0,0-.52-3.32,1.73,1.73,0,0,0-.53.09,1.69,1.69,0,0,0,.18,3.27A1.67,1.67,0,0,0,91.57,124.49ZM116.64,34.2a2,2,0,0,0-.05,2.78h0a2,2,0,0,0,2.84-2.73,2,2,0,0,0-2.78-.07ZM88.53,130.14a2,2,0,0,0,.83,0v0a1.86,1.86,0,1,0-.91-3.6h0a1.87,1.87,0,0,0,.07,3.64Zm-.35-99.54a1.73,1.73,0,0,0,1.64-1.27,1.7,1.7,0,1,0-2.09,1.21A1.72,1.72,0,0,0,88.19,30.59Zm4.15-3.35a1.88,1.88,0,0,0,.59.1,1.86,1.86,0,0,0,1.77-1.26,1.88,1.88,0,0,0-1.17-2.38,1.83,1.83,0,0,0-.59-.1,1.87,1.87,0,0,0-1.77,1.27A1.85,1.85,0,0,0,92.33,27.25Zm8.61-12a2.13,2.13,0,0,0,.85.17,2.21,2.21,0,0,0,2-1.36,2.22,2.22,0,1,0-4.09-1.69A2.21,2.21,0,0,0,100.94,15.27ZM97.5,21.75a2,2,0,0,0,1,2.6,2.14,2.14,0,0,0,.79.16,2,2,0,0,0,.8-3.77,2,2,0,0,0-.79-.17A2,2,0,0,0,97.5,21.75ZM94,18.21a2.11,2.11,0,0,0,.63.09,2.09,2.09,0,0,0,0-4.18A2.09,2.09,0,0,0,94,18.21Zm10.94,4.67a2,2,0,0,0,1,.26,2.09,2.09,0,0,0,1-3.92,2.09,2.09,0,1,0-2,3.66ZM28.13,65.3a1.67,1.67,0,0,0,.43.05A1.7,1.7,0,0,0,29,62a1.68,1.68,0,0,0-.43-.05,1.7,1.7,0,0,0-.44,3.35Zm-.3,36.28a1.85,1.85,0,0,0,.83-.2,1.87,1.87,0,0,0,.85-2.49h0a1.86,1.86,0,1,0-3.33,1.64A1.84,1.84,0,0,0,27.83,101.58ZM26.71,44.14a1.89,1.89,0,0,0,1.13.35,2,2,0,1,0-1.13-.35Zm.68,40.22h.22a1.71,1.71,0,0,0,1.46-1.92h0A1.68,1.68,0,0,0,27.4,81l-.24,0a1.7,1.7,0,0,0,.24,3.39ZM25.34,73a1.7,1.7,0,0,0,1.6,1.8H27a1.7,1.7,0,0,0,.11-3.4H27A1.7,1.7,0,0,0,25.34,73Zm2.35-35.15a2.12,2.12,0,0,0,1.6-.75,2.1,2.1,0,0,0-.26-3,2.09,2.09,0,0,0-2.94.26,2.09,2.09,0,0,0,1.6,3.44Zm5.67,72.63a1.88,1.88,0,0,0,1.14-.38,1.86,1.86,0,1,0-2.63-.34A1.89,1.89,0,0,0,33.36,110.47Zm-1.1-43.41A1.54,1.54,0,0,0,32,70.12l.26,0a1.54,1.54,0,0,0,.26-3.06Zm.87-7.35a1.55,1.55,0,0,0,.88,2,1.61,1.61,0,0,0,.55.11,1.56,1.56,0,0,0,1.44-1,1.54,1.54,0,0,0-2.87-1.1Zm1.94,40.1a1.7,1.7,0,1,0-1.45,2.56,1.7,1.7,0,0,0,1.45-2.56ZM32.7,87.35a1.55,1.55,0,0,0,1.51-1.88,1.57,1.57,0,0,0-1.52-1.21,1.53,1.53,0,0,0-.33,0,1.54,1.54,0,0,0,.34,3Zm-1-8.58a1.52,1.52,0,0,0,1.5-1.58h0a1.54,1.54,0,0,0-1.54-1.5h0a1.54,1.54,0,0,0,0,3.07Zm28-42.94A1.52,1.52,0,0,0,58.49,35l-.25,0a1.51,1.51,0,0,0-.67.15,1.54,1.54,0,1,0,2.05.7ZM68,121.09l.26,0a1.54,1.54,0,0,0,.27-3.06l-.26,0a1.54,1.54,0,0,0-.27,3.06Zm2.84-93.61A1.69,1.69,0,0,0,69.18,26l-.24,0a1.7,1.7,0,0,0,.24,3.39h.22A1.71,1.71,0,0,0,70.86,27.48ZM67.72,5.25H68A2.46,2.46,0,0,0,67.72.32h-.26a2.46,2.46,0,0,0,.26,4.91Zm2.11,6.5h-.24a2.1,2.1,0,1,0,2.33,1.82,2.09,2.09,0,0,0-1.75-1.81Zm-6.41,7.61A2,2,0,1,0,65.66,17l-.29,0a2.37,2.37,0,0,0-.43,0A2,2,0,0,0,63.42,19.36Zm5.11,111.55h.23a1.86,1.86,0,0,0,.25-3.71l-.25,0a1.87,1.87,0,0,0-.24,3.72Zm-5.65-6a1.7,1.7,0,1,0-1.21-2.07A1.71,1.71,0,0,0,62.89,124.91Zm-4.7-107a2.09,2.09,0,1,0,0-4.18,2.13,2.13,0,0,0-.59.09,2.09,2.09,0,0,0,.59,4.09Zm5.5,6.61a1.86,1.86,0,0,0-1.5-1.29l-.29,0a2.05,2.05,0,0,0-.55.08h0a1.86,1.86,0,1,0,1.1,3.55h0A1.87,1.87,0,0,0,63.7,24.52ZM62.48,11.57a2.26,2.26,0,0,0,.43,0,2.24,2.24,0,1,0-.43,0Zm-3.1,107.14a1.68,1.68,0,0,0,.55.11,1.56,1.56,0,0,0,1.44-1,1.54,1.54,0,1,0-2,.89ZM61.66,30a1.7,1.7,0,0,0-1.32-1.06l-.29,0a1.58,1.58,0,0,0-.59.11,1.7,1.7,0,1,0,2.2,1ZM75.18,10.35A2.21,2.21,0,0,0,75.44,6a2.54,2.54,0,0,0-.37,0H75a2.21,2.21,0,1,0,.18,4.43ZM53.85,19.72a2,2,0,0,0-1.13,2.55,2,2,0,0,0,1.84,1.26,1.93,1.93,0,0,0,.71-.13h0a2,2,0,0,0-.7-3.8A2,2,0,0,0,53.85,19.72Zm92.23,36.64a2.91,2.91,0,0,0,.75-.11,2.47,2.47,0,0,0,1.6-3.1,2.44,2.44,0,0,0-2.34-1.72,2.49,2.49,0,0,0-.75.11,2.46,2.46,0,0,0,.73,4.8Zm-22.7-21.2a2.1,2.1,0,0,0-.31,2.94,2.08,2.08,0,0,0,1.63.79,2.12,2.12,0,0,0,1.31-.46,2.1,2.1,0,0,0-1.32-3.73A2.1,2.1,0,0,0,123.38,35.16Zm5.06,20.43a2,2,0,1,0,1.84-2.68,1.93,1.93,0,0,0-.71.14,2,2,0,0,0-1.12,2.55Zm10.17-3.32a2.52,2.52,0,0,0,.85-.17,2.22,2.22,0,0,0-1.71-4.1,2.21,2.21,0,0,0-1.19,2.89A2.23,2.23,0,0,0,138.61,52.26ZM134,59.1a2.1,2.1,0,0,0,2,1.51,1.83,1.83,0,0,0,.59-.09,2.09,2.09,0,0,0-.58-4.1,2,2,0,0,0-.58.09A2.1,2.1,0,0,0,134,59.1Zm6.39-16a2.36,2.36,0,0,0,1.18-.3,2.48,2.48,0,0,0,1-3.35h0a2.46,2.46,0,0,0-2.15-1.28,2.42,2.42,0,0,0-1.18.31,2.46,2.46,0,0,0,1.18,4.62ZM127.06,63.86h0a1.87,1.87,0,0,0,3.64,0,2,2,0,0,0,0-.84h0a1.86,1.86,0,1,0-3.61.89Zm3.27-33.6a2.42,2.42,0,0,0,1.89.88,2.46,2.46,0,1,0,0-4.92,2.46,2.46,0,0,0-1.88,4ZM98,37.93a1.54,1.54,0,0,0,.47,2.13,1.57,1.57,0,0,0,.83.24,1.51,1.51,0,0,0,1.3-.72,1.54,1.54,0,0,0-.49-2.13,1.53,1.53,0,0,0-2.11.49Zm-.12-7.23a1.67,1.67,0,0,0-.75-.18,1.7,1.7,0,0,0-.74,3.24,1.63,1.63,0,0,0,.74.17,1.72,1.72,0,0,0,1.54-1A1.7,1.7,0,0,0,97.89,30.7Zm1.51,95.17a1.93,1.93,0,0,0,.81-.19h0a1.86,1.86,0,0,0-.82-3.53,1.84,1.84,0,0,0-.82.2h0a1.87,1.87,0,0,0,.83,3.54Zm24.42-11.55a2.09,2.09,0,0,0-1.34,3.7,2,2,0,0,0,1.34.48,2.09,2.09,0,0,0,0-4.18Zm-22,3.07a1.7,1.7,0,1,0-1.47,2.55,1.64,1.64,0,0,0,.85-.22A1.7,1.7,0,0,0,101.81,117.39Zm23.28-74.71A1.94,1.94,0,0,0,124,43a2,2,0,0,0,1.07,3.62,2,2,0,0,0,1.65-3A2,2,0,0,0,125.09,42.67ZM124.79,108a2,2,0,1,0-1.13,3.58,2,2,0,0,0,1.61-.84A2,2,0,0,0,124.79,108ZM129,81.21l-.24,0a1.87,1.87,0,0,0-.24,3.72h.25a1.87,1.87,0,0,0,.24-3.72Zm3.47,9.45a1.56,1.56,0,0,0,.43.05,2,2,0,0,0,.42-3.88,2,2,0,1,0-.85,3.83Zm-3.35-19.93h-.14a1.86,1.86,0,0,0,.12,3.71h.13a1.86,1.86,0,0,0-.11-3.72Zm18.06,7.33a3,3,0,0,0,.05-.43A2.22,2.22,0,0,0,145,75.36h0a2.22,2.22,0,1,0,2.14,2.69Zm-.55-9.74a2.47,2.47,0,0,0,2.46,2.19h.26a2.46,2.46,0,0,0-.27-4.91h-.27A2.47,2.47,0,0,0,146.6,68.32Zm-13.76-.8a2,2,0,0,0,3.87.13,2.23,2.23,0,0,0,0-.72,2,2,0,0,0-2-1.68l-.3,0A2,2,0,0,0,132.84,67.52ZM142.9,87.18a2.13,2.13,0,0,0-.43,0,2.22,2.22,0,0,0-.44,4.39,2.53,2.53,0,0,0,.43,0,2.22,2.22,0,0,0,2.18-1.79h0A2.22,2.22,0,0,0,142.9,87.18ZM138.14,85a2.09,2.09,0,0,0,.22-4.17h-.24a2.09,2.09,0,0,0-.21,4.17Zm3.51-12.57a2.09,2.09,0,0,0-2.06-2.54h-.12a2.09,2.09,0,1,0,.28,4.18A2.08,2.08,0,0,0,141.65,72.45Zm.81-7.42a2.39,2.39,0,0,0,.43,0,2.22,2.22,0,1,0-.43,0Zm-8.32-28a2.21,2.21,0,1,0-.6,3.09A2.22,2.22,0,0,0,134.14,37.05Zm.84,59.9a2.11,2.11,0,0,0,.63.11,2.1,2.1,0,0,0,.63-4.1,2.14,2.14,0,0,0-.63-.1,2.09,2.09,0,0,0-.63,4.09Zm-.79-17.62h0a2,2,0,0,0,0-3.94h0a2,2,0,0,0,0,3.94Zm-2.77-30.15a2,2,0,0,0,1-.24,2.1,2.1,0,0,0,.9-2.82h0A2.1,2.1,0,0,0,131.43,45a2,2,0,0,0-1,.24,2.08,2.08,0,0,0,1,3.94Zm-15,3.16h0a1.71,1.71,0,0,0,3-1.71h0a1.69,1.69,0,1,0-2.93,1.71Zm-.21,7.33a1.54,1.54,0,0,0,2,.82,1.52,1.52,0,0,0,.9-1.08,1.57,1.57,0,0,0-.08-.93,1.55,1.55,0,0,0-1.42-.95,1.49,1.49,0,0,0-.6.13A1.53,1.53,0,0,0,116.24,59.67Zm3,25.43a1.56,1.56,0,0,0,1.52-1.29A1.53,1.53,0,0,0,119.5,82l-.26,0a1.54,1.54,0,0,0-.26,3.06Zm-1.1-43.42a1.84,1.84,0,0,0-1.13.39,1.86,1.86,0,1,0,1.13-.39Zm.31,23.15a1.54,1.54,0,0,0,.34,3,1.44,1.44,0,0,0,.34,0A1.54,1.54,0,0,0,120.3,66a1.57,1.57,0,0,0-1.52-1.2A1.48,1.48,0,0,0,118.45,64.83Zm3,10.05a1.52,1.52,0,0,0-1.53-1.5h0a1.54,1.54,0,0,0,0,3.07h0A1.52,1.52,0,0,0,121.41,74.88Zm2.71-3.67.22,0a1.69,1.69,0,0,0,1.46-1.92,1.71,1.71,0,0,0-1.7-1.47l-.22,0a1.71,1.71,0,0,0,.24,3.4Zm-.44-20.63a1.87,1.87,0,0,0,0,3.73,1.81,1.81,0,0,0,.82-.2,1.86,1.86,0,0,0-.82-3.54Zm-1.85,11.19a1.7,1.7,0,0,0,3.27-.15,1.67,1.67,0,0,0,0-.88,1.71,1.71,0,0,0-1.62-1.18,1.7,1.7,0,0,0-1.61,2.22Zm4.33,17.39a1.68,1.68,0,0,0-1.59-1.8h-.12A1.71,1.71,0,0,0,122.76,79a1.69,1.69,0,0,0,1.6,1.8h.11A1.7,1.7,0,0,0,126.16,79.16Zm-23.68,32.07a1.52,1.52,0,0,0-1.25-.65A1.54,1.54,0,0,0,100,113a1.52,1.52,0,0,0,1.24.64,1.57,1.57,0,0,0,.9-.28A1.54,1.54,0,0,0,102.48,111.23Zm19.94-41.49h0Zm.09,20.41a1.7,1.7,0,0,0,.87-3.29,1.7,1.7,0,1,0-.87,3.29Zm-4.12,2.3a1.54,1.54,0,0,0-.89-2,1.5,1.5,0,0,0-.55-.1,1.54,1.54,0,0,0-.56,3,1.65,1.65,0,0,0,.55.11A1.56,1.56,0,0,0,118.39,92.45ZM108.1,114.33a1.65,1.65,0,0,0,1.12-.42,1.72,1.72,0,1,0-1.12.42Zm-2-68.73a1.53,1.53,0,0,0,1.12-.47,1.55,1.55,0,0,0-.06-2.18A1.54,1.54,0,0,0,105,43a1.55,1.55,0,0,0,.07,2.18A1.51,1.51,0,0,0,106.14,45.6Zm1.63,62.4a1.54,1.54,0,0,0,1.12-.47h0a1.52,1.52,0,0,0-.05-2.17,1.55,1.55,0,0,0-1.07-.43,1.52,1.52,0,0,0-1.11.48,1.54,1.54,0,0,0,.05,2.18A1.57,1.57,0,0,0,107.77,108Zm.39-78.22a2.05,2.05,0,0,0,1.13.35,2,2,0,0,0,1.62-.84,2,2,0,1,0-2.75.49Zm-3.9,8.81a1.7,1.7,0,1,0-.33-2.38A1.69,1.69,0,0,0,104.27,38.59Zm-.18-7.84a1.88,1.88,0,0,0-.68-2.56,1.85,1.85,0,0,0-.92-.25,1.87,1.87,0,0,0-.94,3.49h0a1.83,1.83,0,0,0,.93.25A1.87,1.87,0,0,0,104.08,30.75Zm7.1,11.71a1.7,1.7,0,0,0-.16,2.4A1.71,1.71,0,1,0,112.31,42,1.67,1.67,0,0,0,111.19,42.46Zm-2.91,77.88a1.88,1.88,0,0,0,1.14-.39,1.86,1.86,0,0,0-1.14-3.34,1.83,1.83,0,0,0-1.13.39,1.86,1.86,0,0,0,1.12,3.35Zm4-19.42a1.43,1.43,0,0,0,.82.24,1.53,1.53,0,0,0,1.3-.71,1.54,1.54,0,0,0-.47-2.13,1.54,1.54,0,1,0-1.64,2.6Zm1.31,6.05a1.7,1.7,0,0,0,2-2.72,1.7,1.7,0,0,0-2,2.72ZM111.8,52.15a1.46,1.46,0,0,0,.88-.29,1.53,1.53,0,0,0,.38-2.14,1.55,1.55,0,0,0-1.26-.65,1.52,1.52,0,0,0-.89.29,1.53,1.53,0,0,0-.37,2.14A1.56,1.56,0,0,0,111.8,52.15Zm.59-15a1.88,1.88,0,0,0-.19-2.64,1.86,1.86,0,1,0-2.45,2.81,1.89,1.89,0,0,0,2.64-.17Zm3.53,76a1.87,1.87,0,1,0-1.4-3.1,1.87,1.87,0,0,0,.17,2.64A1.91,1.91,0,0,0,115.92,113.17ZM95.71,7.66a2.55,2.55,0,0,0,.7.09,2.46,2.46,0,0,0,.68-4.83,2.47,2.47,0,1,0-1.38,4.74ZM68.61,147.43h-.26a2.46,2.46,0,0,0-.51,4.86l.27,0a2.46,2.46,0,1,0,.49-4.89ZM66.35,34.53a1.54,1.54,0,0,0-.34-3,1.59,1.59,0,0,0-.34,0,1.54,1.54,0,0,0,.34,3A1.6,1.6,0,0,0,66.35,34.53ZM62.9,140.62a2.29,2.29,0,0,0-.44,0A2.21,2.21,0,0,0,62,145a2.43,2.43,0,0,0,.43,0,2.21,2.21,0,0,0,.42-4.38ZM54,130.41a2,2,0,0,0-1-2.6h0a1.92,1.92,0,0,0-.8-.17,2,2,0,0,0-1.79,1.17,2,2,0,0,0,1,2.6,1.83,1.83,0,0,0,.79.17A2,2,0,0,0,54,130.41Zm1.81,14.08a2.56,2.56,0,0,0-.68-.09,2.46,2.46,0,0,0-.7,4.83,2.34,2.34,0,0,0,.68.09,2.47,2.47,0,0,0,.7-4.83Zm3.37-19.59a1.88,1.88,0,0,0-.61-.1,1.88,1.88,0,1,0,.61.1Zm-1.67,9a2.09,2.09,0,1,0-.63,4.09,2.1,2.1,0,0,0,.63-4.09Zm6-2.66a1.86,1.86,0,0,0-.42,0,2,2,0,0,0-.43,3.89h0a1.63,1.63,0,0,0,.43.05,2,2,0,0,0,.42-3.88Zm10.92,5.25h0a2,2,0,0,0,0-3.94h0a2,2,0,0,0,0,3.94Zm-5.29-.13h-.22a2.09,2.09,0,0,0-.23,4.17h.22a2.09,2.09,0,0,0,.22-4.16Zm10.22-5.13a1.87,1.87,0,0,0-.13-3.73h-.12a1.87,1.87,0,0,0,.12,3.73Zm-4.47,11.06h0a2.21,2.21,0,0,0-.45,4.38,2.66,2.66,0,0,0,.43.05,2.22,2.22,0,1,0,.06-4.43Zm-2.5-117.7a1.87,1.87,0,0,0-.13-3.73h-.12a1.87,1.87,0,0,0,.12,3.73Zm.38,101.88a1.7,1.7,0,0,0,.1-3.4h-.12a1.69,1.69,0,0,0-1.68,1.59,1.71,1.71,0,0,0,1.59,1.81Zm-37.91-8.55a2,2,0,0,0-1.37-3.39,2,2,0,0,0-1.41,3.33,2,2,0,0,0,2.78.06Zm-5.63,7.79a2.22,2.22,0,0,0-3.14-3.14,2.22,2.22,0,0,0,3.14,3.14ZM28.12,117a2.09,2.09,0,0,0-1.31-3.73,2.07,2.07,0,0,0-1.3.46,2.11,2.11,0,0,0-.33,3h0a2.08,2.08,0,0,0,1.64.79A2,2,0,0,0,28.12,117Zm-6.18-12.9a2.09,2.09,0,1,0-1.85,3.06,2,2,0,0,0,1-.23,2.08,2.08,0,0,0,.89-2.81Zm-.7-8.78a1.92,1.92,0,0,0-.72.14A2,2,0,0,0,19.4,98h0a2,2,0,0,0,1.84,1.26,2,2,0,0,0,0-3.94Zm1.2-13.88h.12a1.86,1.86,0,0,0-.11-3.72h-.12a1.87,1.87,0,0,0,.12,3.73Zm24.14,47.83a2.09,2.09,0,0,0-2.84.83,2.06,2.06,0,0,0,.83,2.83,1.92,1.92,0,0,0,1,.27,2.09,2.09,0,0,0,1-3.93Zm-3.74,10a2.46,2.46,0,1,0-2.27,4.37,2.52,2.52,0,0,0,1.13.27,2.46,2.46,0,0,0,1.14-4.64Zm-11.68-7.64a2.46,2.46,0,0,0-3.09,3.84,2.48,2.48,0,0,0,1.54.54,2.47,2.47,0,0,0,1.55-4.38Zm8.65,2.2a2.21,2.21,0,0,0-.6-3.07,2.18,2.18,0,0,0-1.23-.37,2.21,2.21,0,1,0,0,4.43A2.18,2.18,0,0,0,39.8,133.86Zm10.76,3a2.17,2.17,0,0,0-.85-.17,2.21,2.21,0,0,0-.84,4.26,2.35,2.35,0,0,0,.84.17,2.23,2.23,0,0,0,2-1.38A2.21,2.21,0,0,0,50.56,136.88ZM82.49,139a2.1,2.1,0,0,0-2.1-1.95h-.14a2.1,2.1,0,0,0-.27,4.14,2.23,2.23,0,0,0,.58,0A2.11,2.11,0,0,0,82.49,139ZM36.77,122.54a2.1,2.1,0,1,0,.25,3A2.1,2.1,0,0,0,36.77,122.54ZM26.41,109.48a2,2,0,0,0,1.65-3h0a2,2,0,1,0-1.67,3Zm104.69-9.06a2,2,0,0,0-1-2.6,2,2,0,0,0-2.6,1,2,2,0,0,0,1,2.6,1.93,1.93,0,0,0,.79.17A2,2,0,0,0,131.1,100.43Zm-3-6.58a1.85,1.85,0,0,0-1.16-2.36,1.93,1.93,0,0,0-.61-.1,1.87,1.87,0,0,0-1.77,1.27h0A1.85,1.85,0,0,0,125.74,95a1.93,1.93,0,0,0,.6.11A1.87,1.87,0,0,0,128.11,93.85Zm4.5,13.43h0a2.08,2.08,0,0,0-.83-2.84,2.05,2.05,0,0,0-1-.26,2.09,2.09,0,0,0-1,3.92,2,2,0,0,0,1,.26A2.11,2.11,0,0,0,132.61,107.28Zm-8.76,14.67a2.22,2.22,0,1,0,1.57.65A2.21,2.21,0,0,0,123.84,121.95Zm8.46-5.86a2.22,2.22,0,0,0,1.24-4.06,2.23,2.23,0,0,0-1.24-.38,2.22,2.22,0,0,0-1.23,4.05A2.25,2.25,0,0,0,132.3,116.09Zm-9.17,14a2.46,2.46,0,1,0,1.58,4.35,2.47,2.47,0,0,0-1.58-4.35ZM140.65,103a2.22,2.22,0,1,0-2.9,1.2,2.16,2.16,0,0,0,.86.17A2.22,2.22,0,0,0,140.65,103Zm-5.86,17.35a2.49,2.49,0,0,0-1.55-.55,2.46,2.46,0,0,0-1.53,4.38,2.49,2.49,0,0,0,1.54.54,2.46,2.46,0,0,0,1.55-4.37Zm12.43-25.95a2.52,2.52,0,0,0-.69-.1,2.46,2.46,0,1,0,.69.1Zm3.33-12.69h-.25a2.46,2.46,0,1,0,2.38,3,1.64,1.64,0,0,0,0-.27A2.45,2.45,0,0,0,150.56,81.67Zm-8.27,26.28a2.46,2.46,0,1,0,1.05,3.32A2.46,2.46,0,0,0,142.29,107.95Zm-21.21-3.55a1.9,1.9,0,0,0,.93.25,1.85,1.85,0,0,0,1.61-.93,1.86,1.86,0,1,0-2.55.68Zm-19.28,32.31a2.15,2.15,0,0,0-.85.17,2.22,2.22,0,0,0,.84,4.27,2.12,2.12,0,0,0,.85-.17,2.22,2.22,0,0,0-.84-4.26Zm-4.13-4.27a2,2,0,1,0-.71.13A2.13,2.13,0,0,0,97.66,132.44Zm-4.35,1.8a2.13,2.13,0,0,0-.58.08,2.1,2.1,0,0,0,.59,4.11,2.2,2.2,0,0,0,.58-.08,2.1,2.1,0,0,0-.58-4.11Zm4.62,9.71a2.46,2.46,0,1,0,0,4.92,2.43,2.43,0,0,0,.75-.12,2.46,2.46,0,0,0-.74-4.8Zm-14.13,3-.28,0a2.46,2.46,0,0,0,.26,4.9h.28a2.46,2.46,0,0,0-.25-4.9Zm3.31-13a2,2,0,0,0-1.94-1.65l-.32,0a2,2,0,0,0-.1,3.87,2.13,2.13,0,0,0,.72,0A2,2,0,0,0,87.11,133.94Zm34-35.74a1.69,1.69,0,0,0-.77-2.27,1.67,1.67,0,0,0-.75-.18,1.71,1.71,0,0,0-1.53,1,1.69,1.69,0,0,0,.79,2.27,1.61,1.61,0,0,0,.73.17A1.69,1.69,0,0,0,121.13,98.21ZM89,140.58a2.33,2.33,0,0,0-.44,0A2.21,2.21,0,0,0,89,145a2.35,2.35,0,0,0,.43,0,2.21,2.21,0,0,0-.43-4.39Zm26-17.65a2.08,2.08,0,0,0-1.62,3.4,2.09,2.09,0,0,0,3.27-2.61A2.11,2.11,0,0,0,115,122.93Zm1.17-6.57a2,2,0,0,0-1.37.56h0a2,2,0,0,0,1.37,3.4,2,2,0,0,0,1.37-.55,2,2,0,0,0-1.36-3.39Zm-11.47,13.3a2.1,2.1,0,0,0,0,4.19,2.17,2.17,0,0,0,1-.24,2.1,2.1,0,0,0-1-4Zm8.81.76a2.17,2.17,0,0,0-1.22.37,2.2,2.2,0,0,0-.6,3.07,2.17,2.17,0,0,0,1.84,1,2.26,2.26,0,0,0,1.23-.37,2.22,2.22,0,0,0-1.25-4.06Zm-2.32,7.84a2.46,2.46,0,1,0,0,4.93,2.63,2.63,0,0,0,1.18-.3,2.47,2.47,0,0,0-1.19-4.63Zm-2.37-13.89a2,2,0,1,0-.6,2.72A2,2,0,0,0,108.85,124.36ZM49.7,34.78a1.7,1.7,0,0,0,1.47.84A1.79,1.79,0,0,0,52,35.4a1.7,1.7,0,0,0-.85-3.18,1.66,1.66,0,0,0-.86.24h0A1.71,1.71,0,0,0,49.7,34.78Zm0-19.34a2.12,2.12,0,0,0,.84-.17,2.2,2.2,0,1,0-.84.17Zm3.86-7.23a2.42,2.42,0,0,0,.73-.12,2.46,2.46,0,0,0-.74-4.8,2.5,2.5,0,0,0-.74.11,2.46,2.46,0,0,0,.75,4.8ZM46.77,22.49a2.16,2.16,0,0,0,1-.24,2.09,2.09,0,1,0-1.94-3.7h0a2.09,2.09,0,0,0,1,4Zm4.61,92.22a1.59,1.59,0,0,0,.83.23,1.54,1.54,0,1,0-1.31-2.36A1.56,1.56,0,0,0,51.38,114.71ZM49,40.92a1.57,1.57,0,0,0,1.26.66,1.52,1.52,0,0,0,.9-.29,1.54,1.54,0,0,0-1.77-2.52A1.55,1.55,0,0,0,49,40.92Zm4.59,80.53a1.74,1.74,0,0,0,.75.18,1.71,1.71,0,0,0,.75-3.24,1.69,1.69,0,0,0-.73-.17,1.71,1.71,0,0,0-1.54,1A1.69,1.69,0,0,0,53.61,121.46ZM52.13,30a1.8,1.8,0,0,0,.81-.19,1.87,1.87,0,0,0-.82-3.54,1.81,1.81,0,0,0-.82.2A1.85,1.85,0,0,0,50.45,29,1.87,1.87,0,0,0,52.13,30ZM42.66,27.8a2,2,0,0,0,2.72.6,2,2,0,0,0-1.07-3.63,1.9,1.9,0,0,0-1,.31h0A2,2,0,0,0,42.66,27.8Zm-7.36,8a2,2,0,0,0,1.43-3.34,2,2,0,0,0-1.43-.6,1.92,1.92,0,0,0-1.35.55,2,2,0,0,0,1.35,3.39Zm5-21.9a2.45,2.45,0,1,0-2.15-1.27A2.46,2.46,0,0,0,40.29,13.9ZM30.42,47.75a1.84,1.84,0,0,0-.92-.25,1.88,1.88,0,0,0-1.62.93,1.86,1.86,0,0,0,1.61,2.8,1.85,1.85,0,0,0,1.62-.93A1.87,1.87,0,0,0,30.42,47.75Zm-.05,6.2a1.7,1.7,0,0,0,.79,2.27,1.7,1.7,0,0,0,1.5-3.06A1.74,1.74,0,0,0,31.9,53,1.7,1.7,0,0,0,30.36,53.95ZM38,21.73a2.26,2.26,0,0,0,1.23-.37,2.21,2.21,0,0,0,.6-3.07,2.19,2.19,0,0,0-1.83-1,2.21,2.21,0,1,0,0,4.42Zm-1.5,7.49a2.05,2.05,0,0,0,1.31-.46,2.1,2.1,0,0,0-2.63-3.27,2.09,2.09,0,0,0,1.31,3.73ZM37,42.08a1.88,1.88,0,0,0-.18-2.64,1.87,1.87,0,0,0-2.45,2.81,1.83,1.83,0,0,0,1.23.46A1.86,1.86,0,0,0,37,42.08Zm-8.62-20a2.47,2.47,0,1,0-1.89-.88A2.48,2.48,0,0,0,28.37,22.07Zm15,15.75a1.7,1.7,0,0,0-1.28,2.83,1.7,1.7,0,0,0,1.27.58,1.67,1.67,0,0,0,1.13-.43,1.7,1.7,0,0,0-1.13-3Zm-4.6,62.47a1.54,1.54,0,0,0,.89,2.79,1.6,1.6,0,0,0,.89-.28,1.55,1.55,0,0,0,.37-2.15,1.54,1.54,0,0,0-2.15-.37Zm1.71,17.81a1.87,1.87,0,1,0-1.4-3.08,1.84,1.84,0,0,0,.18,2.63A1.8,1.8,0,0,0,40.52,118.11ZM38.26,47.57a1.7,1.7,0,1,0-2.39.33,1.69,1.69,0,0,0,1,.34A1.66,1.66,0,0,0,38.26,47.57Zm-.66,6.26a1.53,1.53,0,0,0,.81.24,1.55,1.55,0,0,0,1.31-.72A1.54,1.54,0,0,0,38.43,51a1.54,1.54,0,0,0-.82,2.84Zm1.59,56.29a1.7,1.7,0,0,0,0-3.4,1.69,1.69,0,0,0-1.13.43,1.71,1.71,0,0,0-.15,2.4A1.69,1.69,0,0,0,39.2,110.11Zm6,6.17a1.77,1.77,0,0,0,1,.34,1.7,1.7,0,0,0,1-3.06,1.67,1.67,0,0,0-1-.35,1.71,1.71,0,0,0-1,3.07ZM48.11,124a2,2,0,0,0,.93.25,1.87,1.87,0,0,0,.93-3.48,1.82,1.82,0,0,0-.93-.26,1.87,1.87,0,0,0-.93,3.48Zm-2.75-14.33A1.54,1.54,0,0,0,46.43,107a1.52,1.52,0,0,0-1.06-.42,1.55,1.55,0,0,0-1.07,2.66A1.52,1.52,0,0,0,45.37,109.63Zm-2.74-65a1.53,1.53,0,0,0,.05,2.18,1.57,1.57,0,0,0,1.06.42,1.54,1.54,0,0,0,0-3.08A1.53,1.53,0,0,0,42.62,44.64Zm-1.55,81a2,2,0,0,0,1.13.35,2,2,0,0,0,0-3.94,2,2,0,0,0-1.14,3.58Zm2.15-93.78a1.86,1.86,0,0,0-1.47,3,1.87,1.87,0,0,0,1.48.72,1.84,1.84,0,0,0,1.13-.38,1.86,1.86,0,0,0-1.14-3.34ZM27.66,30.2a2.2,2.2,0,0,0,1.56-.64,2.22,2.22,0,0,0,0-3.14,2.18,2.18,0,0,0-1.56-.65,2.22,2.22,0,1,0,0,4.43ZM16.71,31.85a2.44,2.44,0,0,0,1.54.54,2.46,2.46,0,1,0-1.54-.54ZM9.22,44.21a2.46,2.46,0,1,0-1.05-3.32A2.47,2.47,0,0,0,9.22,44.21Zm10-8.13A2.22,2.22,0,0,0,18,40.14a2.26,2.26,0,0,0,1.23.37,2.21,2.21,0,0,0,1.23-4.06A2.17,2.17,0,0,0,19.2,36.07ZM4.28,57.8A2.53,2.53,0,0,0,5,57.9a2.46,2.46,0,0,0,.68-4.83A2.47,2.47,0,0,0,4.28,57.8Zm16.28,6a2,2,0,1,0-2.35,1.5,1.7,1.7,0,0,0,.43.05A2,2,0,0,0,20.56,63.83ZM18.9,44.89a2.08,2.08,0,0,0,.81,2.84,2,2,0,0,0,1,.26,2.09,2.09,0,0,0,1-3.93,2,2,0,0,0-1-.26A2.09,2.09,0,0,0,18.9,44.89Zm-7.8,64.19a2.44,2.44,0,0,0-1.18.3A2.46,2.46,0,0,0,11.12,114a2.43,2.43,0,0,0,1.18-.3,2.46,2.46,0,0,0-1.2-4.62Zm1.78-9.18a2.22,2.22,0,0,0,0,4.43,2.16,2.16,0,0,0,.84-.17A2.21,2.21,0,0,0,15,101.26,2.24,2.24,0,0,0,12.89,99.89ZM19.28,121a2.46,2.46,0,1,0,0,4.93,2.46,2.46,0,1,0,0-4.93ZM17.51,93.06a2.1,2.1,0,0,0-4,1.17,2.12,2.12,0,0,0,2,1.51,2.29,2.29,0,0,0,.58-.09A2.09,2.09,0,0,0,17.51,93.06ZM4.91,83.85a2.48,2.48,0,0,0-2.45-2.21H2.19a2.46,2.46,0,0,0,.26,4.91h.26A2.47,2.47,0,0,0,4.91,83.85Zm.53,11.94a2.46,2.46,0,0,0,0,4.92,2.52,2.52,0,0,0,.75-.12,2.46,2.46,0,0,0-.73-4.81Zm5.42-46.6a2.22,2.22,0,1,0,2.9-1.2,2.22,2.22,0,0,0-2.9,1.2Zm9.56,2.53a2,2,0,0,0,1,2.6,2.08,2.08,0,0,0,.79.16A1.94,1.94,0,0,0,24,53.31a2,2,0,1,0-3.6-1.59Zm-3.19,25h.05a2,2,0,0,0,0-3.94h0a2,2,0,0,0,0,3.94Zm.13,38.34a2.21,2.21,0,0,0,1.85,1,2.11,2.11,0,0,0,1.22-.38,2.21,2.21,0,1,0-3.07-.6ZM23,67.24l-.24,0a1.87,1.87,0,0,0-.25,3.72h.25A1.86,1.86,0,0,0,23,67.24Zm.38-8.94a1.87,1.87,0,0,0,1.17,2.36,1.89,1.89,0,0,0,.61.1,1.87,1.87,0,0,0,.59-3.64,1.89,1.89,0,0,0-.6-.1A1.87,1.87,0,0,0,23.39,58.3ZM9,91.57a2.35,2.35,0,0,0,.43,0,2.22,2.22,0,0,0,1.74-2.6h0a2.21,2.21,0,0,0-2.15-1.78,2.17,2.17,0,0,0-.44,0A2.21,2.21,0,0,0,9,91.57ZM15.9,59.29a2.09,2.09,0,0,0,0-4.18,2.09,2.09,0,1,0,0,4.18Zm-2.53,7.85a2.09,2.09,0,0,0-.23,4.17h.24a2.09,2.09,0,0,0,2.07-1.86h0a2.09,2.09,0,0,0-1.85-2.31ZM9,65a2.21,2.21,0,0,0,.42-4.38,2.34,2.34,0,0,0-.43,0A2.22,2.22,0,0,0,8.61,65,2.47,2.47,0,0,0,9,65ZM36.42,93.82a1.54,1.54,0,0,0-1.5-1A1.54,1.54,0,0,0,33.5,94a1.57,1.57,0,0,0,.06.93,1.54,1.54,0,0,0,2.87-1.12Zm-5.54-2.23a1.69,1.69,0,0,0-3.27.08,1.66,1.66,0,0,0,0,.88,1.7,1.7,0,0,0,3.26-1ZM2.61,71a2.46,2.46,0,0,0,.65-4.88,2.33,2.33,0,0,0-.43,0A2.46,2.46,0,0,0,.55,68a2.13,2.13,0,0,0-.05.27A2.45,2.45,0,0,0,2.61,71ZM25.7,89.38h0a1.87,1.87,0,0,0-1.9-1.47l-.34,0a1.87,1.87,0,0,0-1.41,1.39,2,2,0,0,0,0,.83h0a1.86,1.86,0,1,0,3.63-.8ZM5.94,74.74A2.21,2.21,0,1,0,8.19,73H8A2.21,2.21,0,0,0,5.94,74.74Zm7.49,8.32a2.09,2.09,0,1,0-.17-4.18h0a2.08,2.08,0,0,0-1.95,1.6,2.24,2.24,0,0,0-.06.58A2.11,2.11,0,0,0,13.43,83.05ZM20,85.6a2,2,0,0,0-2-1.71l-.19,0a2,2,0,0,0-1.66,1.49,2.13,2.13,0,0,0,0,.72A2,2,0,1,0,20,85.6Z"/></svg>